<?xml version="1.0" standalone="no"?>
<!DOCTYPE svg PUBLIC "-//W3C//DTD SVG 1.1//EN" "http://www.w3.org/Graphics/SVG/1.1/DTD/svg11.dtd" >
<svg>
<metadata>
Created by FontForge 20090622 at Tue Dec 24 07:32:20 2019
 By deploy user
Copyright 2017 The Barlow Project Authors (https://github.com/jpt/barlow)
</metadata>
<defs>
<font id="BarlowCondensed-Bold" horiz-adv-x="0" >
  <font-face 
    font-family="Barlow Condensed"
    font-weight="700"
    font-stretch="condensed"
    units-per-em="1000"
    panose-1="0 0 8 6 0 0 0 0 0 0"
    ascent="800"
    descent="-200"
    x-height="514"
    cap-height="700"
    bbox="-487 -210 1002 981"
    underline-thickness="50"
    underline-position="-50"
    unicode-range="U+000D-U+25CA"
  />
<missing-glyph horiz-adv-x="404" 
d="M0 5q0 -5 5 -5h394q5 0 5 5v690q0 5 -5 5h-394q-5 0 -5 -5v-690zM159 249q-12 0 -12 12v19q0 33 16 59t35 39t35 33t16 43t-11 37t-29 14q-21 0 -33 -14.5t-12 -39.5v-8q0 -11 -12 -11l-77 3q-12 0 -12 9v7q0 65 41 105.5t107 40.5q63 0 101 -38t38 -101q0 -40 -16 -69.5
t-35.5 -43t-35.5 -32t-16 -39.5v-13q0 -12 -12 -12h-76zM202 89q-23 0 -39.5 16.5t-16.5 40.5q0 23 16.5 40t39.5 17t39.5 -17t16.5 -40q0 -24 -16.5 -40.5t-39.5 -16.5z" />
    <glyph glyph-name="I_J.liga" unicode="IJ" horiz-adv-x="682" 
d="M56 0q-12 0 -12 12v676q0 12 12 12h117q12 0 12 -12v-676q0 -12 -12 -12h-117zM440 -8q-88 0 -142 51.5t-54 136.5v69q0 12 12 12h117q12 0 12 -12v-71q0 -29 15 -47t40 -18q26 0 41.5 18t15.5 47v510q0 12 12 12h117q12 0 12 -12v-508q0 -85 -54.5 -136.5t-143.5 -51.5z
" />
    <glyph glyph-name="f_f_i.liga" unicode="ffi" horiz-adv-x="789" 
d="M676 564q-37 0 -59.5 23t-22.5 61q0 37 22.5 60t59.5 23t59 -22.5t22 -60.5t-22 -61t-59 -23zM470 542v-23q0 -5 5 -5h55q12 0 12 -12v-75q0 -12 -12 -12h-55q-5 0 -5 -5v-398q0 -12 -12 -12h-117q-12 0 -12 12v398q0 5 -5 5h-113q-5 0 -5 -5v-398q0 -12 -12 -12h-117
q-12 0 -12 12v398q0 5 -5 5h-30q-12 0 -12 12v75q0 12 12 12h30q5 0 5 5v35q0 87 46 120t144 29h1q12 0 12 -12v-72q0 -12 -6 -12h-6q-50 -3 -50 -65v-23q0 -5 5 -5h113q5 0 5 5v35q0 87 46.5 120t144.5 29h1q12 0 12 -12v-72q0 -12 -6 -12h-6q-51 -3 -51 -65zM617 0
q-12 0 -12 12v490q0 12 12 12h117q12 0 12 -12v-490q0 -12 -12 -12h-117z" />
    <glyph glyph-name="f_f_l.liga" unicode="ffl" horiz-adv-x="776" 
d="M475 542v-23q0 -5 5 -5h55q12 0 12 -12v-75q0 -12 -12 -12h-55q-5 0 -5 -5v-398q0 -12 -12 -12h-117q-12 0 -12 12v398q0 5 -5 5h-118q-5 0 -5 -5v-398q0 -12 -12 -12h-117q-12 0 -12 12v398q0 5 -5 5h-30q-12 0 -12 12v75q0 12 12 12h30q5 0 5 5v35q0 87 46 120t144 29
h1q12 0 12 -12v-72q0 -12 -6 -12h-6q-50 -3 -50 -65v-23q0 -5 5 -5h118q5 0 5 5v35q0 87 46.5 120t144.5 29h1q12 0 12 -12v-72q0 -12 -6 -12h-6q-51 -3 -51 -65zM601 688q0 12 12 12h117q12 0 12 -12v-676q0 -12 -12 -12h-117q-12 0 -12 12v676z" />
    <glyph glyph-name="f_i.liga" unicode="fi" horiz-adv-x="524" 
d="M411 563q-37 0 -59.5 23t-22.5 60q0 38 22.5 61t59.5 23t59 -23t22 -61t-22 -60.5t-59 -22.5zM205 537v-18q0 -5 5 -5h55q12 0 12 -12v-75q0 -12 -12 -12h-55q-5 0 -5 -5v-398q0 -12 -12 -12h-116q-12 0 -12 12v398q0 5 -5 5h-30q-12 0 -12 12v75q0 12 12 12h30q5 0 5 5
v27q0 90 45.5 124.5t144.5 32.5h4q12 0 12 -12l-1 -80q0 -12 -7 -12h-7q-51 -1 -51 -62zM352 0q-12 0 -12 12v490q0 12 12 12h117q12 0 12 -12v-490q0 -12 -12 -12h-117z" />
    <glyph glyph-name="f_l.liga" unicode="fl" horiz-adv-x="506" 
d="M205 537v-18q0 -5 5 -5h55q12 0 12 -12v-75q0 -12 -12 -12h-55q-5 0 -5 -5v-398q0 -12 -12 -12h-116q-12 0 -12 12v398q0 5 -5 5h-30q-12 0 -12 12v75q0 12 12 12h30q5 0 5 5v27q0 90 45.5 124.5t144.5 32.5h4q12 0 12 -12l-1 -80q0 -12 -7 -12h-7q-51 -1 -51 -62z
M331 688q0 12 12 12h117q12 0 12 -12v-676q0 -12 -12 -12h-117q-12 0 -12 12v676z" />
    <glyph glyph-name="g_j.liga" unicode="gj" horiz-adv-x="657" 
d="M549 565q-36 0 -59 23.5t-23 59.5q0 34 25 58.5t57 24.5t57 -24.5t25 -58.5q0 -36 -23 -59.5t-59 -23.5zM261 477q2 -3 4 -2t2 4v23q0 12 12 12h117q12 0 12 -12v-478q0 -57 -12 -98t-42 -74.5t-87.5 -48t-141.5 -9.5q-12 2 -12 13v98q0 13 13 11q86 -3 113.5 26.5
t27.5 96.5q0 8 -6 0q-33 -43 -93 -43q-69 0 -103 44.5t-34 123.5v190q0 81 34.5 124.5t102.5 43.5q61 0 93 -45zM479 -1v503q0 12 12 12h116q12 0 12 -12v-503q0 -53 -6.5 -86.5t-26 -62.5t-59.5 -42t-103 -12q-14 0 -12 12l9 97q2 11 11 11q47 0 47 83zM219 118
q21 0 34.5 16t13.5 41v169q0 25 -13.5 41t-34.5 16t-34 -16t-13 -41v-169q0 -25 13 -41t34 -16z" />
    <glyph glyph-name="i_j.liga" unicode="ij" horiz-adv-x="436" 
d="M328 564q-36 0 -59 24t-23 60q0 34 25 58.5t57 24.5t57 -24.5t25 -58.5q0 -36 -23 -60t-59 -24zM114 563q-37 0 -59.5 23t-22.5 60q0 38 22.5 61t59.5 23t59 -23t22 -61t-22 -60.5t-59 -22.5zM55 0q-12 0 -12 12v490q0 12 12 12h117q12 0 12 -12v-490q0 -12 -12 -12h-117
zM176 -204q-12 0 -12 12v97q0 12 13 11q45 -1 63 20.5t18 63.5v502q0 12 12 12h117q12 0 12 -12v-502q0 -45 -3 -71.5t-15.5 -55.5t-36 -44t-65.5 -24.5t-103 -8.5z" />
    <glyph glyph-name="hyphen_hyphen.liga" unicode="&#x2d;&#x2d;" horiz-adv-x="593" 
d="M36 232q-12 0 -12 12v97q0 12 12 12h521q12 0 12 -12v-97q0 -12 -12 -12h-521z" />
    <glyph glyph-name=".notdef" horiz-adv-x="404" 
d="M0 5q0 -5 5 -5h394q5 0 5 5v690q0 5 -5 5h-394q-5 0 -5 -5v-690zM159 249q-12 0 -12 12v19q0 33 16 59t35 39t35 33t16 43t-11 37t-29 14q-21 0 -33 -14.5t-12 -39.5v-8q0 -11 -12 -11l-77 3q-12 0 -12 9v7q0 65 41 105.5t107 40.5q63 0 101 -38t38 -101q0 -40 -16 -69.5
t-35.5 -43t-35.5 -32t-16 -39.5v-13q0 -12 -12 -12h-76zM202 89q-23 0 -39.5 16.5t-16.5 40.5q0 23 16.5 40t39.5 17t39.5 -17t16.5 -40q0 -24 -16.5 -40.5t-39.5 -16.5z" />
    <glyph glyph-name=".null" 
 />
    <glyph glyph-name="nonmarkingreturn" horiz-adv-x="333" 
 />
    <glyph glyph-name="CR" unicode="&#xd;" horiz-adv-x="200" 
 />
    <glyph glyph-name="space" unicode=" " horiz-adv-x="200" 
 />
    <glyph glyph-name="exclam" unicode="!" horiz-adv-x="283" 
d="M97 240q-12 0 -12 12l-14 436q0 12 12 12h117q12 0 12 -12l-14 -436q0 -12 -12 -12h-89zM140 1q-36 0 -60.5 25.5t-24.5 61.5q0 35 26 60.5t59 25.5t59 -25.5t26 -60.5q0 -37 -24 -62t-61 -25z" />
    <glyph glyph-name="quotedbl" unicode="&#x22;" horiz-adv-x="346" 
d="M41 471q-13 0 -13 12l-13 203q0 12 11 12h110q12 0 11 -12l-13 -203q0 -12 -13 -12h-80zM224 471q-13 0 -13 12l-13 203q0 12 11 12h110q13 0 11 -12l-13 -203q0 -12 -13 -12h-80z" />
    <glyph glyph-name="numbersign" unicode="#" horiz-adv-x="616" 
d="M582 416q0 -12 -12 -12h-61q-6 0 -6 -5l-14 -99q0 -5 4 -5h42q12 0 12 -12v-96q0 -12 -12 -12h-60q-6 0 -6 -5l-19 -132q-1 -11 -13 -11h-117q-12 0 -11 13l19 130q0 5 -4 5h-83q-6 0 -6 -5l-19 -132q-1 -11 -13 -11h-117q-12 0 -11 13l19 130q0 5 -4 5h-44q-12 0 -12 12
v96q0 12 12 12h62q6 0 6 5l14 99q0 5 -4 5h-43q-12 0 -12 12v97q0 12 12 12h61q6 0 6 5l19 132q1 11 13 11h117q12 0 11 -13l-19 -130q0 -5 4 -5h83q6 0 6 5l19 132q1 11 13 11h117q12 0 11 -13l-19 -130q0 -5 4 -5h43q12 0 12 -12v-97zM342 295q6 0 6 5l14 99q0 5 -4 5h-83
q-6 0 -6 -5l-14 -99q0 -5 4 -5h83z" />
    <glyph glyph-name="dollar" unicode="$" horiz-adv-x="448" 
d="M423 184q0 -76 -41.5 -126.5t-111.5 -61.5q-5 -2 -5 -6l1 -52q0 -12 -12 -12h-67q-12 0 -12 12l1 54q0 5 -4 6q-64 15 -101 62.5t-37 114.5v32q0 12 12 12h115q12 0 12 -12v-25q0 -31 15.5 -50t39.5 -19t40 18t16 47q0 30 -19.5 51.5t-77.5 63.5q-37 27 -57 43.5
t-47 45.5t-39.5 63.5t-12.5 75.5q0 71 38.5 119.5t102.5 62.5q5 2 5 6l-2 61q0 12 12 12h66q12 0 12 -12l-1 -60q0 -4 5 -6q69 -13 109.5 -63.5t40.5 -124.5v-24q0 -12 -12 -12h-115q-12 0 -12 12v27q0 31 -15.5 49.5t-41.5 18.5q-24 0 -38.5 -17.5t-14.5 -48.5
q0 -30 19 -53t74 -64q47 -34 70 -53.5t47.5 -46.5t33.5 -55t9 -65z" />
    <glyph glyph-name="percent" unicode="%" horiz-adv-x="766" 
d="M200 393q-65 0 -110.5 46t-45.5 112q0 65 46 111.5t110 46.5t109 -46.5t45 -111.5q0 -66 -45 -112t-109 -46zM158 0q-15 0 -8 14l364 678q4 8 15 8h75q15 0 8 -14l-364 -678q-4 -8 -15 -8h-75zM200 466q34 0 56.5 25t22.5 60t-23 59.5t-56 24.5q-34 0 -57.5 -24.5
t-23.5 -59.5q0 -36 23.5 -60.5t57.5 -24.5zM567 -9q-64 0 -109.5 46.5t-45.5 112.5q0 65 45.5 111t109.5 46t109.5 -46t45.5 -111q0 -66 -45.5 -112.5t-109.5 -46.5zM567 65q34 0 57 25t23 60t-23.5 59.5t-56.5 24.5q-34 0 -57 -24.5t-23 -59.5q0 -36 23 -60.5t57 -24.5z
" />
    <glyph glyph-name="ampersand" unicode="&#x26;" horiz-adv-x="606" 
d="M570 15q5 -6 2.5 -10.5t-9.5 -4.5h-127q-9 0 -15 7q-2 3 -10.5 14t-12.5 17q-3 4 -7 1q-73 -48 -166 -48q-90 0 -142 45t-52 132q0 112 106 193q4 3 1 7q-45 62 -58.5 92.5t-13.5 67.5q0 81 50.5 130.5t132.5 49.5q85 0 139 -51t54 -132q0 -107 -115 -189q-5 -3 -1 -7
l27 -35l47 -61q4 -4 7 0q25 34 46 74q5 11 16 5l86 -49q10 -6 5 -17q-37 -69 -73 -117q-2 -2 0 -6zM254 580q-22 0 -34.5 -15.5t-12.5 -41.5q0 -18 6 -33t30 -49q3 -5 7 -2q51 43 51 85q0 25 -13 40.5t-34 15.5zM247 111q29 3 66 26q3 3 1 7l-14.5 18l-14.5 18l-61 77
q-3 3 -7 1q-45 -38 -45 -79q0 -30 19 -50t56 -18z" />
    <glyph glyph-name="quotesingle" unicode="'" horiz-adv-x="170" 
d="M40 473q-13 0 -13 12l-12 202q0 12 11 12h118q12 0 11 -12l-14 -202q-2 -12 -13 -12h-88z" />
    <glyph glyph-name="parenleft" unicode="(" horiz-adv-x="311" 
d="M126 -91q-10 0 -14 8q-111 169 -111 415q0 250 111 419q4 8 14 8h115q16 0 9 -14q-91 -199 -91 -412t91 -410q7 -14 -9 -14h-115z" />
    <glyph glyph-name="parenright" unicode=")" horiz-adv-x="311" 
d="M199 -83q-4 -8 -14 -8h-115q-16 0 -9 14q91 197 91 410t-91 412q-7 14 9 14h115q10 0 14 -8q111 -169 111 -419q0 -246 -111 -415z" />
    <glyph glyph-name="asterisk" unicode="*" horiz-adv-x="361" 
d="M153 396q-12 0 -12 12l1 83q0 7 -6 3l-72 -42q-9 -6 -16 5l-28 50q-6 9 4 16l77 44q5 3 0 7l-77 43q-10 7 -4 16l28 53q7 12 17 5l71 -44q6 -4 6 3l-1 84q0 12 12 12h56q12 0 12 -12l-1 -84q0 -7 6 -3l71 44q10 7 17 -5l28 -53q5 -10 -4 -16l-76 -43q-5 -4 0 -7l76 -44
q9 -6 4 -16l-28 -53q-6 -11 -17 -4l-71 44q-6 4 -6 -3l1 -83q0 -12 -12 -12h-56z" />
    <glyph glyph-name="plus" unicode="+" horiz-adv-x="438" 
d="M403 364q12 0 12 -12v-82q0 -12 -12 -12h-126q-5 0 -5 -5v-125q0 -12 -12 -12h-82q-12 0 -12 12v125q0 5 -5 5h-125q-12 0 -12 12v82q0 12 12 12h125q5 0 5 5v126q0 12 12 12h82q12 0 12 -12v-126q0 -5 5 -5h126z" />
    <glyph glyph-name="comma" unicode="," horiz-adv-x="211" 
d="M42 -98q-14 0 -12 13l22 232q2 11 12 11h102q14 0 11 -13l-53 -232q-3 -11 -13 -11h-69z" />
    <glyph glyph-name="hyphen" unicode="-" horiz-adv-x="331" 
d="M36 235q-12 0 -12 12v97q0 12 12 12h259q12 0 12 -12v-97q0 -12 -12 -12h-259z" />
    <glyph glyph-name="period" unicode="." horiz-adv-x="268" 
d="M130 -4q-37 0 -61 25t-24 62q0 35 26 60.5t59 25.5t59 -25.5t26 -60.5q0 -37 -24 -62t-61 -25z" />
    <glyph glyph-name="slash" unicode="/" horiz-adv-x="395" 
d="M28 0q-15 0 -10 14l219 676q3 10 13 10h117q15 0 10 -14l-219 -676q-3 -10 -13 -10h-117z" />
    <glyph glyph-name="zero" unicode="0" horiz-adv-x="440" 
d="M219 -11q-88 0 -141.5 55.5t-53.5 146.5v318q0 91 53.5 146.5t141.5 55.5q89 0 143 -55.5t54 -146.5v-318q0 -91 -54 -146.5t-143 -55.5zM219 110q25 0 40.5 20t15.5 53v334q0 33 -15.5 53t-40.5 20q-24 0 -39 -20t-15 -53v-334q0 -33 15 -53t39 -20z" />
    <glyph glyph-name="one" unicode="1" horiz-adv-x="275" 
d="M93 697q5 3 15 3h121q12 0 12 -12v-676q0 -12 -12 -12h-117q-12 0 -12 12v551q0 2 -1.5 4t-3.5 1l-68 -14q-13 -3 -13 10v86q0 10 9 14z" />
    <glyph glyph-name="two" unicode="2" horiz-adv-x="438" 
d="M39 0q-12 0 -12 12v101q0 9 5 15l61.5 79l71.5 93.5t48 70.5q54 86 54 145q0 34 -13.5 52.5t-36.5 18.5t-37 -18.5t-13 -47.5v-41q0 -12 -12 -12h-119q-12 0 -12 12v47q4 82 59 131.5t140 49.5q84 0 135.5 -53t51.5 -140q0 -96 -70 -200q-32 -48 -139 -188q-6 -6 3 -6
h205q12 0 12 -12v-97q0 -12 -12 -12h-370z" />
    <glyph glyph-name="three" unicode="3" horiz-adv-x="458" 
d="M426 282q1 -21 1 -60q0 -41 -1 -64q-5 -74 -59.5 -120t-138.5 -46q-87 0 -142.5 46t-60.5 120q-2 18 -2 53q0 12 12 12h117q12 0 12 -12q0 -25 1 -36q3 -28 20 -45t43 -17q27 0 44.5 17.5t20.5 44.5v62v61q-4 28 -21 44.5t-44 16.5q-16 0 -32 -13q-10 -8 -17 1l-59 61
q-8 8 0 17l134 149q4 6 -2 6h-205q-12 0 -12 12v96q0 12 12 12h365q12 0 12 -12v-100q0 -9 -5 -14l-113 -134q-3 -5 2 -6q49 -7 82 -51t36 -101z" />
    <glyph glyph-name="four" unicode="4" horiz-adv-x="478" 
d="M453 304q12 0 12 -12v-103q0 -12 -12 -12h-32q-5 0 -5 -5v-160q0 -12 -12 -12h-117q-12 0 -12 12v160q0 5 -5 5h-244q-12 0 -12 12v82q0 9 2 15l133 404q3 10 13 10h127q15 0 10 -14l-120 -376q-1 -6 4 -6h87q5 0 5 5v104q0 12 12 12h117q12 0 12 -12v-104q0 -5 5 -5h32z
" />
    <glyph glyph-name="five" unicode="5" horiz-adv-x="439" 
d="M412 280q4 -38 4 -62q0 -33 -3 -63q-4 -77 -54.5 -120t-135.5 -43q-80 0 -129 40t-59 119l-3 28q0 12 12 12h117q11 0 13 -12q0 -6 2 -16q9 -50 47 -50q41 0 49 51q3 25 3 55q0 21 -4 51q-8 47 -48 47q-38 0 -49 -35q-3 -11 -13 -11h-118q-12 0 -12 12v405q0 12 12 12
h353q12 0 12 -12v-97q0 -12 -12 -12h-219q-5 0 -5 -5v-168q0 -3 2 -4t4 2q35 35 89 35q64 0 102.5 -42t42.5 -117z" />
    <glyph glyph-name="six" unicode="6" horiz-adv-x="440" 
d="M413 277q4 -24 4 -59q0 -22 -2 -60q-3 -79 -54 -122.5t-136 -43.5q-80 0 -129.5 40t-58.5 119q-4 21 -4 55l-2 323q0 82 52.5 130.5t139.5 48.5q81 0 132.5 -49t51.5 -130v-30q0 -12 -12 -12h-117q-12 0 -12 12v22q0 27 -13 45t-30 18q-22 0 -36 -17.5t-14 -45.5v-101
q0 -8 6 -2q33 28 75 28q70 0 112.5 -46t46.5 -123zM272 169q2 48 2 59q0 27 -4 62q-6 49 -46 49q-20 0 -32.5 -13.5t-15.5 -37.5q-3 -39 -3 -60q0 -25 3 -62q6 -54 48 -54q20 0 32.5 15t15.5 42z" />
    <glyph glyph-name="seven" unicode="7" horiz-adv-x="407" 
d="M93 0q-13 0 -10 14l163 559q2 6 -4 6h-110q-5 0 -5 -5v-35q0 -12 -12 -12h-90q-12 0 -12 12l1 149q0 12 12 12h359q12 0 12 -12v-102q0 -4 -2 -14l-165 -562q-3 -10 -13 -10h-124z" />
    <glyph glyph-name="eight" unicode="8" horiz-adv-x="440" 
d="M340 369q-4 -4 1 -7q32 -19 49 -59q20 -43 20 -101q0 -46 -16 -92q-20 -55 -66 -86.5t-108 -31.5q-61 0 -107 31t-68 87q-15 42 -15 93q0 54 17 97q17 40 52 61q5 3 1 7q-36 23 -51 60q-19 39 -19 92q0 54 19 93q20 47 65.5 73.5t105.5 26.5q58 0 103 -25.5t67 -74.5
q20 -40 20 -94q0 -51 -19 -91q-16 -37 -51 -59zM175 549q-6 -19 -6 -42q0 -27 6 -46q10 -44 45 -44q17 0 29 12.5t16 33.5q6 18 6 43q0 26 -7 44q-10 42 -44 42q-35 0 -45 -43zM268 167q3 39 3 44q0 30 -6 52q-4 22 -16 34.5t-29 12.5q-37 0 -46 -49q-5 -23 -5 -48
q0 -18 4 -48q8 -52 47 -52q19 0 31.5 14.5t16.5 39.5z" />
    <glyph glyph-name="nine" unicode="9" horiz-adv-x="435" 
d="M402 494l2 -323q0 -82 -52.5 -130.5t-139.5 -48.5q-81 0 -132.5 49t-51.5 130v30q0 12 12 12h117q12 0 12 -12v-22q0 -27 13 -45t30 -18q22 0 36 17.5t14 45.5v101q0 8 -6 2q-33 -28 -75 -28q-70 0 -112.5 46t-46.5 123q-4 24 -4 59q0 22 2 60q3 79 54 122.5t136 43.5
q80 0 129.5 -40t58.5 -119q4 -21 4 -55zM259 412q3 39 3 60q0 24 -3 62q-6 54 -48 54q-20 0 -32.5 -15t-15.5 -42q-2 -48 -2 -59q0 -27 4 -62q6 -49 46 -49q20 0 32.5 13.5t15.5 37.5z" />
    <glyph glyph-name="colon" unicode=":" horiz-adv-x="275" 
d="M139 329q-37 0 -61 25t-24 62q0 35 26 60.5t59 25.5t59 -25.5t26 -60.5q0 -36 -24.5 -61.5t-60.5 -25.5zM139 2q-37 0 -61 25t-24 62q0 35 26 60.5t59 25.5t59 -25.5t26 -60.5q0 -36 -24.5 -61.5t-60.5 -25.5z" />
    <glyph glyph-name="semicolon" unicode=";" horiz-adv-x="232" 
d="M116 313q-37 0 -61 25t-24 62q0 35 26 60.5t59 25.5t59 -25.5t26 -60.5q0 -37 -24 -62t-61 -25zM49 -97q-13 0 -11 12l17 229q2 12 13 12h102q13 0 10 -13l-48 -229q-2 -11 -13 -11h-70z" />
    <glyph glyph-name="less" unicode="&#x3c;" horiz-adv-x="438" 
d="M414 64q0 -7 -4 -10t-10 0l-368 170q-9 4 -9 14v101q0 9 9 14l368 170q6 3 10 0t4 -10v-109q0 -10 -9 -14l-240 -98q-6 -3 0 -6l240 -99q9 -5 9 -14v-109z" />
    <glyph glyph-name="equal" unicode="=" horiz-adv-x="438" 
d="M36 354q-12 0 -12 12v82q0 12 12 12h367q12 0 12 -12v-82q0 -12 -12 -12h-367zM36 170q-12 0 -12 12v82q0 12 12 12h367q12 0 12 -12v-82q0 -12 -12 -12h-367z" />
    <glyph glyph-name="greater" unicode="&#x3e;" horiz-adv-x="438" 
d="M38 54q-6 -3 -10 0t-4 10v109q0 9 9 14l240 99q6 3 0 6l-240 98q-9 4 -9 14v109q0 7 4 10t10 0l368 -170q9 -5 9 -14v-101q0 -10 -9 -14z" />
    <glyph glyph-name="question" unicode="?" horiz-adv-x="437" 
d="M147 222q-12 0 -12 12v32q0 38 14.5 68.5t35.5 49.5l42 36.5t35.5 40t14.5 49.5q0 32 -15.5 51.5t-40.5 19.5q-29 0 -46 -20.5t-17 -54.5v-16q0 -11 -12 -11l-117 5q-12 0 -12 11v11q0 91 57.5 147.5t149.5 56.5q89 0 142 -53.5t53 -141.5q0 -46 -15 -81t-36 -56t-42 -38
t-36 -37.5t-15 -45.5v-23q0 -12 -12 -12h-116zM211 -2q-32 0 -55 23.5t-23 56.5t23 56.5t55 23.5t55.5 -23.5t23.5 -56.5t-23.5 -56.5t-55.5 -23.5z" />
    <glyph glyph-name="at" unicode="@" horiz-adv-x="759" 
d="M425 655q147 0 233.5 -96.5t67.5 -246.5q-13 -99 -66 -154.5t-131 -55.5q-67 0 -103 41q-4 3 -7 -1q-28 -39 -81 -39q-56 0 -84.5 35t-26.5 81q1 11 8 73q3 34 8 60q10 61 38.5 89.5t79.5 28.5q32 0 53 -22q7 -5 7 0v5q1 11 13 11h71q12 0 11 -13l-23 -175
q-5 -41 9.5 -62t40.5 -21q33 0 54 34t28 88q15 112 -45 182t-165 70q-107 0 -187 -80t-96 -204q-16 -126 47 -196.5t154 -70.5q67 0 125 40q10 8 16 -3l33 -55q6 -9 -3 -17q-83 -55 -187 -55q-137 0 -219.5 99.5t-62.5 261.5q19 161 131 264.5t259 103.5zM352 181
q33 0 40 41q2 23 8 64q3 34 8 61q2 18 -6 29.5t-24 11.5t-27.5 -11.5t-13.5 -29.5q-7 -53 -8 -64l-8 -61q-3 -41 31 -41z" />
    <glyph glyph-name="A" unicode="A" horiz-adv-x="500" 
d="M347 0q-12 0 -13 11l-16 96q0 5 -6 5h-125q-6 0 -6 -4l-18 -97q-1 -11 -13 -11h-117q-13 0 -10 13l147 676q2 11 13 11h135q11 0 13 -11l146 -676q3 -13 -10 -13h-120zM203 226q-1 -5 5 -5h86q4 0 4 5l-42 258q-1 3 -3 3t-3 -3z" />
    <glyph glyph-name="B" unicode="B" horiz-adv-x="470" 
d="M446 197q1 -95 -55 -146t-146 -51h-189q-12 0 -12 12v676q0 12 12 12h167q100 0 156.5 -48t56.5 -143q0 -99 -68 -144q-4 -3 -1 -6q78 -54 79 -162zM190 579q-5 0 -5 -5v-157q0 -5 5 -5h36q34 0 53 21.5t19 60.5q0 41 -18.5 63t-53.5 22h-36zM234 122q33 0 52 24t19 68
t-19 70t-51 26h-45q-5 0 -5 -5v-178q0 -5 5 -5h44z" />
    <glyph glyph-name="C" unicode="C" horiz-adv-x="464" 
d="M233 -8q-90 0 -144.5 53.5t-54.5 143.5v324q0 89 54.5 142t144.5 53q91 0 145.5 -53t54.5 -142v-11q0 -12 -12 -12l-117 -5q-12 0 -12 11v26q0 29 -16 47t-43 18q-26 0 -42 -18t-16 -47v-345q0 -29 16 -46.5t42 -17.5q27 0 43 17.5t16 46.5v27q0 12 12 12l117 -5
q12 0 12 -11v-11q0 -90 -55 -143.5t-145 -53.5z" />
    <glyph glyph-name="D" unicode="D" horiz-adv-x="476" 
d="M56 0q-12 0 -12 12v676q0 12 12 12h181q91 0 146 -53t55 -141v-312q0 -88 -55 -141t-146 -53h-181zM185 126q0 -5 5 -5l45 1q27 1 44 23t18 58v294q0 38 -17 60t-46 22h-44q-5 0 -5 -5v-448z" />
    <glyph glyph-name="E" unicode="E" horiz-adv-x="438" 
d="M411 591q0 -12 -12 -12h-209q-5 0 -5 -5v-158q0 -5 5 -5h120q12 0 12 -12v-97q0 -12 -12 -12h-120q-5 0 -5 -5v-159q0 -5 5 -5h209q12 0 12 -12v-97q0 -12 -12 -12h-343q-12 0 -12 12v676q0 12 12 12h343q12 0 12 -12v-97z" />
    <glyph glyph-name="F" unicode="F" horiz-adv-x="421" 
d="M410 591q0 -12 -12 -12h-208q-5 0 -5 -5v-158q0 -5 5 -5h119q12 0 12 -12v-97q0 -12 -12 -12h-119q-5 0 -5 -5v-273q0 -12 -12 -12h-117q-12 0 -12 12v676q0 12 12 12h342q12 0 12 -12v-97z" />
    <glyph glyph-name="G" unicode="G" horiz-adv-x="464" 
d="M233 -8q-90 0 -144.5 51.5t-54.5 137.5v338q0 86 54.5 137.5t144.5 51.5t145 -52t55 -138v-38q0 -12 -12 -12h-117q-12 0 -12 12v40q0 30 -16 48.5t-43 18.5q-26 0 -42 -18.5t-16 -48.5v-340q0 -30 16 -48.5t42 -18.5q27 0 43 18.5t16 48.5v80q0 5 -5 5h-44q-12 0 -12 12
v89q0 12 12 12h178q12 0 12 -12v-185q0 -86 -55 -137.5t-145 -51.5z" />
    <glyph glyph-name="H" unicode="H" horiz-adv-x="480" 
d="M295 688q0 12 12 12h117q12 0 12 -12v-676q0 -12 -12 -12h-117q-12 0 -12 12v273q0 5 -5 5h-100q-5 0 -5 -5v-273q0 -12 -12 -12h-117q-12 0 -12 12v676q0 12 12 12h117q12 0 12 -12v-272q0 -5 5 -5h100q5 0 5 5v272z" />
    <glyph glyph-name="I" unicode="I" horiz-adv-x="230" 
d="M56 0q-12 0 -12 12v676q0 12 12 12h117q12 0 12 -12v-676q0 -12 -12 -12h-117z" />
    <glyph glyph-name="J" unicode="J" horiz-adv-x="452" 
d="M210 -8q-88 0 -142 51.5t-54 136.5v69q0 12 12 12h117q12 0 12 -12v-71q0 -29 15 -47t40 -18q26 0 41.5 18t15.5 47v510q0 12 12 12h117q12 0 12 -12v-508q0 -85 -54.5 -136.5t-143.5 -51.5z" />
    <glyph glyph-name="K" unicode="K" horiz-adv-x="491" 
d="M56 0q-12 0 -12 12v676q0 12 12 12h117q12 0 12 -12v-252q0 -4 2.5 -4.5t3.5 3.5l129 256q4 9 14 9h124q15 0 9 -14l-148 -288q-1 -4 -1 -6l157 -378q5 -14 -9 -14h-125q-11 0 -14 9l-104 262q-2 8 -7 0l-29 -52q-2 -4 -2 -6v-201q0 -12 -12 -12h-117z" />
    <glyph glyph-name="L" unicode="L" horiz-adv-x="426" 
d="M56 0q-12 0 -12 12v676q0 12 12 12h117q12 0 12 -12v-562q0 -5 5 -5h210q12 0 12 -12v-97q0 -12 -12 -12h-344z" />
    <glyph glyph-name="M" unicode="M" horiz-adv-x="546" 
d="M54 0q-12 0 -12 12v676q0 12 12 12h115q10 0 14 -9l87 -187q3 -6 6 0l87 187q4 9 14 9h116q12 0 12 -12v-676q0 -12 -12 -12h-117q-12 0 -12 12v432q0 4 -2.5 4.5t-3.5 -3.5l-78 -155q-4 -9 -7 -9t-7 9l-77 157q-4 5 -6 -1v-434q0 -12 -12 -12h-117z" />
    <glyph glyph-name="N" unicode="N" horiz-adv-x="514" 
d="M57 0q-12 0 -12 12v676q0 12 12 12h126q10 0 13 -10l129 -374q1 -3 3.5 -2.5t2.5 3.5v371q0 12 12 12h115q12 0 12 -12v-676q0 -12 -12 -12h-127q-10 0 -13 10l-129 375q-1 3 -3.5 3t-2.5 -3l1 -373q0 -12 -12 -12h-115z" />
    <glyph glyph-name="O" unicode="O" horiz-adv-x="473" 
d="M236 -8q-92 0 -147 54t-55 144v320q0 90 55 144t147 54t147.5 -54t55.5 -144v-320q0 -90 -55.5 -144t-147.5 -54zM236 113q28 0 45 19.5t17 51.5v332q0 32 -17 51.5t-45 19.5t-44.5 -19.5t-16.5 -51.5v-332q0 -32 16.5 -51.5t44.5 -19.5z" />
    <glyph glyph-name="P" unicode="P" horiz-adv-x="465" 
d="M257 701q84 0 136 -59t52 -154q0 -93 -50 -149t-131 -56h-75q-5 0 -5 -5v-266q0 -12 -12 -12h-117q-12 0 -12 12v677q0 12 12 12h202zM233 393q32 0 51.5 24.5t19.5 67.5q0 44 -19.5 69t-51.5 25h-44q-5 0 -5 -5v-176q0 -5 5 -5h44z" />
    <glyph glyph-name="Q" unicode="Q" horiz-adv-x="461" 
d="M230 708q89 0 143 -56.5t54 -148.5v-306q0 -70 -32.5 -121t-89.5 -72q-4 -1 -4 -5v-85q0 -12 -12 -12h-117q-12 0 -12 12v85q0 4 -4 5q-57 21 -89.5 72t-32.5 121v306q0 92 54 148.5t142 56.5zM175 518v-336q0 -31 15 -50t40 -19t40.5 19t15.5 50v336q0 31 -15.5 50
t-40.5 19t-40 -19t-15 -50z" />
    <glyph glyph-name="R" unicode="R" horiz-adv-x="471" 
d="M320 0q-11 0 -14 10l-77 276q-2 4 -5 4h-34q-5 0 -5 -5v-273q0 -12 -12 -12h-117q-12 0 -12 12v677q0 12 12 12h202q84 0 136 -59t52 -152q0 -120 -85 -175q-5 -2 -3 -6l92 -295q4 -14 -10 -14h-120zM190 579q-5 0 -5 -5v-170q0 -5 5 -5h45q31 0 50.5 24t19.5 65
q0 43 -19.5 67t-50.5 24h-45z" />
    <glyph glyph-name="S" unicode="S" horiz-adv-x="448" 
d="M228 -8q-87 0 -140.5 51t-53.5 132v32q0 12 12 12h115q12 0 12 -12v-25q0 -31 15.5 -50t39.5 -19t40 18t16 47q0 30 -19.5 51.5t-77.5 63.5q-37 27 -57 43.5t-47 45.5t-39.5 63.5t-12.5 75.5q0 85 53 136t139 51q88 0 142 -53t54 -139v-24q0 -12 -12 -12h-115
q-12 0 -12 12v27q0 31 -15.5 49.5t-41.5 18.5q-24 0 -38.5 -17.5t-14.5 -48.5q0 -30 19 -53t74 -64q47 -34 70 -53.5t47.5 -46.5t33.5 -55t9 -65q0 -88 -54 -140t-141 -52z" />
    <glyph glyph-name="T" unicode="T" horiz-adv-x="468" 
d="M432 700q12 0 12 -12v-97q0 -12 -12 -12h-125q-5 0 -5 -5v-562q0 -12 -12 -12h-117q-12 0 -12 12v562q0 5 -5 5h-120q-12 0 -12 12v97q0 12 12 12h396z" />
    <glyph glyph-name="U" unicode="U" horiz-adv-x="479" 
d="M240 -8q-90 0 -144.5 56.5t-54.5 150.5v489q0 12 12 12h117q12 0 12 -12v-503q0 -32 16 -52t42 -20t41.5 20t15.5 52v503q0 12 12 12h117q12 0 12 -12v-489q0 -94 -54.5 -150.5t-143.5 -56.5z" />
    <glyph glyph-name="V" unicode="V" horiz-adv-x="488" 
d="M179 0q-11 0 -13 11l-143 676q-3 13 10 13h129q12 0 13 -11l69 -440q1 -6 4 -3q2 1 2 3l67 440q1 11 13 11h125q13 0 10 -13l-144 -676q-2 -11 -13 -11h-129z" />
    <glyph glyph-name="W" unicode="W" horiz-adv-x="689" 
d="M169 0q-11 0 -13 11l-135 676q-3 13 10 13h122q12 0 13 -11l57 -360q1 -6 4 -3q2 1 2 3l54 360q1 11 13 11h101q12 0 13 -11l59 -360q1 -6 4 -3q2 1 2 3l51 360q1 11 13 11h118q13 0 11 -13l-127 -676q-1 -11 -13 -11h-108q-12 0 -13 11l-59 370q-1 6 -4 3q-2 -1 -2 -3
l-53 -370q-1 -11 -13 -11h-107z" />
    <glyph glyph-name="X" unicode="X" horiz-adv-x="475" 
d="M35 0q-14 0 -9 14l136 333q1 3 0 6l-136 333q-5 14 9 14h120q10 0 13 -10l67 -192q1 -3 3 -3t3 3l67 192q3 10 13 10h119q14 0 9 -14l-136 -333q-1 -3 0 -6l136 -333q5 -14 -9 -14h-119q-10 0 -13 10l-67 191q-1 3 -3 3t-3 -3l-68 -191q-3 -10 -13 -10h-119z" />
    <glyph glyph-name="Y" unicode="Y" horiz-adv-x="474" 
d="M178 1q-12 0 -12 12v260q0 3 -1 6l-140 407q-5 14 10 14h123q11 0 14 -10l62 -239q1 -3 3 -3t3 3l62 239q3 10 14 10h123q15 0 10 -14l-141 -407q-1 -3 -1 -6v-260q0 -12 -12 -12h-117z" />
    <glyph glyph-name="Z" unicode="Z" horiz-adv-x="412" 
d="M32 0q-12 0 -12 12v101q0 7 3 15l214 445q3 6 -4 6h-201q-12 0 -12 12v97q0 12 12 12h344q12 0 12 -12v-101q0 -7 -3 -15l-214 -445q-3 -6 4 -6h201q12 0 12 -12v-97q0 -12 -12 -12h-344z" />
    <glyph glyph-name="bracketleft" unicode="[" horiz-adv-x="345" 
d="M40 -147q-12 0 -12 12v923q0 12 12 12h204q12 0 12 -12v-97q0 -12 -12 -12h-70q-5 0 -5 -5v-694q0 -5 5 -5h70q12 0 12 -12v-98q0 -12 -12 -12h-204z" />
    <glyph glyph-name="backslash" unicode="\" horiz-adv-x="395" 
d="M377 14q5 -14 -10 -14h-117q-10 0 -13 10l-219 676q-5 14 10 14h117q10 0 13 -10z" />
    <glyph glyph-name="bracketright" unicode="]" horiz-adv-x="345" 
d="M317 -135q0 -12 -12 -12h-204q-12 0 -12 12v98q0 12 12 12h70q5 0 5 5v694q0 5 -5 5h-70q-12 0 -12 12v97q0 12 12 12h204q12 0 12 -12v-923z" />
    <glyph glyph-name="asciicircum" unicode="^" horiz-adv-x="422" 
d="M38 298q-15 0 -10 14l120 378q3 10 13 10h98q10 0 13 -10l123 -378q5 -14 -10 -14h-94q-11 0 -14 10l-63 230q-1 3 -3 3t-3 -3l-63 -230q-3 -10 -14 -10h-93z" />
    <glyph glyph-name="underscore" unicode="_" horiz-adv-x="421" 
d="M26 0q-12 0 -12 12v83q0 12 12 12h369q12 0 12 -12v-83q0 -12 -12 -12h-369z" />
    <glyph glyph-name="grave" unicode="`" horiz-adv-x="234" 
d="M213 588q8 -14 -9 -14h-88q-8 0 -14 7l-77 101q-5 6 -2.5 10.5t9.5 4.5h107q11 0 15 -8z" />
    <glyph glyph-name="a" unicode="a" horiz-adv-x="445" 
d="M223 522q85 0 138 -46t53 -121v-343q0 -12 -12 -12h-117q-12 0 -12 12v22q0 3 -2 4t-4 -2q-34 -43 -102 -44q-143 0 -143 154q0 93 51.5 128t148.5 35h46q5 0 5 5v25q0 27 -14.5 44.5t-36.5 17.5q-37 0 -43 -40q-1 -12 -13 -12l-120 1q-12 0 -12 12q5 73 57 116.5
t132 43.5zM212 101q24 0 42.5 15.5t18.5 41.5v47q0 5 -5 5h-41q-27 0 -43.5 -15.5t-16.5 -42.5q0 -25 12.5 -38t32.5 -13z" />
    <glyph glyph-name="b" unicode="b" horiz-adv-x="445" 
d="M276 522q69 0 102 -42.5t35 -128.5v-94q0 -78 -2 -98q-3 -83 -33.5 -125t-99.5 -42q-60 0 -93 40q-2 3 -4 2t-2 -4v-18q0 -12 -12 -12h-117q-12 0 -12 12v676q0 12 12 12h117q12 0 12 -12v-207q0 -8 11 5q33 36 86 36zM272 166q1 30 1 92t-2 91q-5 53 -46 53
q-20 0 -31.5 -14.5t-13.5 -39.5q0 -3 -0.5 -9t-0.5 -9v-164q5 -54 47 -54q21 0 32.5 14.5t13.5 39.5z" />
    <glyph glyph-name="c" unicode="c" horiz-adv-x="434" 
d="M220 -8q-88 0 -138.5 45t-50.5 123v194q0 76 50.5 122t138.5 46t138.5 -45t50.5 -117v-18q0 -12 -12 -12l-117 -5q-12 0 -12 12v12q0 22 -13.5 37t-34.5 15q-22 0 -35 -16t-13 -42v-172q0 -26 13 -42t35 -16q21 0 34.5 15.5t13.5 36.5v13q0 12 12 12l117 -1q12 0 12 -12
v-23q0 -74 -50.5 -118t-138.5 -44z" />
    <glyph glyph-name="d" unicode="d" horiz-adv-x="445" 
d="M266 688q0 12 12 12h117q12 0 12 -12v-676q0 -12 -12 -12h-117q-12 0 -12 12v18q0 3 -2 4t-4 -2q-33 -40 -93 -40q-69 0 -99.5 42t-33.5 125q-2 20 -2 98v94q2 86 35 128.5t102 42.5q58 0 91 -42q6 -8 6 1v207zM219 112q42 0 47 54v164q0 3 -0.5 9t-0.5 9
q-2 25 -13.5 39.5t-31.5 14.5q-41 0 -46 -53q-2 -29 -2 -91t1 -92q2 -25 13.5 -39.5t32.5 -14.5z" />
    <glyph glyph-name="e" unicode="e" horiz-adv-x="436" 
d="M409 223q0 -12 -12 -12h-220q-5 0 -5 -5v-36q0 -25 13.5 -41.5t34.5 -16.5q37 0 47 44q3 13 14 11l114 -12q12 -2 11 -13q-6 -71 -53.5 -110.5t-132.5 -39.5q-89 0 -139 44.5t-50 122.5v195q0 76 50.5 122t138.5 46t138.5 -46t50.5 -122v-131zM220 401q-21 0 -34.5 -16
t-13.5 -41v-35q0 -5 5 -5h86q5 0 5 5v35q0 25 -13.5 41t-34.5 16z" />
    <glyph glyph-name="f" unicode="f" horiz-adv-x="297" 
d="M265 514q12 0 12 -12v-75q0 -12 -12 -12h-55q-5 0 -5 -5v-398q0 -12 -12 -12h-116q-12 0 -12 12v398q0 5 -5 5h-30q-12 0 -12 12v75q0 12 12 12h30q5 0 5 5v27q0 90 45.5 124.5t144.5 32.5h4q12 0 12 -12l-1 -80q0 -12 -7 -12h-7q-51 -1 -51 -62v-18q0 -5 5 -5h55z" />
    <glyph glyph-name="g" unicode="g" horiz-adv-x="441" 
d="M267 502q0 12 12 12h117q12 0 12 -12v-478q0 -57 -12 -98t-42 -74.5t-87.5 -48t-141.5 -9.5q-12 2 -12 13v98q0 13 13 11q86 -3 113.5 26.5t27.5 96.5q0 8 -6 0q-33 -43 -93 -43q-69 0 -103 44.5t-34 123.5v190q0 81 34.5 124.5t102.5 43.5q61 0 93 -45q2 -3 4 -2t2 4v23
zM219 118q21 0 34.5 16t13.5 41v169q0 25 -13.5 41t-34.5 16t-34 -16t-13 -41v-169q0 -25 13 -41t34 -16z" />
    <glyph glyph-name="h" unicode="h" horiz-adv-x="447" 
d="M278 522q67 0 101 -45t34 -126v-339q0 -12 -12 -12h-117q-12 0 -12 12v328q0 61 -45 61q-23 0 -35.5 -16.5t-12.5 -46.5v-326q0 -12 -12 -12h-117q-12 0 -12 12v676q0 12 12 12h117q12 0 12 -12v-206q2 -5 9 2q32 38 90 38z" />
    <glyph glyph-name="i" unicode="i" horiz-adv-x="227" 
d="M114 563q-37 0 -59.5 23t-22.5 60q0 38 22.5 61t59.5 23t59 -23t22 -61t-22 -60.5t-59 -22.5zM55 0q-12 0 -12 12v490q0 12 12 12h117q12 0 12 -12v-490q0 -12 -12 -12h-117z" />
    <glyph glyph-name="j" unicode="j" horiz-adv-x="216" 
d="M108 564q-36 0 -59 24t-23 60q0 34 25 58.5t57 24.5t57 -24.5t25 -58.5q0 -36 -23 -60t-59 -24zM-44 -204q-12 0 -12 12v97q0 12 13 11q45 -1 63 20.5t18 63.5v502q0 12 12 12h117q12 0 12 -12v-502q0 -45 -3 -71.5t-15.5 -55.5t-36 -44t-65.5 -24.5t-103 -8.5z" />
    <glyph glyph-name="k" unicode="k" horiz-adv-x="449" 
d="M50 0q-12 0 -12 12v676q0 12 12 12h117q12 0 12 -12v-331q0 -4 2.5 -4.5t3.5 2.5l87 151q4 8 15 8h120q7 0 9.5 -4t-1.5 -10l-108 -168q-2 -4 -1 -7l122 -311q5 -14 -10 -14h-121q-10 0 -13 10l-64 198q-2 9 -6 1l-33 -52q-2 -4 -2 -6v-139q0 -12 -12 -12h-117z" />
    <glyph glyph-name="l" unicode="l" horiz-adv-x="209" 
d="M46 0q-12 0 -12 12v676q0 12 12 12h117q12 0 12 -12v-676q0 -12 -12 -12h-117z" />
    <glyph glyph-name="m" unicode="m" horiz-adv-x="675" 
d="M505 522q68 0 102 -46t34 -129v-335q0 -12 -12 -12h-117q-12 0 -12 12v326q0 30 -12 46.5t-32 16.5q-22 0 -34.5 -16.5t-12.5 -46.5v-326q0 -12 -12 -12h-116q-12 0 -12 12v326q0 30 -12 46.5t-32 16.5q-22 0 -34.5 -16.5t-12.5 -46.5v-326q0 -12 -12 -12h-117
q-12 0 -12 12v490q0 12 12 12h117q12 0 12 -12v-13q0 -9 6 -3q36 36 90 36q78 0 112 -62q3 -4 9 5q38 57 110 57z" />
    <glyph glyph-name="n" unicode="n" horiz-adv-x="447" 
d="M278 522q67 0 101 -45t34 -126v-339q0 -12 -12 -12h-117q-12 0 -12 12v328q0 61 -45 61q-23 0 -35.5 -16.5t-12.5 -46.5v-326q0 -12 -12 -12h-117q-12 0 -12 12v490q0 12 12 12h117q12 0 12 -12v-20q2 -5 9 2q32 38 90 38z" />
    <glyph glyph-name="o" unicode="o" horiz-adv-x="442" 
d="M221 -8q-90 0 -140 44.5t-50 123.5v194q0 76 50.5 122t139.5 46t139.5 -46t50.5 -122v-194q0 -79 -50 -123.5t-140 -44.5zM221 113q22 0 35.5 16t13.5 42v173q0 25 -13.5 41t-35.5 16t-35.5 -16t-13.5 -41v-173q0 -26 13.5 -42t35.5 -16z" />
    <glyph glyph-name="p" unicode="p" horiz-adv-x="448" 
d="M414 355q2 -20 2 -98v-94q-2 -86 -35 -128.5t-102 -42.5q-58 0 -91 42q-6 8 -6 -1v-207q0 -12 -12 -12h-117q-12 0 -12 12v676q0 12 12 12h117q12 0 12 -12v-18q0 -3 2 -4t4 2q33 40 93 40q69 0 99.5 -42t33.5 -125zM274 165q2 29 2 91t-1 92q-2 25 -13.5 39.5
t-32.5 14.5q-42 0 -47 -54v-164q0 -3 0.5 -9t0.5 -9q2 -25 13.5 -39.5t31.5 -14.5q41 0 46 53z" />
    <glyph glyph-name="q" unicode="q" horiz-adv-x="448" 
d="M266 502q0 12 12 12h117q12 0 12 -12v-676q0 -12 -12 -12h-117q-12 0 -12 12v207q0 9 -6 1q-33 -42 -91 -42q-69 0 -102 42.5t-35 128.5v94q0 78 2 98q3 83 33.5 125t99.5 42q60 0 93 -40q2 -3 4 -2t2 4v18zM265 166q0 3 0.5 9t0.5 9v164q-5 54 -47 54q-21 0 -32.5 -14.5
t-13.5 -39.5q-1 -30 -1 -92t2 -91q5 -53 46 -53q20 0 31.5 14.5t13.5 39.5z" />
    <glyph glyph-name="r" unicode="r" horiz-adv-x="325" 
d="M268 521q25 0 43 -11q7 -5 5 -15l-19 -117q-1 -11 -14 -8q-27 9 -53 0q-22 -5 -37 -28.5t-15 -53.5v-276q0 -12 -12 -12h-117q-12 0 -12 12v490q0 12 12 12h117q12 0 12 -12v-41q0 -4 2 -4.5t3 2.5q28 62 85 62z" />
    <glyph glyph-name="s" unicode="s" horiz-adv-x="412" 
d="M210 -7q-85 0 -135.5 40.5t-50.5 108.5v7q0 12 12 12h110q12 0 12 -7v-8q0 -21 15 -34.5t37 -13.5q20 0 31.5 11.5t11.5 29.5q0 8 -2.5 14.5t-8.5 12.5t-11.5 10t-16 8.5t-17 7l-19.5 7.5t-19 7q-130 47 -130 158q0 73 48 115t128 42q83 0 131.5 -44t48.5 -119
q0 -12 -12 -12h-107q-12 0 -12 10v10q0 20 -13 32.5t-32 12.5q-21 0 -33 -13.5t-12 -31.5q0 -16 12.5 -29t27.5 -20.5t37 -15.5q4 -1 6 -2q31 -11 51 -21t45.5 -28t38.5 -45t13 -62q0 -69 -50.5 -109.5t-134.5 -40.5z" />
    <glyph glyph-name="t" unicode="t" horiz-adv-x="291" 
d="M272 427q0 -12 -12 -12h-56q-5 0 -5 -5v-238q0 -29 11 -40t33 -10h7q12 0 12 -12v-98q0 -12 -12 -12h-40q-73 0 -110 24.5t-37 93.5v292q0 5 -5 5h-33q-12 0 -12 12v75q0 12 12 12h33q5 0 5 5v111q0 12 12 12h112q12 0 12 -12v-111q0 -5 5 -5h56q12 0 12 -12v-75z" />
    <glyph glyph-name="u" unicode="u" horiz-adv-x="447" 
d="M268 502q0 12 12 12h117q12 0 12 -12v-490q0 -12 -12 -12h-117q-12 0 -12 12v17q0 3 -2 4t-4 -2q-28 -38 -90 -38q-60 0 -99 36.5t-39 112.5v360q0 12 12 12h117q12 0 12 -12v-329q0 -60 45 -60q22 0 35 17t13 46v326z" />
    <glyph glyph-name="v" unicode="v" horiz-adv-x="436" 
d="M151 0q-11 0 -14 10l-120 491q-3 13 11 13h128q12 0 13 -11l46 -292q1 -3 3 -3t3 3l46 292q1 11 13 11l128 -1q14 0 11 -13l-120 -490q-3 -10 -14 -10h-134z" />
    <glyph glyph-name="w" unicode="w" horiz-adv-x="613" 
d="M137 0q-11 0 -13 11l-107 490q-3 13 11 13h111q12 0 13 -11l42 -293q1 -6 4 -3q2 1 2 3l44 293q1 11 13 11h100q12 0 13 -11l45 -293q1 -6 4 -3q2 1 2 3l43 293q1 11 13 11l110 -1q13 0 10 -13l-107 -489q-2 -11 -13 -11h-114q-12 0 -13 11l-43 254q-1 3 -3 3t-3 -3
l-42 -254q-1 -11 -13 -11h-109z" />
    <glyph glyph-name="x" unicode="x" horiz-adv-x="439" 
d="M26 0q-15 0 -9 14l114 240q1 3 0 6l-114 240q-6 14 9 14h128q10 0 14 -9l49 -113q3 -6 6 0l49 113q4 9 14 9h127q15 0 9 -14l-114 -240q-1 -3 0 -6l114 -240q6 -14 -9 -14h-127q-11 0 -14 9l-49 117q-3 8 -6 0l-49 -117q-3 -9 -14 -9h-128z" />
    <glyph glyph-name="y" unicode="y" horiz-adv-x="422" 
d="M38 -199q-6 0 -6 12v92q0 12 5 12h5q50 0 72 16t26 64q0 1 -0.5 3t-0.5 3l-126 498q-3 13 11 13h126q12 0 13 -11l46 -297q1 -6 4 -3q2 1 2 3l44 297q1 11 13 11l126 -1q14 0 11 -13l-132 -519q-20 -73 -41.5 -108t-66 -53.5t-125.5 -18.5h-6z" />
    <glyph glyph-name="z" unicode="z" horiz-adv-x="373" 
d="M30 0q-12 0 -12 12v108q0 8 4 15l156 246q3 6 -3 6h-139q-12 0 -12 12v103q0 12 12 12h301q12 0 12 -12v-107q0 -8 -4 -15l-162 -246q-3 -6 3 -6h157q12 0 12 -12v-104q0 -12 -12 -12h-313z" />
    <glyph glyph-name="braceleft" unicode="{" horiz-adv-x="344" 
d="M221 -147q-59 0 -91.5 32.5t-32.5 91.5v207q0 82 -57 89q-12 1 -12 13v87q0 11 12 13q57 8 57 88v203q0 59 32.5 91t91.5 32h83q12 0 12 -12v-97q0 -12 -12 -12h-18q-21 0 -34.5 -17.5t-13.5 -45.5v-161q0 -95 -56 -122q-4 -3 0 -6q56 -30 56 -124v-165q0 -28 13.5 -45.5
t34.5 -17.5h18q12 0 12 -12v-98q0 -12 -12 -12h-83z" />
    <glyph glyph-name="bar" unicode="|" horiz-adv-x="186" 
d="M34 -80q-12 0 -12 12v816q0 12 12 12h117q12 0 12 -12v-816q0 -12 -12 -12h-117z" />
    <glyph glyph-name="braceright" unicode="}" horiz-adv-x="344" 
d="M123 -147h-83q-12 0 -12 12v98q0 12 12 12h18q21 0 34.5 17.5t13.5 45.5v165q0 94 56 124q4 3 0 6q-56 27 -56 122v161q0 28 -13.5 45.5t-34.5 17.5h-18q-12 0 -12 12v97q0 12 12 12h83q59 0 91.5 -32t32.5 -91v-203q0 -80 57 -88q12 -2 12 -13v-87q0 -12 -12 -13
q-57 -7 -57 -89v-207q0 -59 -32.5 -91.5t-91.5 -32.5z" />
    <glyph glyph-name="asciitilde" unicode="~" horiz-adv-x="490" 
d="M328 202q-32 0 -82 27q-4 3 -14 9t-15 8.5l-12.5 6.5t-14.5 5.5t-14 1.5q-38 0 -64 -37q-7 -10 -16 -4l-63 38q-9 6 -6 16q16 47 53.5 77.5t82.5 30.5q37 0 79 -25q52 -32 76 -32q30 0 54 35q7 10 17 4l67 -41q10 -6 5 -17q-24 -45 -58 -74t-75 -29z" />
    <glyph glyph-name="uni00A0" unicode="&#xa0;" horiz-adv-x="200" 
 />
    <glyph glyph-name="exclamdown" unicode="&#xa1;" horiz-adv-x="283" 
d="M140 708q37 0 61 -25t24 -62q0 -35 -26 -60.5t-59 -25.5t-59 25.5t-26 60.5q0 36 24.5 61.5t60.5 25.5zM85 457q0 12 12 12h89q12 0 12 -12l14 -436q0 -12 -12 -12h-117q-12 0 -12 12z" />
    <glyph glyph-name="cent" unicode="&#xa2;" horiz-adv-x="434" 
d="M409 432q0 -12 -12 -12l-117 -5q-12 0 -12 12v12q0 22 -13.5 37t-34.5 15q-22 0 -35 -16t-13 -42v-172q0 -26 13 -42t35 -16q21 0 34.5 15.5t13.5 36.5v13q0 12 12 12l117 -1q12 0 12 -12v-23q0 -61 -34 -102t-95 -54q-5 -2 -5 -6l3 -69q0 -12 -11 -12h-95q-11 0 -11 12
l3 69q0 4 -5 6q-61 14 -94.5 56.5t-33.5 105.5v194q0 62 33.5 104.5t94.5 56.5q5 2 5 6l-3 70q0 12 11 12h95q11 0 11 -12l-3 -69q0 -4 5 -6q61 -14 95 -56t34 -100v-18z" />
    <glyph glyph-name="sterling" unicode="&#xa3;" horiz-adv-x="517" 
d="M229 127q-4 -6 4 -6h251q12 0 12 -12v-97q0 -12 -12 -12h-395q-12 0 -12 12v100q0 8 6 15q29 29 29 95v60q0 5 -5 5h-51q-12 0 -12 12v90q0 12 12 12h51q5 0 5 5v84q0 100 49.5 157.5t134.5 60.5q77 2 126.5 -41t66.5 -125q1 -12 -10 -13l-113 -13q-12 -2 -14 11
q-7 31 -19.5 46t-31.5 14q-48 -1 -48 -90v-91q0 -5 5 -5h130q12 0 12 -12v-90q0 -12 -12 -12h-130q-5 0 -5 -5v-60q0 -60 -24 -95z" />
    <glyph glyph-name="currency" unicode="&#xa4;" horiz-adv-x="567" 
d="M501 303q0 -57 -26 -103q-1 -4 1 -7l65 -65q9 -8 0 -17l-72 -64q-9 -9 -17 0l-62 61q-2 2 -7 1q-48 -25 -103 -25q-53 0 -99 23q-5 1 -7 -1l-59 -59q-9 -9 -17 0l-72 64q-8 9 0 17l61 61q3 3 1 7q-29 47 -29 107q0 56 26 103q1 5 -1 7l-65 65q-9 8 0 17l73 63q8 8 17 0
l61 -61q2 -3 7 -1q47 26 103 26q59 0 107 -28q5 -2 7 1l64 63q8 8 17 0l72 -63q9 -9 0 -17l-69 -69q-2 -3 -1 -7q24 -46 24 -99zM180 303q0 -41 29.5 -70.5t70.5 -29.5t70.5 29t29.5 71q0 41 -29.5 70.5t-70.5 29.5t-70.5 -29.5t-29.5 -70.5z" />
    <glyph glyph-name="yen" unicode="&#xa5;" horiz-adv-x="531" 
d="M466 700q15 0 10 -14l-120 -345q-2 -6 4 -6h95q12 0 12 -12v-54q0 -12 -12 -12h-116q-5 0 -5 -5v-38q0 -5 5 -5h116q12 0 12 -12v-54q0 -12 -12 -12h-116q-5 0 -5 -5v-113q0 -12 -12 -12h-117q-12 0 -12 12v113q0 5 -5 5h-117q-12 0 -12 12v54q0 12 12 12h117q5 0 5 5v38
q0 5 -5 5h-117q-12 0 -12 12v54q0 12 12 12h96q5 0 4 6l-119 345q-5 14 10 14h123q11 0 14 -10l62 -239q1 -3 3 -3t3 3l62 239q3 10 14 10h123z" />
    <glyph glyph-name="brokenbar" unicode="&#xa6;" horiz-adv-x="186" 
d="M34 385q-12 0 -12 12v351q0 12 12 12h117q12 0 12 -12v-351q0 -12 -12 -12h-117zM34 -80q-12 0 -12 12v348q0 12 12 12h117q12 0 12 -12v-348q0 -12 -12 -12h-117z" />
    <glyph glyph-name="section" unicode="&#xa7;" horiz-adv-x="441" 
d="M223 -203q-84 0 -135.5 45.5t-51.5 118.5v17q0 12 12 12h117q12 0 12 -10v-9q0 -23 13.5 -38t33.5 -15q21 0 34 15t13 37q0 15 -8 28.5t-28 27.5t-32 21t-41 22q-90 49 -114 106q-13 30 -13 72q0 53 28 92q18 28 50 47q7 3 1 7q-82 68 -82 148q0 73 53 120t137 47
t136 -47.5t52 -124.5v-11q0 -12 -12 -12h-117q-12 0 -12 8v8q0 25 -13.5 41.5t-34.5 16.5q-22 0 -34.5 -16t-12.5 -39q0 -31 20.5 -50.5t68.5 -42.5q82 -44 107 -67q10 -10 18 -21q28 -38 28 -87q0 -50 -20 -87q-21 -42 -61 -63q-7 -3 -1 -7q39 -29 58.5 -61.5t19.5 -80.5
q0 -76 -52.5 -122t-136.5 -46zM226 188q28 0 41 25q8 16 8 39q0 27 -13 45q-15 18 -38 18q-26 0 -39 -24q-9 -17 -9 -40q0 -22 10 -39q11 -24 40 -24z" />
    <glyph glyph-name="dieresis" unicode="&#xa8;" horiz-adv-x="334" 
d="M84 568q-31 0 -50.5 20t-19.5 51t19.5 51t50.5 20t49.5 -19.5t18.5 -51.5t-18.5 -51.5t-49.5 -19.5zM252 568q-31 0 -50 19.5t-19 51.5t19 51.5t50 19.5t50 -19.5t19 -51.5t-19 -51.5t-50 -19.5z" />
    <glyph glyph-name="copyright" unicode="&#xa9;" horiz-adv-x="791" 
d="M395 -8q-155 0 -258 103t-103 258q0 152 103 253.5t258 101.5q156 0 259 -101.5t103 -253.5q0 -155 -103 -258t-259 -103zM395 70q122 0 202 80.5t80 202.5q0 118 -80.5 197.5t-201.5 79.5t-201 -79.5t-80 -197.5q0 -122 80 -202.5t201 -80.5zM397 180q-45 0 -72.5 26
t-27.5 70v147q0 43 27.5 68.5t72.5 25.5t73 -25.5t28 -68.5q0 -13 -12 -13l-50 -2q-12 0 -12 10v10q0 12 -7.5 19.5t-19.5 7.5t-19 -7.5t-7 -19.5v-158q0 -27 26 -27q27 0 27 27v8q0 12 12 12l50 -2q12 0 12 -6v-6q0 -44 -28 -70t-73 -26z" />
    <glyph glyph-name="ordfeminine" unicode="&#xaa;" horiz-adv-x="291" 
d="M145 566h26q5 0 5 5v17q0 42 -33 42q-22 0 -30 -21q-3 -10 -13 -10l-69 3q-13 0 -11 13q5 41 38.5 67t82.5 26q57 0 91.5 -30t34.5 -79v-223q0 -12 -12 -12h-67q-12 0 -12 9q0 8 -6 2q-19 -16 -52 -16q-42 0 -74 22.5t-32 81.5t34.5 81t98.5 22zM136 432q17 0 28.5 9.5
t11.5 26.5v22q0 5 -5 5h-26q-41 0 -41 -34q0 -29 32 -29zM11 304q0 12 12 12h240q12 0 12 -12v-44q0 -12 -12 -12h-240q-12 0 -12 12v44z" />
    <glyph glyph-name="guillemotleft" unicode="&#xab;" horiz-adv-x="459" 
d="M245 121q7 -14 -8 -14h-97q-10 0 -14 9l-81 157q-5 8 0 16l81 157q4 9 14 9h97q15 0 8 -14l-83 -157q-1 -3 0 -6zM407 121q7 -14 -8 -14h-97q-10 0 -14 9l-81 157q-5 8 0 16l81 157q4 9 14 9h97q15 0 8 -14l-83 -157q-1 -3 0 -6z" />
    <glyph glyph-name="logicalnot" unicode="&#xac;" horiz-adv-x="438" 
d="M403 362q12 0 12 -12v-87v-7h-1v-80q0 -12 -12 -12h-83q-12 0 -12 12v75q0 5 -5 5h-266q-12 0 -12 12v82q0 12 12 12h367z" />
    <glyph glyph-name="uni00AD" unicode="&#xad;" horiz-adv-x="331" 
d="M36 235q-12 0 -12 12v97q0 12 12 12h259q12 0 12 -12v-97q0 -12 -12 -12h-259z" />
    <glyph glyph-name="registered" unicode="&#xae;" horiz-adv-x="434" 
d="M217 710q87 0 145.5 -56.5t58.5 -141.5q0 -88 -58.5 -146.5t-145.5 -58.5t-145 58.5t-58 146.5q0 85 58 141.5t145 56.5zM217 362q63 0 105.5 42.5t42.5 107.5q0 61 -42.5 102.5t-105.5 41.5t-105 -41.5t-42 -102.5q0 -65 42 -107.5t105 -42.5zM288 544q0 -34 -24 -47
q-4 -1 -2 -6l21 -59q5 -14 -10 -14h-25q-10 0 -13 10l-19 56q-2 4 -5 4h-2q-5 0 -5 -5v-53q0 -12 -12 -12h-22q-12 0 -12 12v161q0 12 12 12h59q26 0 42.5 -17t16.5 -42zM209 563q-5 0 -5 -5v-30q0 -5 5 -5h13q9 0 14.5 6t5.5 14q0 20 -20 20h-13z" />
    <glyph glyph-name="macron" unicode="&#xaf;" horiz-adv-x="335" 
d="M69 581q-12 0 -12 12v72q0 12 12 12h196q12 0 12 -12v-72q0 -12 -12 -12h-196z" />
    <glyph glyph-name="degree" unicode="&#xb0;" horiz-adv-x="359" 
d="M179 472q-70 0 -117.5 49t-47.5 120t47.5 119t117.5 48t118 -48.5t48 -118.5q0 -71 -48 -120t-118 -49zM179 565q31 0 52 22t21 54t-21 54t-52 22q-30 0 -51.5 -22t-21.5 -54t21.5 -54t51.5 -22z" />
    <glyph glyph-name="plusminus" unicode="&#xb1;" horiz-adv-x="438" 
d="M272 446q0 -5 5 -5h126q12 0 12 -12v-82q0 -12 -12 -12h-126q-5 0 -5 -5v-125q0 -12 -12 -12h-82q-12 0 -12 12v125q0 5 -5 5h-125q-12 0 -12 12v82q0 12 12 12h125q5 0 5 5v126q0 12 12 12h82q12 0 12 -12v-126zM36 11q-12 0 -12 12v82q0 12 12 12h367q12 0 12 -12v-82
q0 -12 -12 -12h-367z" />
    <glyph glyph-name="uni00B2" unicode="&#xb2;" horiz-adv-x="266" 
d="M27 416q-12 0 -12 12v58q0 9 5 15q90 113 108 140q31 48 31 83q0 39 -27 39q-12 0 -20 -10t-8 -26v-20q0 -12 -12 -12h-67q-12 0 -12 12v24q2 52 34.5 81t86.5 29q53 0 84.5 -30t31.5 -93q0 -54 -29 -106q-6 -10 -79 -112q-4 -6 3 -6h100q12 0 12 -12v-54q0 -12 -12 -12
h-218z" />
    <glyph glyph-name="uni00B3" unicode="&#xb3;" horiz-adv-x="282" 
d="M261 588q2 -26 2 -39q0 -26 -3 -44q-3 -43 -33.5 -69t-78.5 -26q-51 0 -84 28.5t-35 73.5q-1 9 -1 26q0 12 12 12h66q12 0 12 -12q0 -7 1 -12q3 -37 29 -37q22 0 27 30q4 28 4 40q0 13 -2 37q-5 32 -29 32q-8 0 -15 -5q-11 -8 -17 0l-32 34q-8 9 0 17l68 78q5 6 -3 6
h-101q-12 0 -12 12v53q0 12 12 12h200q12 0 12 -12v-57q0 -10 -5 -15l-52 -63q-4 -5 1 -7q24 -9 39.5 -35.5t17.5 -57.5z" />
    <glyph glyph-name="acute" unicode="&#xb4;" horiz-adv-x="234" 
d="M31 574q-17 0 -9 14l59 101q4 8 15 8h107q7 0 9.5 -4.5t-2.5 -10.5l-76 -101q-6 -7 -15 -7h-88z" />
    <glyph glyph-name="uni00B5" unicode="&#xb5;" horiz-adv-x="450" 
d="M271 502q0 12 12 12h117q12 0 12 -12v-490q0 -12 -12 -12h-117q-12 0 -12 12v18q0 9 -6 1q-26 -35 -81 -38q-5 0 -5 -5v-176q0 -12 -12 -12h-117q-12 0 -12 12v308q-1 7 -1 22v360q0 12 12 12h118q12 0 12 -12v-345q6 -44 44 -44q22 0 35 17t13 46v326z" />
    <glyph glyph-name="paragraph" unicode="&#xb6;" horiz-adv-x="514" 
d="M215 700h243q12 0 12 -12v-876q0 -12 -12 -12h-94q-12 0 -12 12v769q0 5 -5 5h-46q-5 0 -5 -5v-769q0 -12 -12 -12h-94q-12 0 -12 12v436q0 5 -4 6q-71 14 -112.5 73.5t-41.5 147.5q0 99 53.5 162t141.5 63z" />
    <glyph glyph-name="periodcentered" unicode="&#xb7;" horiz-adv-x="170" 
d="M85 -4q-37 0 -61 25t-24 62q0 35 26 60.5t59 25.5t59 -25.5t26 -60.5q0 -37 -24 -62t-61 -25z" />
    <glyph glyph-name="cedilla" unicode="&#xb8;" horiz-adv-x="151" 
d="M15 -184q-9 3 -8 14l6 46q1 12 14 10q27 -4 33 24q6 34 -37 75q-6 6 -4.5 10.5t9.5 4.5h63q9 0 15 -6q58 -56 43 -123q-6 -26 -22.5 -41t-37.5 -18t-39 -2t-35 6z" />
    <glyph glyph-name="uni00B9" unicode="&#xb9;" horiz-adv-x="157" 
d="M41 832q7 4 15 4h71q12 0 12 -12v-396q0 -12 -12 -12h-67q-12 0 -12 12v323q0 4 -5 4l-14 -1q-13 -2 -13 11v43q0 10 8 15z" />
    <glyph glyph-name="ordmasculine" unicode="&#xba;" horiz-adv-x="295" 
d="M147 358q-59 0 -92.5 29.5t-33.5 81.5v129q0 49 34 79.5t92 30.5t91 -30t33 -80v-129q0 -52 -33 -81.5t-91 -29.5zM147 436q14 0 24 11.5t10 27.5v115q0 18 -9.5 29t-24.5 11t-25 -11t-10 -29v-115q0 -17 10 -28t25 -11zM28 248q-12 0 -12 12v44q0 12 12 12h240
q12 0 12 -12v-44q0 -12 -12 -12h-240z" />
    <glyph glyph-name="guillemotright" unicode="&#xbb;" horiz-adv-x="459" 
d="M60 107q-15 0 -8 14l83 157q1 3 0 6l-83 157q-7 14 8 14h97q9 0 14 -9l81 -157q5 -8 0 -16l-81 -157q-5 -9 -14 -9h-97zM222 107q-15 0 -8 14l83 157q1 3 0 6l-83 157q-7 14 8 14h97q9 0 14 -9l81 -157q5 -8 0 -16l-81 -157q-5 -9 -14 -9h-97z" />
    <glyph glyph-name="onequarter" unicode="&#xbc;" horiz-adv-x="716" 
d="M139 292q0 -12 -12 -12h-67q-12 0 -12 12v323q0 4 -5 4l-14 -1q-13 -2 -13 11v43q0 10 8 15l17 9q7 4 15 4h71q12 0 12 -12v-396zM470 692q4 8 14 8h75q16 0 8 -14l-407 -678q-4 -8 -14 -8h-75q-16 0 -8 14zM696 187q12 0 12 -12v-58q0 -12 -12 -12h-12q-5 0 -5 -5v-88
q0 -12 -12 -12h-67q-12 0 -12 12v88q0 5 -5 5h-142q-12 0 -12 12v46q0 9 2 15l77 232q3 10 13 10h72q13 0 10 -14l-66 -213q-1 -6 4 -6h42q5 0 5 5v51q0 12 12 12h67q12 0 12 -12v-51q0 -5 5 -5h12z" />
    <glyph glyph-name="onehalf" unicode="&#xbd;" horiz-adv-x="691" 
d="M139 292q0 -12 -12 -12h-67q-12 0 -12 12v323q0 4 -5 4l-14 -1q-13 -2 -13 11v43q0 10 8 15l17 9q7 4 15 4h71q12 0 12 -12v-396zM470 692q4 8 14 8h75q16 0 8 -14l-407 -678q-4 -8 -14 -8h-75q-16 0 -8 14zM567 84q-4 -6 3 -6h100q12 0 12 -12v-54q0 -12 -12 -12h-218
q-12 0 -12 12v58q0 9 5 15q91 113 108 140q31 48 31 83q0 39 -27 39q-12 0 -20 -10t-8 -26v-20q0 -12 -12 -12h-67q-12 0 -12 12v24q2 52 34.5 81t86.5 29q53 0 84.5 -30t31.5 -93q0 -54 -29 -106q-6 -10 -79 -112z" />
    <glyph glyph-name="threequarters" unicode="&#xbe;" horiz-adv-x="793" 
d="M547 692q4 8 14 8h75q16 0 8 -14l-407 -678q-4 -8 -14 -8h-75q-16 0 -8 14zM260 369q-3 -43 -33.5 -69t-78.5 -26q-51 0 -84 28.5t-35 73.5q-1 9 -1 26q0 12 12 12h66q12 0 12 -12q0 -7 1 -12q3 -37 29 -37q22 0 27 30q4 28 4 40q0 13 -2 37q-5 32 -29 32q-8 0 -15 -5
q-11 -8 -17 0l-32 34q-8 9 0 17l68 78q5 6 -3 6h-101q-12 0 -12 12v53q0 12 12 12h200q12 0 12 -12v-57q0 -10 -5 -15l-52 -63q-4 -6 2 -7q23 -9 38.5 -35.5t17.5 -57.5q2 -26 2 -39q0 -26 -3 -44zM773 187q12 0 12 -12v-58q0 -12 -12 -12h-12q-5 0 -5 -5v-88q0 -12 -12 -12
h-67q-12 0 -12 12v88q0 5 -5 5h-142q-12 0 -12 12v46q0 9 2 15l77 232q3 10 13 10h72q14 0 10 -14l-66 -213q-2 -6 4 -6h42q5 0 5 5v51q0 12 12 12h67q12 0 12 -12v-51q0 -5 5 -5h12z" />
    <glyph glyph-name="questiondown" unicode="&#xbf;" horiz-adv-x="437" 
d="M226 502q32 0 55 -23.5t23 -56.5t-23 -56.5t-55 -23.5t-55.5 23.5t-23.5 56.5t23.5 56.5t55.5 23.5zM290 278q12 0 12 -12v-32q0 -38 -14.5 -68.5t-35.5 -49.5l-42 -36.5t-35.5 -40t-14.5 -49.5q0 -32 15.5 -51.5t40.5 -19.5q29 0 46 20.5t17 54.5v16q0 11 12 11l117 -5
q12 0 12 -11v-11q0 -91 -57.5 -147.5t-149.5 -56.5q-89 0 -142 53.5t-53 141.5q0 46 15 81t36 56t42 38t36 37.5t15 45.5v23q0 12 12 12h116z" />
    <glyph glyph-name="Agrave" unicode="&#xc0;" horiz-adv-x="500" 
d="M301 774q8 -14 -9 -14h-88q-8 0 -14 7l-77 101q-5 6 -2.5 10.5t9.5 4.5h107q11 0 15 -8zM347 0q-12 0 -13 11l-16 96q0 5 -6 5h-125q-6 0 -6 -4l-18 -97q-1 -11 -13 -11h-117q-13 0 -10 13l147 676q2 11 13 11h135q11 0 13 -11l146 -676q3 -13 -10 -13h-120zM203 226
q-1 -5 5 -5h86q4 0 4 5l-42 258q-1 3 -3 3t-3 -3z" />
    <glyph glyph-name="Aacute" unicode="&#xc1;" horiz-adv-x="500" 
d="M361 883q7 0 9.5 -4.5t-2.5 -10.5l-76 -101q-6 -7 -15 -7h-88q-17 0 -9 14l59 101q4 8 15 8h107zM347 0q-12 0 -13 11l-16 96q0 5 -6 5h-125q-6 0 -6 -4l-18 -97q-1 -11 -13 -11h-117q-13 0 -10 13l147 676q2 11 13 11h135q11 0 13 -11l146 -676q3 -13 -10 -13h-120z
M203 226q-1 -5 5 -5h86q4 0 4 5l-42 258q-1 3 -3 3t-3 -3z" />
    <glyph glyph-name="Acircumflex" unicode="&#xc2;" horiz-adv-x="500" 
d="M252 822q-3 4 -6 0l-30 -56q-4 -9 -15 -9h-87q-16 0 -8 14l66 104q5 8 14 8h122q9 0 14 -8l68 -103q4 -6 2 -10.5t-9 -4.5h-87q-10 0 -14 9zM347 0q-12 0 -13 11l-16 96q0 5 -6 5h-125q-6 0 -6 -4l-18 -97q-1 -11 -13 -11h-117q-13 0 -10 13l147 676q2 11 13 11h135
q11 0 13 -11l146 -676q3 -13 -10 -13h-120zM203 226q-1 -5 5 -5h86q4 0 4 5l-42 258q-1 3 -3 3t-3 -3z" />
    <glyph glyph-name="Atilde" unicode="&#xc3;" horiz-adv-x="500" 
d="M221 802q-22 0 -36 -22q-7 -10 -17 -4l-42 30q-8 6 -5 16q25 69 88 69q29 0 64 -22q29 -19 41 -19q23 0 36 20q7 12 17 5l40 -28q9 -6 5 -16q-31 -65 -95 -65q-21 0 -54 18l-12 7l-10.5 6t-9 3.5t-10.5 1.5zM347 0q-12 0 -13 11l-16 96q0 5 -6 5h-125q-6 0 -6 -4l-18 -97
q-1 -11 -13 -11h-117q-13 0 -10 13l147 676q2 11 13 11h135q11 0 13 -11l146 -676q3 -13 -10 -13h-120zM203 226q-1 -5 5 -5h86q4 0 4 5l-42 258q-1 3 -3 3t-3 -3z" />
    <glyph glyph-name="Adieresis" unicode="&#xc4;" horiz-adv-x="500" 
d="M168 754q-31 0 -50.5 20t-19.5 51t19.5 51t50.5 20t49.5 -19.5t18.5 -51.5t-18.5 -51.5t-49.5 -19.5zM336 754q-31 0 -50 19.5t-19 51.5t19 51.5t50 19.5t50 -19.5t19 -51.5t-19 -51.5t-50 -19.5zM347 0q-12 0 -13 11l-16 96q0 5 -6 5h-125q-6 0 -6 -4l-18 -97
q-1 -11 -13 -11h-117q-13 0 -10 13l147 676q2 11 13 11h135q11 0 13 -11l146 -676q3 -13 -10 -13h-120zM203 226q-1 -5 5 -5h86q4 0 4 5l-42 258q-1 3 -3 3t-3 -3z" />
    <glyph glyph-name="Aring" unicode="&#xc5;" horiz-adv-x="500" 
d="M250 747q-46 0 -78 32.5t-32 79.5t32 78.5t78 31.5q47 0 79 -31.5t32 -78.5t-32 -79.5t-79 -32.5zM250 907q-19 0 -32.5 -14t-13.5 -34t13.5 -34t32.5 -14q20 0 33.5 14t13.5 34t-13.5 34t-33.5 14zM347 0q-12 0 -13 11l-16 96q0 5 -6 5h-125q-6 0 -6 -4l-18 -97
q-1 -11 -13 -11h-117q-13 0 -10 13l147 676q2 11 13 11h135q11 0 13 -11l146 -676q3 -13 -10 -13h-120zM203 226q-1 -5 5 -5h86q4 0 4 5l-42 258q-1 3 -3 3t-3 -3z" />
    <glyph glyph-name="AE" unicode="&#xc6;" horiz-adv-x="764" 
d="M737 591q0 -12 -12 -12h-208q-5 0 -5 -5v-158q0 -5 5 -5h119q12 0 12 -12v-97q0 -12 -12 -12h-119q-5 0 -5 -5v-159q0 -5 5 -5h208q12 0 12 -12v-97q0 -12 -12 -12h-343q-12 0 -12 12v95q0 5 -5 5h-149q-3 0 -5 -4l-38 -99q-3 -9 -14 -9h-124q-14 0 -9 14l281 677
q3 9 14 9h404q12 0 12 -12v-97zM257 227q-1 -6 4 -6h104q5 0 5 5l1 280q0 4 -2 4t-4 -3z" />
    <glyph glyph-name="Ccedilla" unicode="&#xc7;" horiz-adv-x="464" 
d="M433 502q0 -12 -12 -12l-117 -5q-12 0 -12 11v26q0 29 -16 47t-43 18q-26 0 -42 -18t-16 -47v-345q0 -29 16 -46.5t42 -17.5q27 0 43 17.5t16 46.5v27q0 12 12 12l117 -5q12 0 12 -11v-11q0 -75 -40 -126t-109 -66q-8 0 -2 -6q47 -53 34 -114q-6 -26 -22.5 -41t-37.5 -18
t-39 -2t-35 6q-9 3 -8 14l6 46q1 12 14 10q27 -4 33 24q6 35 -40 79q-1 1 -5 3q-68 14 -108 64.5t-40 126.5v324q0 89 54.5 142t144.5 53q91 0 145.5 -53t54.5 -142v-11z" />
    <glyph glyph-name="Egrave" unicode="&#xc8;" horiz-adv-x="438" 
d="M279 786q8 -14 -9 -14h-88q-8 0 -14 7l-77 101q-5 6 -2.5 10.5t9.5 4.5h107q11 0 15 -8zM411 591q0 -12 -12 -12h-209q-5 0 -5 -5v-158q0 -5 5 -5h120q12 0 12 -12v-97q0 -12 -12 -12h-120q-5 0 -5 -5v-159q0 -5 5 -5h209q12 0 12 -12v-97q0 -12 -12 -12h-343
q-12 0 -12 12v676q0 12 12 12h343q12 0 12 -12v-97z" />
    <glyph glyph-name="Eacute" unicode="&#xc9;" horiz-adv-x="438" 
d="M339 895q7 0 9.5 -4.5t-2.5 -10.5l-76 -101q-6 -7 -15 -7h-88q-17 0 -9 14l59 101q4 8 15 8h107zM411 591q0 -12 -12 -12h-209q-5 0 -5 -5v-158q0 -5 5 -5h120q12 0 12 -12v-97q0 -12 -12 -12h-120q-5 0 -5 -5v-159q0 -5 5 -5h209q12 0 12 -12v-97q0 -12 -12 -12h-343
q-12 0 -12 12v676q0 12 12 12h343q12 0 12 -12v-97z" />
    <glyph glyph-name="Ecircumflex" unicode="&#xca;" horiz-adv-x="438" 
d="M230 834q-3 4 -6 0l-30 -56q-4 -9 -15 -9h-87q-16 0 -8 14l66 104q5 8 14 8h122q9 0 14 -8l68 -103q4 -6 2 -10.5t-9 -4.5h-87q-10 0 -14 9zM411 591q0 -12 -12 -12h-209q-5 0 -5 -5v-158q0 -5 5 -5h120q12 0 12 -12v-97q0 -12 -12 -12h-120q-5 0 -5 -5v-159q0 -5 5 -5
h209q12 0 12 -12v-97q0 -12 -12 -12h-343q-12 0 -12 12v676q0 12 12 12h343q12 0 12 -12v-97z" />
    <glyph glyph-name="Edieresis" unicode="&#xcb;" horiz-adv-x="438" 
d="M146 766q-31 0 -50.5 20t-19.5 51t19.5 51t50.5 20t49.5 -19.5t18.5 -51.5t-18.5 -51.5t-49.5 -19.5zM314 766q-31 0 -50 19.5t-19 51.5t19 51.5t50 19.5t50 -19.5t19 -51.5t-19 -51.5t-50 -19.5zM411 591q0 -12 -12 -12h-209q-5 0 -5 -5v-158q0 -5 5 -5h120q12 0 12 -12
v-97q0 -12 -12 -12h-120q-5 0 -5 -5v-159q0 -5 5 -5h209q12 0 12 -12v-97q0 -12 -12 -12h-343q-12 0 -12 12v676q0 12 12 12h343q12 0 12 -12v-97z" />
    <glyph glyph-name="Igrave" unicode="&#xcc;" horiz-adv-x="230" 
d="M166 786q8 -14 -9 -14h-88q-8 0 -14 7l-77 101q-5 6 -2.5 10.5t9.5 4.5h107q11 0 15 -8zM56 0q-12 0 -12 12v676q0 12 12 12h117q12 0 12 -12v-676q0 -12 -12 -12h-117z" />
    <glyph glyph-name="Iacute" unicode="&#xcd;" horiz-adv-x="230" 
d="M54 772q-17 0 -9 14l59 101q4 8 15 8h107q7 0 9.5 -4.5t-2.5 -10.5l-76 -101q-6 -7 -15 -7h-88zM56 0q-12 0 -12 12v676q0 12 12 12h117q12 0 12 -12v-676q0 -12 -12 -12h-117z" />
    <glyph glyph-name="Icircumflex" unicode="&#xce;" horiz-adv-x="230" 
d="M-21 769q-16 0 -8 14l66 104q5 8 14 8h122q9 0 14 -8l68 -103q4 -6 2 -10.5t-9 -4.5h-87q-9 0 -14 9l-30 56q-3 4 -6 0l-30 -56q-5 -9 -15 -9h-87zM56 0q-12 0 -12 12v676q0 12 12 12h117q12 0 12 -12v-676q0 -12 -12 -12h-117z" />
    <glyph glyph-name="Idieresis" unicode="&#xcf;" horiz-adv-x="230" 
d="M33 766q-31 0 -50.5 20t-19.5 51t19.5 51t50.5 20t49.5 -19.5t18.5 -51.5t-18.5 -51.5t-49.5 -19.5zM201 766q-31 0 -50 19.5t-19 51.5t19 51.5t50 19.5t50 -19.5t19 -51.5t-19 -51.5t-50 -19.5zM56 0q-12 0 -12 12v676q0 12 12 12h117q12 0 12 -12v-676q0 -12 -12 -12
h-117z" />
    <glyph glyph-name="Eth" unicode="&#xd0;" horiz-adv-x="506" 
d="M267 700q91 0 146 -53t55 -141v-312q0 -88 -55 -141t-146 -53h-181q-12 0 -12 12v309q0 5 -5 5h-13q-12 0 -12 12v57q0 12 12 12h13q5 0 5 5v276q0 12 12 12h181zM327 203v294q0 38 -17 60t-46 22h-44q-5 0 -5 -5v-162q0 -5 5 -5h38q12 0 12 -12v-57q0 -12 -12 -12h-38
q-5 0 -5 -5v-195q0 -5 5 -5l45 1q27 1 44 23t18 58z" />
    <glyph glyph-name="Ntilde" unicode="&#xd1;" horiz-adv-x="514" 
d="M323 779q-21 0 -54 18l-12 7l-10.5 6t-9 3.5t-10.5 1.5q-22 0 -36 -22q-7 -10 -17 -4l-42 30q-8 6 -5 16q25 69 88 69q29 0 64 -22q29 -19 41 -19q23 0 36 20q7 12 17 5l40 -28q10 -7 1 -23q-32 -58 -91 -58zM57 0q-12 0 -12 12v676q0 12 12 12h126q10 0 13 -10l129 -374
q1 -3 3.5 -2.5t2.5 3.5v371q0 12 12 12h115q12 0 12 -12v-676q0 -12 -12 -12h-127q-10 0 -13 10l-129 375q-1 3 -3.5 3t-2.5 -3l1 -373q0 -12 -12 -12h-115z" />
    <glyph glyph-name="Ograve" unicode="&#xd2;" horiz-adv-x="473" 
d="M287 779q8 -14 -9 -14h-88q-8 0 -14 7l-77 101q-5 6 -2.5 10.5t9.5 4.5h107q11 0 15 -8zM236 -8q-92 0 -147 54t-55 144v320q0 90 55 144t147 54t147.5 -54t55.5 -144v-320q0 -90 -55.5 -144t-147.5 -54zM236 113q28 0 45 19.5t17 51.5v332q0 32 -17 51.5t-45 19.5
t-44.5 -19.5t-16.5 -51.5v-332q0 -32 16.5 -51.5t44.5 -19.5z" />
    <glyph glyph-name="Oacute" unicode="&#xd3;" horiz-adv-x="473" 
d="M175 765q-17 0 -9 14l59 101q4 8 15 8h107q7 0 9.5 -4.5t-2.5 -10.5l-76 -101q-6 -7 -15 -7h-88zM236 -8q-92 0 -147 54t-55 144v320q0 90 55 144t147 54t147.5 -54t55.5 -144v-320q0 -90 -55.5 -144t-147.5 -54zM236 113q28 0 45 19.5t17 51.5v332q0 32 -17 51.5
t-45 19.5t-44.5 -19.5t-16.5 -51.5v-332q0 -32 16.5 -51.5t44.5 -19.5z" />
    <glyph glyph-name="Ocircumflex" unicode="&#xd4;" horiz-adv-x="473" 
d="M100 762q-16 0 -8 14l66 104q5 8 14 8h122q9 0 14 -8l68 -103q4 -6 2 -10.5t-9 -4.5h-87q-10 0 -14 9l-30 56q-3 5 -6 0l-30 -56q-4 -9 -15 -9h-87zM236 -8q-92 0 -147 54t-55 144v320q0 90 55 144t147 54t147.5 -54t55.5 -144v-320q0 -90 -55.5 -144t-147.5 -54z
M236 113q28 0 45 19.5t17 51.5v332q0 32 -17 51.5t-45 19.5t-44.5 -19.5t-16.5 -51.5v-332q0 -32 16.5 -51.5t44.5 -19.5z" />
    <glyph glyph-name="Otilde" unicode="&#xd5;" horiz-adv-x="473" 
d="M303 771q-21 0 -54 18l-12 7l-10.5 6t-9 3.5t-10.5 1.5q-22 0 -36 -22q-7 -10 -17 -4l-42 30q-8 6 -5 16q25 69 88 69q29 0 64 -22q28 -19 41 -19q23 0 36 20q7 12 17 5l40 -28q10 -7 1 -23q-32 -58 -91 -58zM236 -8q-92 0 -147 54t-55 144v320q0 90 55 144t147 54
t147.5 -54t55.5 -144v-320q0 -90 -55.5 -144t-147.5 -54zM236 113q28 0 45 19.5t17 51.5v332q0 32 -17 51.5t-45 19.5t-44.5 -19.5t-16.5 -51.5v-332q0 -32 16.5 -51.5t44.5 -19.5z" />
    <glyph glyph-name="Odieresis" unicode="&#xd6;" horiz-adv-x="473" 
d="M154 759q-31 0 -50.5 20t-19.5 51t19.5 51t50.5 20t49.5 -19.5t18.5 -51.5t-18.5 -51.5t-49.5 -19.5zM322 759q-31 0 -50 19.5t-19 51.5t19 51.5t50 19.5t50 -19.5t19 -51.5t-19 -51.5t-50 -19.5zM236 -8q-92 0 -147 54t-55 144v320q0 90 55 144t147 54t147.5 -54
t55.5 -144v-320q0 -90 -55.5 -144t-147.5 -54zM236 113q28 0 45 19.5t17 51.5v332q0 32 -17 51.5t-45 19.5t-44.5 -19.5t-16.5 -51.5v-332q0 -32 16.5 -51.5t44.5 -19.5z" />
    <glyph glyph-name="multiply" unicode="&#xd7;" horiz-adv-x="399" 
d="M367 419q8 -8 0 -17l-89 -89q-4 -4 0 -8l88 -88q8 -8 0 -16l-59 -59q-8 -8 -16 0l-88 88q-4 4 -8 0l-88 -88q-8 -8 -16 0l-59 59q-8 8 0 16l88 88q4 4 0 8l-89 89q-8 9 0 17l59 59q8 8 16 0l89 -89q4 -4 8 0l89 89q8 8 16 0z" />
    <glyph glyph-name="Oslash" unicode="&#xd8;" horiz-adv-x="494" 
d="M440 740q15 0 9 -14l-40 -91q-2 -3 0 -7q34 -49 34 -118v-320q0 -90 -55.5 -144t-147.5 -54q-57 0 -100 22q-5 2 -7 -3l-17 -39q-4 -9 -14 -9h-47q-15 0 -9 14l34 77q2 4 -1 7q-41 54 -41 129v320q0 90 55 144t147 54q63 0 109 -26q5 -3 7 2l21 47q4 9 14 9h49zM179 516
v-221q0 -4 2.5 -4.5t3.5 2.5l111 252q1 4 0 6q-16 36 -56 36q-28 0 -44.5 -19.5t-16.5 -51.5zM302 184v195q0 4 -2 4t-4 -3l-104 -236q-1 -4 0 -7q18 -24 48 -24q28 0 45 19.5t17 51.5z" />
    <glyph glyph-name="Ugrave" unicode="&#xd9;" horiz-adv-x="479" 
d="M291 786q8 -14 -9 -14h-88q-8 0 -14 7l-77 101q-5 6 -2.5 10.5t9.5 4.5h107q11 0 15 -8zM240 -8q-90 0 -144.5 56.5t-54.5 150.5v489q0 12 12 12h117q12 0 12 -12v-503q0 -32 16 -52t42 -20t41.5 20t15.5 52v503q0 12 12 12h117q12 0 12 -12v-489q0 -94 -54.5 -150.5
t-143.5 -56.5z" />
    <glyph glyph-name="Uacute" unicode="&#xda;" horiz-adv-x="479" 
d="M179 772q-17 0 -9 14l59 101q4 8 15 8h107q7 0 9.5 -4.5t-2.5 -10.5l-76 -101q-6 -7 -15 -7h-88zM240 -8q-90 0 -144.5 56.5t-54.5 150.5v489q0 12 12 12h117q12 0 12 -12v-503q0 -32 16 -52t42 -20t41.5 20t15.5 52v503q0 12 12 12h117q12 0 12 -12v-489
q0 -94 -54.5 -150.5t-143.5 -56.5z" />
    <glyph glyph-name="Ucircumflex" unicode="&#xdb;" horiz-adv-x="479" 
d="M104 769q-16 0 -8 14l66 104q5 8 14 8h122q9 0 14 -8l68 -103q4 -6 2 -10.5t-9 -4.5h-87q-10 0 -14 9l-30 56q-3 4 -6 0l-30 -56q-4 -9 -15 -9h-87zM240 -8q-90 0 -144.5 56.5t-54.5 150.5v489q0 12 12 12h117q12 0 12 -12v-503q0 -32 16 -52t42 -20t41.5 20t15.5 52v503
q0 12 12 12h117q12 0 12 -12v-489q0 -94 -54.5 -150.5t-143.5 -56.5z" />
    <glyph glyph-name="Udieresis" unicode="&#xdc;" horiz-adv-x="479" 
d="M158 766q-31 0 -50.5 20t-19.5 51t19.5 51t50.5 20t49.5 -19.5t18.5 -51.5t-18.5 -51.5t-49.5 -19.5zM326 766q-31 0 -50 19.5t-19 51.5t19 51.5t50 19.5t50 -19.5t19 -51.5t-19 -51.5t-50 -19.5zM240 -8q-90 0 -144.5 56.5t-54.5 150.5v489q0 12 12 12h117q12 0 12 -12
v-503q0 -32 16 -52t42 -20t41.5 20t15.5 52v503q0 12 12 12h117q12 0 12 -12v-489q0 -94 -54.5 -150.5t-143.5 -56.5z" />
    <glyph glyph-name="Yacute" unicode="&#xdd;" horiz-adv-x="474" 
d="M176 759q-17 0 -9 14l59 101q4 8 15 8h107q7 0 9.5 -4.5t-2.5 -10.5l-76 -101q-6 -7 -15 -7h-88zM178 1q-12 0 -12 12v260q0 3 -1 6l-140 407q-5 14 10 14h123q11 0 14 -10l62 -239q1 -3 3 -3t3 3l62 239q3 10 14 10h123q15 0 10 -14l-141 -407q-1 -3 -1 -6v-260
q0 -12 -12 -12h-117z" />
    <glyph glyph-name="Thorn" unicode="&#xde;" horiz-adv-x="465" 
d="M256 560q84 0 136 -59t52 -154q0 -93 -50 -149.5t-131 -56.5h-74q-5 0 -5 -5v-124q0 -12 -12 -12h-117q-12 0 -12 12v676q0 12 12 12h117q12 0 12 -12v-123q0 -5 5 -5h67zM233 252q32 0 51 24.5t19 68.5t-19.5 69t-50.5 25h-44q-5 0 -5 -5v-177q0 -5 5 -5h44z" />
    <glyph glyph-name="germandbls" unicode="&#xdf;" horiz-adv-x="461" 
d="M50 1q-12 0 -12 12v471q0 107 49 165.5t138 58.5q90 0 141.5 -51t52.5 -138q0 -95 -64 -137q-6 -3 -1 -6q76 -49 76 -171q0 -97 -53.5 -151t-151.5 -54h-5q-12 0 -12 12v96q0 13 9 13h8q31 0 49 26t18 73t-16.5 73t-45.5 27h-5q-12 0 -12 12v87q0 12 8 12h7q25 0 39 20.5
t14 57.5q-1 37 -15.5 58t-38.5 21q-48 0 -48 -82v-494q0 -12 -12 -12z" />
    <glyph glyph-name="agrave" unicode="&#xe0;" horiz-adv-x="445" 
d="M274 596q8 -14 -9 -14h-88q-8 0 -14 7l-77 101q-5 6 -2.5 10.5t9.5 4.5h107q11 0 15 -8zM223 522q85 0 138 -46t53 -121v-343q0 -12 -12 -12h-117q-12 0 -12 12v22q0 3 -2 4t-4 -2q-34 -43 -102 -44q-143 0 -143 154q0 93 51.5 128t148.5 35h46q5 0 5 5v25
q0 27 -14.5 44.5t-36.5 17.5q-37 0 -43 -40q-1 -12 -13 -12l-120 1q-12 0 -12 12q5 73 57 116.5t132 43.5zM212 101q24 0 42.5 15.5t18.5 41.5v47q0 5 -5 5h-41q-27 0 -43.5 -15.5t-16.5 -42.5q0 -25 12.5 -38t32.5 -13z" />
    <glyph glyph-name="aacute" unicode="&#xe1;" horiz-adv-x="445" 
d="M334 705q7 0 9.5 -4.5t-2.5 -10.5l-76 -101q-6 -7 -15 -7h-88q-17 0 -9 14l59 101q4 8 15 8h107zM223 522q85 0 138 -46t53 -121v-343q0 -12 -12 -12h-117q-12 0 -12 12v22q0 3 -2 4t-4 -2q-34 -43 -102 -44q-143 0 -143 154q0 93 51.5 128t148.5 35h46q5 0 5 5v25
q0 27 -14.5 44.5t-36.5 17.5q-37 0 -43 -40q-1 -12 -13 -12l-120 1q-12 0 -12 12q5 73 57 116.5t132 43.5zM212 101q24 0 42.5 15.5t18.5 41.5v47q0 5 -5 5h-41q-27 0 -43.5 -15.5t-16.5 -42.5q0 -25 12.5 -38t32.5 -13z" />
    <glyph glyph-name="acircumflex" unicode="&#xe2;" horiz-adv-x="445" 
d="M225 644q-3 4 -6 0l-30 -56q-5 -9 -15 -9h-87q-16 0 -8 14l66 104q5 8 14 8h122q9 0 14 -8l68 -103q4 -6 2 -10.5t-9 -4.5h-87q-9 0 -14 9zM223 522q85 0 138 -46t53 -121v-343q0 -12 -12 -12h-117q-12 0 -12 12v22q0 3 -2 4t-4 -2q-34 -43 -102 -44q-143 0 -143 154
q0 93 51.5 128t148.5 35h46q5 0 5 5v25q0 27 -14.5 44.5t-36.5 17.5q-37 0 -43 -40q-1 -12 -13 -12l-120 1q-12 0 -12 12q5 73 57 116.5t132 43.5zM212 101q24 0 42.5 15.5t18.5 41.5v47q0 5 -5 5h-41q-27 0 -43.5 -15.5t-16.5 -42.5q0 -25 12.5 -38t32.5 -13z" />
    <glyph glyph-name="atilde" unicode="&#xe3;" horiz-adv-x="445" 
d="M194 624q-22 0 -36 -22q-7 -10 -17 -4l-42 30q-8 6 -5 16q25 69 88 69q29 0 64 -22q28 -19 41 -19q23 0 36 20q7 12 17 5l40 -28q9 -6 5 -16q-31 -65 -95 -65q-21 0 -54 18l-12 7l-10.5 6t-9 3.5t-10.5 1.5zM223 522q85 0 138 -46t53 -121v-343q0 -12 -12 -12h-117
q-12 0 -12 12v22q0 3 -2 4t-4 -2q-34 -43 -102 -44q-143 0 -143 154q0 93 51.5 128t148.5 35h46q5 0 5 5v25q0 27 -14.5 44.5t-36.5 17.5q-37 0 -43 -40q-1 -12 -13 -12l-120 1q-12 0 -12 12q5 73 57 116.5t132 43.5zM212 101q24 0 42.5 15.5t18.5 41.5v47q0 5 -5 5h-41
q-27 0 -43.5 -15.5t-16.5 -42.5q0 -25 12.5 -38t32.5 -13z" />
    <glyph glyph-name="adieresis" unicode="&#xe4;" horiz-adv-x="445" 
d="M141 576q-31 0 -50.5 20t-19.5 51t19.5 51t50.5 20t49.5 -19.5t18.5 -51.5t-18.5 -51.5t-49.5 -19.5zM309 576q-31 0 -50 19.5t-19 51.5t19 51.5t50 19.5t50 -19.5t19 -51.5t-19 -51.5t-50 -19.5zM223 522q85 0 138 -46t53 -121v-343q0 -12 -12 -12h-117q-12 0 -12 12v22
q0 3 -2 4t-4 -2q-34 -43 -102 -44q-143 0 -143 154q0 93 51.5 128t148.5 35h46q5 0 5 5v25q0 27 -14.5 44.5t-36.5 17.5q-37 0 -43 -40q-1 -12 -13 -12l-120 1q-12 0 -12 12q5 73 57 116.5t132 43.5zM212 101q24 0 42.5 15.5t18.5 41.5v47q0 5 -5 5h-41q-27 0 -43.5 -15.5
t-16.5 -42.5q0 -25 12.5 -38t32.5 -13z" />
    <glyph glyph-name="aring" unicode="&#xe5;" horiz-adv-x="445" 
d="M223 569q-46 0 -78 32.5t-32 79.5t31.5 78.5t78.5 31.5t79 -31.5t32 -78.5t-32 -79.5t-79 -32.5zM223 729q-19 0 -32.5 -14t-13.5 -34t13.5 -34t32.5 -14q20 0 33.5 14t13.5 34t-13.5 34t-33.5 14zM223 522q85 0 138 -46t53 -121v-343q0 -12 -12 -12h-117q-12 0 -12 12
v22q0 3 -2 4t-4 -2q-34 -43 -102 -44q-143 0 -143 154q0 93 51.5 128t148.5 35h46q5 0 5 5v25q0 27 -14.5 44.5t-36.5 17.5q-37 0 -43 -40q-1 -12 -13 -12l-120 1q-12 0 -12 12q5 73 57 116.5t132 43.5zM212 101q24 0 42.5 15.5t18.5 41.5v47q0 5 -5 5h-41
q-27 0 -43.5 -15.5t-16.5 -42.5q0 -25 12.5 -38t32.5 -13z" />
    <glyph glyph-name="ae" unicode="&#xe6;" horiz-adv-x="685" 
d="M176 -8q-28 0 -51 5t-48.5 19.5t-40 47.5t-14.5 82q0 90 49 122.5t145 32.5h51q5 0 5 5v33q0 28 -13.5 45t-37.5 17q-18 0 -32 -10.5t-18 -28.5q-2 -11 -12 -11l-118 3q-12 0 -12 12q4 72 57 114t131 42q70 0 120 -48q4 -4 7 0q50 48 130 48q83 0 133.5 -46.5
t50.5 -121.5v-135q0 -12 -12 -12h-221q-5 0 -5 -5v-31q0 -23 13.5 -38.5t35.5 -15.5q33 0 47 37q5 11 14 10l114 -10q12 -2 11 -13q-7 -71 -52 -110t-123 -39q-52 0 -89.5 18t-47.5 41l-3 3q-10 -25 -56 -43.5t-108 -18.5zM420 306q0 -5 5 -5h87q5 0 5 5v38q0 25 -13.5 41
t-34.5 16q-22 0 -35.5 -16t-13.5 -41v-38zM212 97q24 0 42 14t18 38v52q0 5 -5 5h-41q-28 0 -44 -15t-16 -42q0 -26 13 -39t33 -13z" />
    <glyph glyph-name="ccedilla" unicode="&#xe7;" horiz-adv-x="434" 
d="M409 342q0 -12 -12 -12l-117 -5q-12 0 -12 12v12q0 22 -13.5 37t-34.5 15q-22 0 -35 -16t-13 -42v-172q0 -26 13 -42t35 -16q21 0 34.5 15.5t13.5 36.5v13q0 12 12 12l117 -1q12 0 12 -12v-23q0 -62 -36 -103.5t-101 -54.5q-6 -2 -2 -6q46 -53 33 -113q-6 -26 -22.5 -41
t-37.5 -18t-39 -2t-35 6q-9 3 -8 14l6 46q1 12 14 10q27 -4 33 24q6 33 -39 78q-1 1 -5 3q-66 12 -102.5 54.5t-36.5 108.5v194q0 76 50.5 122t138.5 46t138.5 -45t50.5 -117v-18z" />
    <glyph glyph-name="egrave" unicode="&#xe8;" horiz-adv-x="436" 
d="M271 596q8 -14 -9 -14h-88q-8 0 -14 7l-77 101q-5 6 -2.5 10.5t9.5 4.5h107q11 0 15 -8zM409 223q0 -12 -12 -12h-220q-5 0 -5 -5v-36q0 -25 13.5 -41.5t34.5 -16.5q37 0 47 44q3 13 14 11l114 -12q12 -2 11 -13q-6 -71 -53.5 -110.5t-132.5 -39.5q-89 0 -139 44.5
t-50 122.5v195q0 76 50.5 122t138.5 46t138.5 -46t50.5 -122v-131zM220 401q-21 0 -34.5 -16t-13.5 -41v-35q0 -5 5 -5h86q5 0 5 5v35q0 25 -13.5 41t-34.5 16z" />
    <glyph glyph-name="eacute" unicode="&#xe9;" horiz-adv-x="436" 
d="M331 705q7 0 9.5 -4.5t-2.5 -10.5l-76 -101q-6 -7 -15 -7h-88q-17 0 -9 14l59 101q4 8 15 8h107zM409 223q0 -12 -12 -12h-220q-5 0 -5 -5v-36q0 -25 13.5 -41.5t34.5 -16.5q37 0 47 44q3 13 14 11l114 -12q12 -2 11 -13q-6 -71 -53.5 -110.5t-132.5 -39.5
q-89 0 -139 44.5t-50 122.5v195q0 76 50.5 122t138.5 46t138.5 -46t50.5 -122v-131zM220 401q-21 0 -34.5 -16t-13.5 -41v-35q0 -5 5 -5h86q5 0 5 5v35q0 25 -13.5 41t-34.5 16z" />
    <glyph glyph-name="ecircumflex" unicode="&#xea;" horiz-adv-x="436" 
d="M222 644q-3 4 -6 0l-30 -56q-4 -9 -15 -9h-87q-16 0 -8 14l66 104q5 8 14 8h122q9 0 14 -8l68 -103q4 -6 2 -10.5t-9 -4.5h-87q-10 0 -14 9zM409 223q0 -12 -12 -12h-220q-5 0 -5 -5v-36q0 -25 13.5 -41.5t34.5 -16.5q37 0 47 44q3 13 14 11l114 -12q12 -2 11 -13
q-6 -71 -53.5 -110.5t-132.5 -39.5q-89 0 -139 44.5t-50 122.5v195q0 76 50.5 122t138.5 46t138.5 -46t50.5 -122v-131zM220 401q-21 0 -34.5 -16t-13.5 -41v-35q0 -5 5 -5h86q5 0 5 5v35q0 25 -13.5 41t-34.5 16z" />
    <glyph glyph-name="edieresis" unicode="&#xeb;" horiz-adv-x="436" 
d="M138 576q-31 0 -50.5 20t-19.5 51t19.5 51t50.5 20t49.5 -19.5t18.5 -51.5t-18.5 -51.5t-49.5 -19.5zM306 576q-31 0 -50 19.5t-19 51.5t19 51.5t50 19.5t50 -19.5t19 -51.5t-19 -51.5t-50 -19.5zM409 223q0 -12 -12 -12h-220q-5 0 -5 -5v-36q0 -25 13.5 -41.5
t34.5 -16.5q37 0 47 44q3 13 14 11l114 -12q12 -2 11 -13q-6 -71 -53.5 -110.5t-132.5 -39.5q-89 0 -139 44.5t-50 122.5v195q0 76 50.5 122t138.5 46t138.5 -46t50.5 -122v-131zM220 401q-21 0 -34.5 -16t-13.5 -41v-35q0 -5 5 -5h86q5 0 5 5v35q0 25 -13.5 41t-34.5 16z
" />
    <glyph glyph-name="igrave" unicode="&#xec;" horiz-adv-x="217" 
d="M158 600q8 -14 -9 -14h-88q-8 0 -14 7l-77 101q-5 6 -2.5 10.5t9.5 4.5h107q11 0 15 -8zM49 0q-12 0 -12 12v490q0 12 12 12h117q12 0 12 -12v-490q0 -12 -12 -12h-117z" />
    <glyph glyph-name="iacute" unicode="&#xed;" horiz-adv-x="217" 
d="M46 586q-17 0 -9 14l59 101q4 8 15 8h107q7 0 9.5 -4.5t-2.5 -10.5l-76 -101q-6 -7 -15 -7h-88zM49 0q-12 0 -12 12v490q0 12 12 12h117q12 0 12 -12v-490q0 -12 -12 -12h-117z" />
    <glyph glyph-name="icircumflex" unicode="&#xee;" horiz-adv-x="217" 
d="M-29 583q-16 0 -8 14l66 104q5 8 14 8h122q9 0 14 -8l68 -103q4 -6 2 -10.5t-9 -4.5h-87q-9 0 -14 9l-30 56q-3 4 -6 0l-30 -56q-5 -9 -15 -9h-87zM49 0q-12 0 -12 12v490q0 12 12 12h117q12 0 12 -12v-490q0 -12 -12 -12h-117z" />
    <glyph glyph-name="idieresis" unicode="&#xef;" horiz-adv-x="217" 
d="M25 580q-31 0 -50.5 20t-19.5 51t19.5 51t50.5 20t49.5 -19.5t18.5 -51.5t-18.5 -51.5t-49.5 -19.5zM193 580q-31 0 -50 19.5t-19 51.5t19 51.5t50 19.5t50 -19.5t19 -51.5t-19 -51.5t-50 -19.5zM49 0q-12 0 -12 12v490q0 12 12 12h117q12 0 12 -12v-490q0 -12 -12 -12
h-117z" />
    <glyph glyph-name="eth" unicode="&#xf0;" horiz-adv-x="449" 
d="M414 610q3 -12 -8 -15l-54 -14q-6 -2 -3 -6q62 -119 63 -249v-166q0 -78 -50.5 -123t-140.5 -45q-89 0 -139.5 45t-50.5 123v166q0 73 47.5 120.5t118.5 47.5q39 0 58 -17q3 -2 3 -1v3q-10 33 -28 68q-2 5 -6 3l-76 -19q-11 -3 -15 9l-9 35q-3 11 9 15l57 15q6 2 3 6
q-24 39 -51 74q-10 15 7 15h110q10 0 14 -7l37 -52q2 -5 6 -3l75 19q11 3 15 -9zM271 315q0 25 -14 41t-36 16t-35.5 -16t-13.5 -41v-144q0 -26 13.5 -42t35.5 -16t36 16.5t14 41.5v144z" />
    <glyph glyph-name="ntilde" unicode="&#xf1;" horiz-adv-x="447" 
d="M199 618q-21 0 -35 -21q-6 -12 -16 -4l-39 29q-8 6 -5 16q24 69 84 69q27 0 60 -22q2 -1 8.5 -6t10 -7t9 -4t11.5 -2q22 0 34 20q8 11 17 4l37 -27q9 -6 5 -16q-30 -65 -90 -65q-20 0 -51 18q-32 18 -40 18zM278 522q67 0 101 -45t34 -126v-339q0 -12 -12 -12h-117
q-12 0 -12 12v328q0 61 -45 61q-23 0 -35.5 -16.5t-12.5 -46.5v-326q0 -12 -12 -12h-117q-12 0 -12 12v490q0 12 12 12h117q12 0 12 -12v-20q2 -5 9 2q32 38 90 38z" />
    <glyph glyph-name="ograve" unicode="&#xf2;" horiz-adv-x="442" 
d="M272 596q8 -14 -9 -14h-88q-8 0 -14 7l-77 101q-5 6 -2.5 10.5t9.5 4.5h107q11 0 15 -8zM221 -8q-90 0 -140 44.5t-50 123.5v194q0 76 50.5 122t139.5 46t139.5 -46t50.5 -122v-194q0 -79 -50 -123.5t-140 -44.5zM221 113q22 0 35.5 16t13.5 42v173q0 25 -13.5 41
t-35.5 16t-35.5 -16t-13.5 -41v-173q0 -26 13.5 -42t35.5 -16z" />
    <glyph glyph-name="oacute" unicode="&#xf3;" horiz-adv-x="442" 
d="M160 582q-17 0 -9 14l59 101q4 8 15 8h107q7 0 9.5 -4.5t-2.5 -10.5l-76 -101q-6 -7 -15 -7h-88zM221 -8q-90 0 -140 44.5t-50 123.5v194q0 76 50.5 122t139.5 46t139.5 -46t50.5 -122v-194q0 -79 -50 -123.5t-140 -44.5zM221 113q22 0 35.5 16t13.5 42v173
q0 25 -13.5 41t-35.5 16t-35.5 -16t-13.5 -41v-173q0 -26 13.5 -42t35.5 -16z" />
    <glyph glyph-name="ocircumflex" unicode="&#xf4;" horiz-adv-x="442" 
d="M85 579q-16 0 -8 14l66 104q5 8 14 8h122q9 0 14 -8l68 -103q4 -6 2 -10.5t-9 -4.5h-87q-9 0 -14 9l-30 56q-3 4 -6 0l-30 -56q-5 -9 -15 -9h-87zM221 -8q-90 0 -140 44.5t-50 123.5v194q0 76 50.5 122t139.5 46t139.5 -46t50.5 -122v-194q0 -79 -50 -123.5t-140 -44.5z
M221 113q22 0 35.5 16t13.5 42v173q0 25 -13.5 41t-35.5 16t-35.5 -16t-13.5 -41v-173q0 -26 13.5 -42t35.5 -16z" />
    <glyph glyph-name="otilde" unicode="&#xf5;" horiz-adv-x="442" 
d="M288 588q-21 0 -54 18l-12 7l-10.5 6t-9 3.5t-10.5 1.5q-22 0 -36 -22q-7 -10 -17 -4l-42 30q-8 6 -5 16q25 69 88 69q29 0 64 -22q29 -19 41 -19q23 0 36 20q7 12 17 5l40 -28q10 -7 1 -23q-32 -58 -91 -58zM221 -8q-90 0 -140 44.5t-50 123.5v194q0 76 50.5 122
t139.5 46t139.5 -46t50.5 -122v-194q0 -79 -50 -123.5t-140 -44.5zM221 113q22 0 35.5 16t13.5 42v173q0 25 -13.5 41t-35.5 16t-35.5 -16t-13.5 -41v-173q0 -26 13.5 -42t35.5 -16z" />
    <glyph glyph-name="odieresis" unicode="&#xf6;" horiz-adv-x="442" 
d="M139 576q-31 0 -50.5 20t-19.5 51t19.5 51t50.5 20t49.5 -19.5t18.5 -51.5t-18.5 -51.5t-49.5 -19.5zM307 576q-31 0 -50 19.5t-19 51.5t19 51.5t50 19.5t50 -19.5t19 -51.5t-19 -51.5t-50 -19.5zM221 -8q-90 0 -140 44.5t-50 123.5v194q0 76 50.5 122t139.5 46
t139.5 -46t50.5 -122v-194q0 -79 -50 -123.5t-140 -44.5zM221 113q22 0 35.5 16t13.5 42v173q0 25 -13.5 41t-35.5 16t-35.5 -16t-13.5 -41v-173q0 -26 13.5 -42t35.5 -16z" />
    <glyph glyph-name="divide" unicode="&#xf7;" horiz-adv-x="438" 
d="M220 412q-28 0 -48.5 20t-20.5 49q0 28 20.5 48t48.5 20t48 -20t20 -48t-20 -48.5t-48 -20.5zM36 258q-12 0 -12 12v82q0 12 12 12h367q12 0 12 -12v-82q0 -12 -12 -12h-367zM220 78q-28 0 -48.5 20t-20.5 49q0 28 20.5 48t48.5 20t48 -20t20 -48t-20 -48.5t-48 -20.5z
" />
    <glyph glyph-name="oslash" unicode="&#xf8;" horiz-adv-x="456" 
d="M384 466q-2 -4 1 -7q34 -45 34 -105v-194q0 -79 -50 -123.5t-140 -44.5q-56 0 -95 16q-4 1 -6 -2l-18 -32q-6 -11 -16 -4l-39 25q-10 7 -4 16l21 37q2 4 -1 7q-32 43 -32 105v194q0 76 50.5 122t139.5 46q51 0 93 -17q4 -1 6 2l18 32q6 11 16 4l39 -24q10 -7 4 -16z
M180 254q0 -4 2 -4t4 3l74 131q2 4 -2 7q-13 10 -29 10q-22 0 -35.5 -16t-13.5 -41v-90zM278 171v92q0 4 -2 4t-4 -3l-74 -133q-2 -5 1 -7q13 -11 30 -11q22 0 35.5 16t13.5 42z" />
    <glyph glyph-name="ugrave" unicode="&#xf9;" horiz-adv-x="447" 
d="M272 588q8 -14 -9 -14h-88q-8 0 -14 7l-77 101q-5 6 -2.5 10.5t9.5 4.5h107q11 0 15 -8zM268 502q0 12 12 12h117q12 0 12 -12v-490q0 -12 -12 -12h-117q-12 0 -12 12v17q0 3 -2 4t-4 -2q-28 -38 -90 -38q-60 0 -99 36.5t-39 112.5v360q0 12 12 12h117q12 0 12 -12v-329
q0 -60 45 -60q22 0 35 17t13 46v326z" />
    <glyph glyph-name="uacute" unicode="&#xfa;" horiz-adv-x="447" 
d="M332 697q7 0 9.5 -4.5t-2.5 -10.5l-76 -101q-6 -7 -15 -7h-88q-17 0 -9 14l59 101q4 8 15 8h107zM268 502q0 12 12 12h117q12 0 12 -12v-490q0 -12 -12 -12h-117q-12 0 -12 12v17q0 3 -2 4t-4 -2q-28 -38 -90 -38q-60 0 -99 36.5t-39 112.5v360q0 12 12 12h117
q12 0 12 -12v-329q0 -60 45 -60q22 0 35 17t13 46v326z" />
    <glyph glyph-name="ucircumflex" unicode="&#xfb;" horiz-adv-x="447" 
d="M223 636q-3 4 -6 0l-30 -56q-5 -9 -15 -9h-87q-16 0 -8 14l66 104q5 8 14 8h122q9 0 14 -8l68 -103q4 -6 2 -10.5t-9 -4.5h-87q-9 0 -14 9zM268 502q0 12 12 12h117q12 0 12 -12v-490q0 -12 -12 -12h-117q-12 0 -12 12v17q0 3 -2 4t-4 -2q-28 -38 -90 -38q-60 0 -99 36.5
t-39 112.5v360q0 12 12 12h117q12 0 12 -12v-329q0 -60 45 -60q22 0 35 17t13 46v326z" />
    <glyph glyph-name="udieresis" unicode="&#xfc;" horiz-adv-x="447" 
d="M139 568q-31 0 -50.5 20t-19.5 51t19.5 51t50.5 20t49.5 -19.5t18.5 -51.5t-18.5 -51.5t-49.5 -19.5zM307 568q-31 0 -50 19.5t-19 51.5t19 51.5t50 19.5t50 -19.5t19 -51.5t-19 -51.5t-50 -19.5zM268 502q0 12 12 12h117q12 0 12 -12v-490q0 -12 -12 -12h-117
q-12 0 -12 12v17q0 3 -2 4t-4 -2q-28 -38 -90 -38q-60 0 -99 36.5t-39 112.5v360q0 12 12 12h117q12 0 12 -12v-329q0 -60 45 -60q22 0 35 17t13 46v326z" />
    <glyph glyph-name="yacute" unicode="&#xfd;" horiz-adv-x="422" 
d="M150 574q-17 0 -9 14l59 101q4 8 15 8h107q7 0 9.5 -4.5t-2.5 -10.5l-76 -101q-6 -7 -15 -7h-88zM38 -199q-6 0 -6 12v92q0 12 5 12h5q50 0 72 16t26 64q0 1 -0.5 3t-0.5 3l-126 498q-3 13 11 13h126q12 0 13 -11l46 -297q1 -6 4 -3q2 1 2 3l44 297q1 11 13 11l126 -1
q14 0 11 -13l-132 -519q-20 -73 -41.5 -108t-66 -53.5t-125.5 -18.5h-6z" />
    <glyph glyph-name="thorn" unicode="&#xfe;" horiz-adv-x="442" 
d="M274 522q69 0 102 -42.5t35 -128.5v-94q0 -78 -2 -98q-3 -83 -33.5 -125t-99.5 -42q-62 0 -95 43q-6 6 -6 -2v-221q0 -12 -12 -12h-117q-12 0 -12 12v876q0 12 12 12h117q12 0 12 -12v-210q0 -7 8 2q2 1 3 3q32 39 88 39zM270 166q1 30 1 92t-2 91q-5 53 -46 53
q-20 0 -31.5 -14.5t-13.5 -39.5q-2 -29 -2 -90q0 -63 1 -92q5 -54 47 -54q21 0 32.5 14.5t13.5 39.5z" />
    <glyph glyph-name="ydieresis" unicode="&#xff;" horiz-adv-x="422" 
d="M129 568q-31 0 -50.5 20t-19.5 51t19.5 51t50.5 20t49.5 -19.5t18.5 -51.5t-18.5 -51.5t-49.5 -19.5zM297 568q-31 0 -50 19.5t-19 51.5t19 51.5t50 19.5t50 -19.5t19 -51.5t-19 -51.5t-50 -19.5zM38 -199q-6 0 -6 12v92q0 12 5 12h5q50 0 72 16t26 64q0 1 -0.5 3t-0.5 3
l-126 498q-3 13 11 13h126q12 0 13 -11l46 -297q1 -6 4 -3q2 1 2 3l44 297q1 11 13 11l126 -1q14 0 11 -13l-132 -519q-20 -73 -41.5 -108t-66 -53.5t-125.5 -18.5h-6z" />
    <glyph glyph-name="Amacron" unicode="&#x100;" horiz-adv-x="500" 
d="M344 863q12 0 12 -12v-72q0 -12 -12 -12h-196q-12 0 -12 12v72q0 12 12 12h196zM347 0q-12 0 -13 11l-16 96q0 5 -6 5h-125q-6 0 -6 -4l-18 -97q-1 -11 -13 -11h-117q-13 0 -10 13l147 676q2 11 13 11h135q11 0 13 -11l146 -676q3 -13 -10 -13h-120zM203 226q-1 -5 5 -5
h86q4 0 4 5l-42 258q-1 3 -3 3t-3 -3z" />
    <glyph glyph-name="amacron" unicode="&#x101;" horiz-adv-x="445" 
d="M317 685q12 0 12 -12v-72q0 -12 -12 -12h-196q-12 0 -12 12v72q0 12 12 12h196zM223 522q85 0 138 -46t53 -121v-343q0 -12 -12 -12h-117q-12 0 -12 12v22q0 3 -2 4t-4 -2q-34 -43 -102 -44q-143 0 -143 154q0 93 51.5 128t148.5 35h46q5 0 5 5v25q0 27 -14.5 44.5
t-36.5 17.5q-37 0 -43 -40q-1 -12 -13 -12l-120 1q-12 0 -12 12q5 73 57 116.5t132 43.5zM212 101q24 0 42.5 15.5t18.5 41.5v47q0 5 -5 5h-41q-27 0 -43.5 -15.5t-16.5 -42.5q0 -25 12.5 -38t32.5 -13z" />
    <glyph glyph-name="Abreve" unicode="&#x102;" horiz-adv-x="500" 
d="M250 735q-50 0 -82.5 29t-36.5 77q-1 12 11 12h50q12 0 13 -12q3 -20 15 -32t30 -12t30.5 12t15.5 32q2 12 13 12h50q12 0 12 -12q-5 -48 -37.5 -77t-83.5 -29zM347 0q-12 0 -13 11l-16 96q0 5 -6 5h-125q-6 0 -6 -4l-18 -97q-1 -11 -13 -11h-117q-13 0 -10 13l147 676
q2 11 13 11h135q11 0 13 -11l146 -676q3 -13 -10 -13h-120zM203 226q-1 -5 5 -5h86q4 0 4 5l-42 258q-1 3 -3 3t-3 -3z" />
    <glyph glyph-name="abreve" unicode="&#x103;" horiz-adv-x="445" 
d="M223 557q-50 0 -82.5 29t-36.5 77q-2 12 11 12h50q11 0 13 -12q3 -20 15 -32t30 -12t30.5 12t15.5 32q1 12 13 12h50q12 0 12 -12q-5 -48 -37.5 -77t-83.5 -29zM223 522q85 0 138 -46t53 -121v-343q0 -12 -12 -12h-117q-12 0 -12 12v22q0 3 -2 4t-4 -2q-34 -43 -102 -44
q-143 0 -143 154q0 93 51.5 128t148.5 35h46q5 0 5 5v25q0 27 -14.5 44.5t-36.5 17.5q-37 0 -43 -40q-1 -12 -13 -12l-120 1q-12 0 -12 12q5 73 57 116.5t132 43.5zM212 101q24 0 42.5 15.5t18.5 41.5v47q0 5 -5 5h-41q-27 0 -43.5 -15.5t-16.5 -42.5q0 -25 12.5 -38
t32.5 -13z" />
    <glyph glyph-name="Aogonek" unicode="&#x104;" horiz-adv-x="507" 
d="M421 -90q6 -28 33 -24q13 2 14 -9l6 -47q1 -11 -8 -14q-17 -5 -35 -6t-39 2t-37.5 18t-22.5 41q-14 65 42 123q3 2 2 4t-4 2h-25q-12 0 -13 11l-16 96q0 5 -6 5h-125q-6 0 -6 -4l-18 -97q-1 -11 -13 -11h-117q-13 0 -10 13l147 676q2 11 13 11h135q11 0 13 -11l146 -676
q3 -13 0 -13t-8 -4q-55 -49 -48 -86zM203 226q-1 -5 5 -5h86q4 0 4 5l-42 258q-1 3 -3 3t-3 -3z" />
    <glyph glyph-name="aogonek" unicode="&#x105;" horiz-adv-x="600" 
d="M393 -114q13 2 14 -9l6 -47q1 -11 -8 -14q-17 -5 -35 -6t-39 2t-37.5 18t-22.5 41q-14 65 42 123q3 2 2 4t-4 2h-26q-12 0 -12 12v22q0 3 -2 4t-4 -2q-34 -43 -102 -44q-143 0 -143 154q0 93 51.5 128t148.5 35h46q5 0 5 5v25q0 27 -14.5 44.5t-36.5 17.5q-37 0 -43 -40
q-1 -12 -13 -12l-120 1q-12 0 -12 12q5 73 57 116.5t132 43.5q85 0 138 -46t53 -121v-346v-9h-1q-60 -51 -53 -90q6 -28 33 -24zM212 101q24 0 42.5 15.5t18.5 41.5v47q0 5 -5 5h-41q-27 0 -43.5 -15.5t-16.5 -42.5q0 -25 12.5 -38t32.5 -13z" />
    <glyph glyph-name="Cacute" unicode="&#x106;" horiz-adv-x="464" 
d="M172 768q-17 0 -9 14l59 101q4 8 15 8h107q7 0 9.5 -4.5t-2.5 -10.5l-76 -101q-6 -7 -15 -7h-88zM233 -8q-90 0 -144.5 53.5t-54.5 143.5v324q0 89 54.5 142t144.5 53q91 0 145.5 -53t54.5 -142v-11q0 -12 -12 -12l-117 -5q-12 0 -12 11v26q0 29 -16 47t-43 18
q-26 0 -42 -18t-16 -47v-345q0 -29 16 -46.5t42 -17.5q27 0 43 17.5t16 46.5v27q0 12 12 12l117 -5q12 0 12 -11v-11q0 -90 -55 -143.5t-145 -53.5z" />
    <glyph glyph-name="cacute" unicode="&#x107;" horiz-adv-x="434" 
d="M159 585q-17 0 -9 14l59 101q4 8 15 8h107q7 0 9.5 -4.5t-2.5 -10.5l-76 -101q-6 -7 -15 -7h-88zM220 -8q-88 0 -138.5 45t-50.5 123v194q0 76 50.5 122t138.5 46t138.5 -45t50.5 -117v-18q0 -12 -12 -12l-117 -5q-12 0 -12 12v12q0 22 -13.5 37t-34.5 15q-22 0 -35 -16
t-13 -42v-172q0 -26 13 -42t35 -16q21 0 34.5 15.5t13.5 36.5v13q0 12 12 12l117 -1q12 0 12 -12v-23q0 -74 -50.5 -118t-138.5 -44z" />
    <glyph glyph-name="Cdotaccent" unicode="&#x10a;" horiz-adv-x="464" 
d="M233 757q-29 0 -46.5 18t-17.5 47t17.5 47t46.5 18q28 0 45 -18t17 -47t-17 -47t-45 -18zM233 -8q-90 0 -144.5 53.5t-54.5 143.5v324q0 89 54.5 142t144.5 53q91 0 145.5 -53t54.5 -142v-11q0 -12 -12 -12l-117 -5q-12 0 -12 11v26q0 29 -16 47t-43 18q-26 0 -42 -18
t-16 -47v-345q0 -29 16 -46.5t42 -17.5q27 0 43 17.5t16 46.5v27q0 12 12 12l117 -5q12 0 12 -11v-11q0 -90 -55 -143.5t-145 -53.5z" />
    <glyph glyph-name="cdotaccent" unicode="&#x10b;" horiz-adv-x="434" 
d="M220 574q-29 0 -46.5 18t-17.5 47t17.5 47t46.5 18q28 0 45 -18t17 -47t-17 -47t-45 -18zM220 -8q-88 0 -138.5 45t-50.5 123v194q0 76 50.5 122t138.5 46t138.5 -45t50.5 -117v-18q0 -12 -12 -12l-117 -5q-12 0 -12 12v12q0 22 -13.5 37t-34.5 15q-22 0 -35 -16t-13 -42
v-172q0 -26 13 -42t35 -16q21 0 34.5 15.5t13.5 36.5v13q0 12 12 12l117 -1q12 0 12 -12v-23q0 -74 -50.5 -118t-138.5 -44z" />
    <glyph glyph-name="Ccaron" unicode="&#x10c;" horiz-adv-x="464" 
d="M172 759q-10 0 -14 8l-66 105q-8 14 8 14h83q10 0 15 -8l32 -57q3 -5 6 0l31 57q5 8 15 8h77q16 0 8 -14l-67 -105q-5 -8 -14 -8h-114zM233 -8q-90 0 -144.5 53.5t-54.5 143.5v324q0 89 54.5 142t144.5 53q91 0 145.5 -53t54.5 -142v-11q0 -12 -12 -12l-117 -5
q-12 0 -12 11v26q0 29 -16 47t-43 18q-26 0 -42 -18t-16 -47v-345q0 -29 16 -46.5t42 -17.5q27 0 43 17.5t16 46.5v27q0 12 12 12l117 -5q12 0 12 -11v-11q0 -90 -55 -143.5t-145 -53.5z" />
    <glyph glyph-name="ccaron" unicode="&#x10d;" horiz-adv-x="434" 
d="M159 576q-10 0 -14 8l-66 105q-8 14 8 14h83q10 0 15 -8l32 -57q3 -4 6 0l31 57q5 8 15 8h77q16 0 8 -14l-67 -105q-5 -8 -14 -8h-114zM220 -8q-88 0 -138.5 45t-50.5 123v194q0 76 50.5 122t138.5 46t138.5 -45t50.5 -117v-18q0 -12 -12 -12l-117 -5q-12 0 -12 12v12
q0 22 -13.5 37t-34.5 15q-22 0 -35 -16t-13 -42v-172q0 -26 13 -42t35 -16q21 0 34.5 15.5t13.5 36.5v13q0 12 12 12l117 -1q12 0 12 -12v-23q0 -74 -50.5 -118t-138.5 -44z" />
    <glyph glyph-name="Dcaron" unicode="&#x10e;" horiz-adv-x="476" 
d="M171 754q-9 0 -14 8l-66 104q-8 14 8 14h83q10 0 15 -8l32 -57q3 -5 6 0l31 57q5 8 15 8h77q7 0 9.5 -4t-1.5 -10l-67 -104q-5 -8 -14 -8h-114zM56 0q-12 0 -12 12v676q0 12 12 12h181q91 0 146 -53t55 -141v-312q0 -88 -55 -141t-146 -53h-181zM185 126q0 -5 5 -5l45 1
q27 1 44 23t18 58v294q0 38 -17 60t-46 22h-44q-5 0 -5 -5v-448z" />
    <glyph glyph-name="dcaron" unicode="&#x10f;" horiz-adv-x="641" 
d="M260 480q6 -8 6 1v207q0 12 12 12h117q12 0 12 -12v-676q0 -12 -12 -12h-117q-12 0 -12 12v18q0 3 -2 4t-4 -2q-33 -40 -93 -40q-69 0 -99.5 42t-33.5 125q-2 20 -2 98v94q2 86 35 128.5t102 42.5q58 0 91 -42zM501 689q4 8 15 8h107q7 0 9.5 -4.5t-2.5 -10.5l-76 -101
q-6 -7 -15 -7h-88q-17 0 -9 14zM219 112q42 0 47 54v164q0 3 -0.5 9t-0.5 9q-2 25 -13.5 39.5t-31.5 14.5q-41 0 -46 -53q-2 -29 -2 -91t1 -92q2 -25 13.5 -39.5t32.5 -14.5z" />
    <glyph glyph-name="Dcroat" unicode="&#x110;" horiz-adv-x="506" 
d="M267 700q91 0 146 -53t55 -141v-312q0 -88 -55 -141t-146 -53h-181q-12 0 -12 12v309q0 5 -5 5h-13q-12 0 -12 12v57q0 12 12 12h13q5 0 5 5v276q0 12 12 12h181zM327 203v294q0 38 -17 60t-46 22h-44q-5 0 -5 -5v-162q0 -5 5 -5h38q12 0 12 -12v-57q0 -12 -12 -12h-38
q-5 0 -5 -5v-195q0 -5 5 -5l45 1q27 1 44 23t18 58z" />
    <glyph glyph-name="dcroat" unicode="&#x111;" horiz-adv-x="600" 
d="M445 640q12 0 12 -12v-61q0 -12 -12 -12h-33q-5 0 -5 -5v-538q0 -12 -12 -12h-117q-12 0 -12 12v18q0 3 -2 4t-4 -2q-33 -40 -93 -40q-69 0 -99.5 42t-33.5 125q-2 20 -2 98v94q2 86 35 128.5t102 42.5q58 0 91 -42q6 -8 6 1v69q0 5 -5 5h-90q-12 0 -12 12v61q0 12 12 12
h90q5 0 5 5v43q0 12 12 12h117q12 0 12 -12v-43q0 -5 5 -5h33zM219 112q42 0 47 54v164q0 3 -0.5 9t-0.5 9q-2 25 -13.5 39.5t-31.5 14.5q-41 0 -46 -53q-2 -29 -2 -91t1 -92q2 -25 13.5 -39.5t32.5 -14.5z" />
    <glyph glyph-name="Emacron" unicode="&#x112;" horiz-adv-x="438" 
d="M322 875q12 0 12 -12v-72q0 -12 -12 -12h-196q-12 0 -12 12v72q0 12 12 12h196zM411 591q0 -12 -12 -12h-209q-5 0 -5 -5v-158q0 -5 5 -5h120q12 0 12 -12v-97q0 -12 -12 -12h-120q-5 0 -5 -5v-159q0 -5 5 -5h209q12 0 12 -12v-97q0 -12 -12 -12h-343q-12 0 -12 12v676
q0 12 12 12h343q12 0 12 -12v-97z" />
    <glyph glyph-name="emacron" unicode="&#x113;" horiz-adv-x="436" 
d="M314 685q12 0 12 -12v-72q0 -12 -12 -12h-196q-12 0 -12 12v72q0 12 12 12h196zM409 223q0 -12 -12 -12h-220q-5 0 -5 -5v-36q0 -25 13.5 -41.5t34.5 -16.5q37 0 47 44q3 13 14 11l114 -12q12 -2 11 -13q-6 -71 -53.5 -110.5t-132.5 -39.5q-89 0 -139 44.5t-50 122.5v195
q0 76 50.5 122t138.5 46t138.5 -46t50.5 -122v-131zM220 401q-21 0 -34.5 -16t-13.5 -41v-35q0 -5 5 -5h86q5 0 5 5v35q0 25 -13.5 41t-34.5 16z" />
    <glyph glyph-name="Edotaccent" unicode="&#x116;" horiz-adv-x="438" 
d="M228 761q-29 0 -46.5 18t-17.5 47t17.5 47t46.5 18q28 0 45 -18t17 -47t-17 -47t-45 -18zM411 591q0 -12 -12 -12h-209q-5 0 -5 -5v-158q0 -5 5 -5h120q12 0 12 -12v-97q0 -12 -12 -12h-120q-5 0 -5 -5v-159q0 -5 5 -5h209q12 0 12 -12v-97q0 -12 -12 -12h-343
q-12 0 -12 12v676q0 12 12 12h343q12 0 12 -12v-97z" />
    <glyph glyph-name="edotaccent" unicode="&#x117;" horiz-adv-x="436" 
d="M220 571q-29 0 -46.5 18t-17.5 47t17.5 47t46.5 18q28 0 45 -18t17 -47t-17 -47t-45 -18zM409 223q0 -12 -12 -12h-220q-5 0 -5 -5v-36q0 -25 13.5 -41.5t34.5 -16.5q37 0 47 44q3 13 14 11l114 -12q12 -2 11 -13q-6 -71 -53.5 -110.5t-132.5 -39.5q-89 0 -139 44.5
t-50 122.5v195q0 76 50.5 122t138.5 46t138.5 -46t50.5 -122v-131zM220 401q-21 0 -34.5 -16t-13.5 -41v-35q0 -5 5 -5h86q5 0 5 5v35q0 25 -13.5 41t-34.5 16z" />
    <glyph glyph-name="Eogonek" unicode="&#x118;" horiz-adv-x="438" 
d="M411 591q0 -12 -12 -12h-209q-5 0 -5 -5v-158q0 -5 5 -5h120q12 0 12 -12v-97q0 -12 -12 -12h-120q-5 0 -5 -5v-159q0 -5 5 -5h209q12 0 12 -12v-97q0 -12 -12 -12h-126q-3 0 -7 -2q-47 -46 -40 -79q6 -28 33 -24q13 2 14 -9l6 -47q1 -11 -8 -14q-17 -5 -35 -6t-39 2
t-37.5 18t-22.5 41q-13 61 34 114q6 6 -2 6h-113q-12 0 -12 12v676q0 12 12 12h343q12 0 12 -12v-97z" />
    <glyph glyph-name="eogonek" unicode="&#x119;" horiz-adv-x="436" 
d="M409 223q0 -12 -12 -12h-220q-5 0 -5 -5v-36q0 -25 13.5 -41.5t34.5 -16.5q37 0 47 44q3 13 14 11l114 -12q12 -2 11 -13q-5 -58 -38 -96t-92 -48l-6 -3q-52 -49 -45 -84q6 -28 33 -24q13 2 14 -9l6 -47q1 -11 -8 -14q-17 -5 -35 -6t-39 2t-37.5 18t-22.5 41
q-14 61 37 118q4 4 -2 6q-67 11 -103.5 53.5t-36.5 109.5v195q0 76 50.5 122t138.5 46t138.5 -46t50.5 -122v-131zM220 401q-21 0 -34.5 -16t-13.5 -41v-35q0 -5 5 -5h86q5 0 5 5v35q0 25 -13.5 41t-34.5 16z" />
    <glyph glyph-name="Ecaron" unicode="&#x11a;" horiz-adv-x="438" 
d="M295 771q-5 -8 -14 -8h-114q-10 0 -14 8l-66 105q-8 14 8 14h83q10 0 15 -8l32 -57q3 -5 6 0l31 57q5 8 15 8h77q16 0 8 -14zM411 591q0 -12 -12 -12h-209q-5 0 -5 -5v-158q0 -5 5 -5h120q12 0 12 -12v-97q0 -12 -12 -12h-120q-5 0 -5 -5v-159q0 -5 5 -5h209q12 0 12 -12
v-97q0 -12 -12 -12h-343q-12 0 -12 12v676q0 12 12 12h343q12 0 12 -12v-97z" />
    <glyph glyph-name="ecaron" unicode="&#x11b;" horiz-adv-x="436" 
d="M287 579q-5 -8 -14 -8h-114q-9 0 -14 8l-66 104q-8 14 8 14h83q10 0 15 -8l32 -57q3 -4 6 0l31 57q5 8 15 8h77q7 0 9.5 -4t-1.5 -10zM409 223q0 -12 -12 -12h-220q-5 0 -5 -5v-36q0 -25 13.5 -41.5t34.5 -16.5q37 0 47 44q3 13 14 11l114 -12q12 -2 11 -13
q-6 -71 -53.5 -110.5t-132.5 -39.5q-89 0 -139 44.5t-50 122.5v195q0 76 50.5 122t138.5 46t138.5 -46t50.5 -122v-131zM220 401q-21 0 -34.5 -16t-13.5 -41v-35q0 -5 5 -5h86q5 0 5 5v35q0 25 -13.5 41t-34.5 16z" />
    <glyph glyph-name="Gbreve" unicode="&#x11e;" horiz-adv-x="464" 
d="M233 743q-50 0 -82.5 29t-36.5 77q-2 12 11 12h50q11 0 13 -12q3 -20 15 -32t30 -12t30.5 12t15.5 32q1 12 13 12h50q12 0 12 -12q-5 -48 -37.5 -77t-83.5 -29zM233 -8q-90 0 -144.5 51.5t-54.5 137.5v338q0 86 54.5 137.5t144.5 51.5t145 -52t55 -138v-38q0 -12 -12 -12
h-117q-12 0 -12 12v40q0 30 -16 48.5t-43 18.5q-26 0 -42 -18.5t-16 -48.5v-340q0 -30 16 -48.5t42 -18.5q27 0 43 18.5t16 48.5v80q0 5 -5 5h-44q-12 0 -12 12v89q0 12 12 12h178q12 0 12 -12v-185q0 -86 -55 -137.5t-145 -51.5z" />
    <glyph glyph-name="gbreve" unicode="&#x11f;" horiz-adv-x="441" 
d="M222 552q-50 0 -82.5 29t-36.5 77q-1 12 11 12h50q12 0 13 -12q3 -20 15 -32t30 -12t30.5 12t15.5 32q2 12 13 12h50q12 0 12 -12q-5 -48 -37.5 -77t-83.5 -29zM267 502q0 12 12 12h117q12 0 12 -12v-478q0 -57 -12 -98t-42 -74.5t-87.5 -48t-141.5 -9.5q-12 2 -12 13v98
q0 13 13 11q86 -3 113.5 26.5t27.5 96.5q0 8 -6 0q-33 -43 -93 -43q-69 0 -103 44.5t-34 123.5v190q0 81 34.5 124.5t102.5 43.5q61 0 93 -45q2 -3 4 -2t2 4v23zM219 118q21 0 34.5 16t13.5 41v169q0 25 -13.5 41t-34.5 16t-34 -16t-13 -41v-169q0 -25 13 -41t34 -16z" />
    <glyph glyph-name="Gdotaccent" unicode="&#x120;" horiz-adv-x="464" 
d="M233 757q-29 0 -46.5 18t-17.5 47t17.5 47t46.5 18q28 0 45 -18t17 -47t-17 -47t-45 -18zM233 -8q-90 0 -144.5 51.5t-54.5 137.5v338q0 86 54.5 137.5t144.5 51.5t145 -52t55 -138v-38q0 -12 -12 -12h-117q-12 0 -12 12v40q0 30 -16 48.5t-43 18.5q-26 0 -42 -18.5
t-16 -48.5v-340q0 -30 16 -48.5t42 -18.5q27 0 43 18.5t16 48.5v80q0 5 -5 5h-44q-12 0 -12 12v89q0 12 12 12h178q12 0 12 -12v-185q0 -86 -55 -137.5t-145 -51.5z" />
    <glyph glyph-name="gdotaccent" unicode="&#x121;" horiz-adv-x="441" 
d="M222 566q-29 0 -46.5 18t-17.5 47t17.5 47t46.5 18q28 0 45 -18t17 -47t-17 -47t-45 -18zM267 502q0 12 12 12h117q12 0 12 -12v-478q0 -57 -12 -98t-42 -74.5t-87.5 -48t-141.5 -9.5q-12 2 -12 13v98q0 13 13 11q86 -3 113.5 26.5t27.5 96.5q0 8 -6 0q-33 -43 -93 -43
q-69 0 -103 44.5t-34 123.5v190q0 81 34.5 124.5t102.5 43.5q61 0 93 -45q2 -3 4 -2t2 4v23zM219 118q21 0 34.5 16t13.5 41v169q0 25 -13.5 41t-34.5 16t-34 -16t-13 -41v-169q0 -25 13 -41t34 -16z" />
    <glyph glyph-name="uni0122" unicode="&#x122;" horiz-adv-x="464" 
d="M233 -8q-90 0 -144.5 51.5t-54.5 137.5v338q0 86 54.5 137.5t144.5 51.5t145 -52t55 -138v-38q0 -12 -12 -12h-117q-12 0 -12 12v40q0 30 -16 48.5t-43 18.5q-26 0 -42 -18.5t-16 -48.5v-340q0 -30 16 -48.5t42 -18.5q27 0 43 18.5t16 48.5v80q0 5 -5 5h-44q-12 0 -12 12
v89q0 12 12 12h178q12 0 12 -12v-185q0 -86 -55 -137.5t-145 -51.5zM151 -184q-17 0 -9 14l59 101q4 8 15 8h107q7 0 9.5 -4.5t-2.5 -10.5l-76 -101q-6 -7 -15 -7h-88z" />
    <glyph glyph-name="uni0123" unicode="&#x123;" horiz-adv-x="441" 
d="M301 693q17 0 9 -14l-59 -101q-4 -8 -15 -8h-107q-7 0 -9.5 4.5t2.5 10.5l76 101q6 7 15 7h88zM267 502q0 12 12 12h117q12 0 12 -12v-478q0 -57 -12 -98t-42 -74.5t-87.5 -48t-141.5 -9.5q-12 2 -12 13v98q0 13 13 11q86 -3 113.5 26.5t27.5 96.5q0 8 -6 0
q-33 -43 -93 -43q-69 0 -103 44.5t-34 123.5v190q0 81 34.5 124.5t102.5 43.5q61 0 93 -45q2 -3 4 -2t2 4v23zM219 118q21 0 34.5 16t13.5 41v169q0 25 -13.5 41t-34.5 16t-34 -16t-13 -41v-169q0 -25 13 -41t34 -16z" />
    <glyph glyph-name="Hbar" unicode="&#x126;" horiz-adv-x="480" 
d="M472 603q12 0 12 -12v-72q0 -12 -12 -12h-31q-5 0 -5 -5v-490q0 -12 -12 -12h-117q-12 0 -12 12v273q0 5 -5 5h-100q-5 0 -5 -5v-273q0 -12 -12 -12h-117q-12 0 -12 12v490q0 5 -5 5h-30q-12 0 -12 12v72q0 12 12 12h30q5 0 5 5v80q0 12 12 12h117q12 0 12 -12v-80
q0 -5 5 -5h100q5 0 5 5v80q0 12 12 12h117q12 0 12 -12v-80q0 -5 5 -5h31zM290 411q5 0 5 5v86q0 5 -5 5h-100q-5 0 -5 -5v-86q0 -5 5 -5h100z" />
    <glyph glyph-name="hbar" unicode="&#x127;" horiz-adv-x="447" 
d="M278 522q67 0 101 -45t34 -126v-339q0 -12 -12 -12h-117q-12 0 -12 12v328q0 61 -45 61q-23 0 -35.5 -16.5t-12.5 -46.5v-326q0 -12 -12 -12h-117q-12 0 -12 12v532q0 5 -5 5h-34q-12 0 -12 12v61q0 12 12 12h34q5 0 5 5v49q0 12 12 12h117q12 0 12 -12v-49q0 -5 5 -5h89
q12 0 12 -12v-61q0 -12 -12 -12h-89q-5 0 -5 -5v-62q2 -5 9 2q32 38 90 38z" />
    <glyph glyph-name="Imacron" unicode="&#x12a;" horiz-adv-x="230" 
d="M13 779q-12 0 -12 12v72q0 12 12 12h196q12 0 12 -12v-72q0 -12 -12 -12h-196zM56 0q-12 0 -12 12v676q0 12 12 12h117q12 0 12 -12v-676q0 -12 -12 -12h-117z" />
    <glyph glyph-name="imacron" unicode="&#x12b;" horiz-adv-x="217" 
d="M5 593q-12 0 -12 12v72q0 12 12 12h196q12 0 12 -12v-72q0 -12 -12 -12h-196zM49 0q-12 0 -12 12v490q0 12 12 12h117q12 0 12 -12v-490q0 -12 -12 -12h-117z" />
    <glyph glyph-name="Iogonek" unicode="&#x12e;" horiz-adv-x="252" 
d="M180 -114q13 2 14 -9l6 -47q1 -11 -8 -14q-17 -5 -35 -6t-39 2t-37.5 18t-22.5 41q-14 65 42 123q3 2 2 4t-4 2h-27q-12 0 -12 12v676q0 12 12 12h117q12 0 12 -12v-679q0 -9 -7 -15q-53 -47 -46 -84q6 -28 33 -24z" />
    <glyph glyph-name="iogonek" unicode="&#x12f;" horiz-adv-x="226" 
d="M118 575q-29 0 -46.5 18t-17.5 47t17.5 47t46.5 18q28 0 45 -18t17 -47t-17 -47t-45 -18zM167 -114q13 2 14 -9l6 -47q1 -11 -8 -14q-17 -5 -35 -6t-39 2t-37.5 18t-22.5 41q-14 65 42 123q3 2 2 4t-4 2h-26q-12 0 -12 12v490q0 12 12 12h117q12 0 12 -12v-493v-9h-1
q-60 -51 -53 -90q6 -28 33 -24z" />
    <glyph glyph-name="Idotaccent" unicode="&#x130;" horiz-adv-x="230" 
d="M115 761q-29 0 -46.5 18t-17.5 47t17.5 47t46.5 18q28 0 45 -18t17 -47t-17 -47t-45 -18zM56 0q-12 0 -12 12v676q0 12 12 12h117q12 0 12 -12v-676q0 -12 -12 -12h-117z" />
    <glyph glyph-name="dotlessi" unicode="&#x131;" horiz-adv-x="217" 
d="M49 0q-12 0 -12 12v490q0 12 12 12h117q12 0 12 -12v-490q0 -12 -12 -12h-117z" />
    <glyph glyph-name="ij" unicode="&#x133;" horiz-adv-x="436" 
d="M328 564q-36 0 -59 24t-23 60q0 34 25 58.5t57 24.5t57 -24.5t25 -58.5q0 -36 -23 -60t-59 -24zM114 563q-37 0 -59.5 23t-22.5 60q0 38 22.5 61t59.5 23t59 -23t22 -61t-22 -60.5t-59 -22.5zM55 0q-12 0 -12 12v490q0 12 12 12h117q12 0 12 -12v-490q0 -12 -12 -12h-117
zM176 -204q-12 0 -12 12v97q0 12 13 11q45 -1 63 20.5t18 63.5v502q0 12 12 12h117q12 0 12 -12v-502q0 -45 -3 -71.5t-15.5 -55.5t-36 -44t-65.5 -24.5t-103 -8.5z" />
    <glyph glyph-name="uni0136" unicode="&#x136;" horiz-adv-x="491" 
d="M56 0q-12 0 -12 12v676q0 12 12 12h117q12 0 12 -12v-252q0 -4 2.5 -4.5t3.5 3.5l129 256q4 9 14 9h124q15 0 9 -14l-148 -288q-1 -4 -1 -6l157 -378q5 -14 -9 -14h-125q-11 0 -14 9l-104 262q-2 8 -7 0l-29 -52q-2 -4 -2 -6v-201q0 -12 -12 -12h-117zM186 -176
q-17 0 -9 14l59 101q4 8 15 8h107q7 0 9.5 -4.5t-2.5 -10.5l-76 -101q-6 -7 -15 -7h-88z" />
    <glyph glyph-name="uni0137" unicode="&#x137;" horiz-adv-x="449" 
d="M50 0q-12 0 -12 12v676q0 12 12 12h117q12 0 12 -12v-331q0 -4 2.5 -4.5t3.5 2.5l87 151q4 8 15 8h120q7 0 9.5 -4t-1.5 -10l-108 -168q-2 -4 -1 -7l122 -311q5 -14 -10 -14h-121q-10 0 -13 10l-64 198q-2 9 -6 1l-33 -52q-2 -4 -2 -6v-139q0 -12 -12 -12h-117zM152 -176
q-17 0 -9 14l59 101q4 8 15 8h107q7 0 9.5 -4.5t-2.5 -10.5l-76 -101q-6 -7 -15 -7h-88z" />
    <glyph glyph-name="Lacute" unicode="&#x139;" horiz-adv-x="426" 
d="M56 760q-17 0 -9 14l59 101q4 8 15 8h107q7 0 9.5 -4.5t-2.5 -10.5l-76 -101q-6 -7 -15 -7h-88zM56 0q-12 0 -12 12v676q0 12 12 12h117q12 0 12 -12v-562q0 -5 5 -5h210q12 0 12 -12v-97q0 -12 -12 -12h-344z" />
    <glyph glyph-name="lacute" unicode="&#x13a;" horiz-adv-x="209" 
d="M45 760q-17 0 -9 14l59 101q4 8 15 8h107q7 0 9.5 -4.5t-2.5 -10.5l-76 -101q-6 -7 -15 -7h-88zM46 0q-12 0 -12 12v676q0 12 12 12h117q12 0 12 -12v-676q0 -12 -12 -12h-117z" />
    <glyph glyph-name="uni013B" unicode="&#x13b;" horiz-adv-x="426" 
d="M56 0q-12 0 -12 12v676q0 12 12 12h117q12 0 12 -12v-562q0 -5 5 -5h210q12 0 12 -12v-97q0 -12 -12 -12h-344zM125 -176q-17 0 -9 14l59 101q4 8 15 8h107q7 0 9.5 -4.5t-2.5 -10.5l-76 -101q-6 -7 -15 -7h-88z" />
    <glyph glyph-name="uni013C" unicode="&#x13c;" horiz-adv-x="209" 
d="M46 0q-12 0 -12 12v676q0 12 12 12h117q12 0 12 -12v-676q0 -12 -12 -12h-117zM-21 -176q-17 0 -9 14l59 101q4 8 15 8h107q7 0 9.5 -4.5t-2.5 -10.5l-76 -101q-6 -7 -15 -7h-88z" />
    <glyph glyph-name="Lcaron" unicode="&#x13d;" horiz-adv-x="426" 
d="M56 749q-9 0 -14 8l-66 104q-8 14 8 14h83q10 0 15 -8l32 -57q3 -4 6 0l31 57q5 8 15 8h77q7 0 9.5 -4t-1.5 -10l-67 -104q-5 -8 -14 -8h-114zM56 0q-12 0 -12 12v676q0 12 12 12h117q12 0 12 -12v-562q0 -5 5 -5h210q12 0 12 -12v-97q0 -12 -12 -12h-344z" />
    <glyph glyph-name="lcaron" unicode="&#x13e;" horiz-adv-x="209" 
d="M45 749q-9 0 -14 8l-66 104q-8 14 8 14h83q10 0 15 -8l32 -57q3 -4 6 0l31 57q5 8 15 8h77q7 0 9.5 -4t-1.5 -10l-67 -104q-5 -8 -14 -8h-114zM46 0q-12 0 -12 12v676q0 12 12 12h117q12 0 12 -12v-676q0 -12 -12 -12h-117z" />
    <glyph glyph-name="Lslash" unicode="&#x141;" horiz-adv-x="426" 
d="M185 126q0 -5 5 -5h210q12 0 12 -12v-97q0 -12 -12 -12h-344q-12 0 -12 12v171q0 9 -6 3l-43 -35q-10 -8 -17 1l-54 63q-8 10 1 17l116 96q3 2 3 6v354q0 12 12 12h117q12 0 12 -12v-234q0 -9 6 -3l115 94q10 8 17 -1l53 -63q8 -10 -1 -17l-187 -154q-3 -2 -3 -6v-178z
" />
    <glyph glyph-name="lslash" unicode="&#x142;" horiz-adv-x="209" 
d="M296 399q6 -9 -5 -17l-112 -62q-4 -3 -4 -6v-302q0 -12 -12 -12h-117q-12 0 -12 12v222q0 8 -6 4l-34 -19q-12 -7 -17 5l-36 69q-5 9 5 16l85 47q3 2 3 6v326q0 12 12 12h117q12 0 12 -12v-244q0 -8 6 -4l60 33q9 6 16 -4z" />
    <glyph glyph-name="Nacute" unicode="&#x143;" horiz-adv-x="514" 
d="M195 773q-17 0 -9 14l59 101q4 8 15 8h107q7 0 9.5 -4.5t-2.5 -10.5l-76 -101q-6 -7 -15 -7h-88zM57 0q-12 0 -12 12v676q0 12 12 12h126q10 0 13 -10l129 -374q1 -3 3.5 -2.5t2.5 3.5v371q0 12 12 12h115q12 0 12 -12v-676q0 -12 -12 -12h-127q-10 0 -13 10l-129 375
q-1 3 -3.5 3t-2.5 -3l1 -373q0 -12 -12 -12h-115z" />
    <glyph glyph-name="nacute" unicode="&#x144;" horiz-adv-x="447" 
d="M337 699q7 0 9.5 -4.5t-2.5 -10.5l-76 -101q-6 -7 -15 -7h-88q-17 0 -9 14l59 101q4 8 15 8h107zM278 522q67 0 101 -45t34 -126v-339q0 -12 -12 -12h-117q-12 0 -12 12v328q0 61 -45 61q-23 0 -35.5 -16.5t-12.5 -46.5v-326q0 -12 -12 -12h-117q-12 0 -12 12v490
q0 12 12 12h117q12 0 12 -12v-20q2 -5 9 2q32 38 90 38z" />
    <glyph glyph-name="uni0145" unicode="&#x145;" horiz-adv-x="514" 
d="M57 0q-12 0 -12 12v676q0 12 12 12h126q10 0 13 -10l129 -374q1 -3 3.5 -2.5t2.5 3.5v371q0 12 12 12h115q12 0 12 -12v-676q0 -12 -12 -12h-127q-10 0 -13 10l-129 375q-1 3 -3.5 3t-2.5 -3l1 -373q0 -12 -12 -12h-115zM186 -176q-17 0 -9 14l59 101q4 8 15 8h107
q7 0 9.5 -4.5t-2.5 -10.5l-76 -101q-6 -7 -15 -7h-88z" />
    <glyph glyph-name="uni0146" unicode="&#x146;" horiz-adv-x="447" 
d="M278 522q67 0 101 -45t34 -126v-339q0 -12 -12 -12h-117q-12 0 -12 12v328q0 61 -45 61q-23 0 -35.5 -16.5t-12.5 -46.5v-326q0 -12 -12 -12h-117q-12 0 -12 12v490q0 12 12 12h117q12 0 12 -12v-20q2 -5 9 2q32 38 90 38zM148 -176q-17 0 -9 14l59 101q4 8 15 8h107
q7 0 9.5 -4.5t-2.5 -10.5l-76 -101q-6 -7 -15 -7h-88z" />
    <glyph glyph-name="Ncaron" unicode="&#x147;" horiz-adv-x="514" 
d="M195 764q-10 0 -14 8l-66 105q-8 14 8 14h83q10 0 15 -8l32 -57q3 -4 6 0l31 57q5 8 15 8h77q16 0 8 -14l-67 -105q-5 -8 -14 -8h-114zM57 0q-12 0 -12 12v676q0 12 12 12h126q10 0 13 -10l129 -374q1 -3 3.5 -2.5t2.5 3.5v371q0 12 12 12h115q12 0 12 -12v-676
q0 -12 -12 -12h-127q-10 0 -13 10l-129 375q-1 3 -3.5 3t-2.5 -3l1 -373q0 -12 -12 -12h-115z" />
    <glyph glyph-name="ncaron" unicode="&#x148;" horiz-adv-x="447" 
d="M293 575q-5 -8 -14 -8h-114q-10 0 -14 8l-66 105q-8 14 8 14h83q10 0 15 -8l32 -57q3 -5 6 0l31 57q5 8 15 8h77q16 0 8 -14zM278 522q67 0 101 -45t34 -126v-339q0 -12 -12 -12h-117q-12 0 -12 12v328q0 61 -45 61q-23 0 -35.5 -16.5t-12.5 -46.5v-326q0 -12 -12 -12
h-117q-12 0 -12 12v490q0 12 12 12h117q12 0 12 -12v-20q2 -5 9 2q32 38 90 38z" />
    <glyph glyph-name="Eng" unicode="&#x14a;" horiz-adv-x="514" 
d="M331 688q0 12 12 12h115q12 0 12 -12v-688q0 -35 -1.5 -56.5t-8 -46t-20 -38.5t-36.5 -26.5t-58 -17.5t-84 -4q-12 0 -12 12l-1 97q0 11 13 11q17 0 27.5 4.5t16 8.5t8 19t2.5 20.5v28.5q0 3 -1 6l-126 367q-1 3 -3.5 3t-2.5 -3l1 -373q0 -12 -12 -12h-115q-12 0 -12 12
v676q0 12 12 12h126q10 0 13 -10l129 -372q2 -4 4 -4t2 5v369z" />
    <glyph glyph-name="eng" unicode="&#x14b;" horiz-adv-x="447" 
d="M413 0q0 -27 -1 -44t-5 -39.5t-12 -36t-23 -28t-36.5 -22.5t-53.5 -13t-74 -4q-13 0 -13 12v95q0 12 13 12q42 0 53 19t11 63v326q0 61 -45 61q-23 0 -35.5 -16.5t-12.5 -46.5v-326q0 -12 -12 -12h-117q-12 0 -12 12v490q0 12 12 12h117q12 0 12 -12v-20q0 -8 6 -2
q33 42 93 42q67 0 101 -45t34 -126v-351z" />
    <glyph glyph-name="Omacron" unicode="&#x14c;" horiz-adv-x="473" 
d="M134 772q-12 0 -12 12v72q0 12 12 12h196q12 0 12 -12v-72q0 -12 -12 -12h-196zM236 -8q-92 0 -147 54t-55 144v320q0 90 55 144t147 54t147.5 -54t55.5 -144v-320q0 -90 -55.5 -144t-147.5 -54zM236 113q28 0 45 19.5t17 51.5v332q0 32 -17 51.5t-45 19.5t-44.5 -19.5
t-16.5 -51.5v-332q0 -32 16.5 -51.5t44.5 -19.5z" />
    <glyph glyph-name="omacron" unicode="&#x14d;" horiz-adv-x="442" 
d="M119 589q-12 0 -12 12v72q0 12 12 12h196q12 0 12 -12v-72q0 -12 -12 -12h-196zM221 -8q-90 0 -140 44.5t-50 123.5v194q0 76 50.5 122t139.5 46t139.5 -46t50.5 -122v-194q0 -79 -50 -123.5t-140 -44.5zM221 113q22 0 35.5 16t13.5 42v173q0 25 -13.5 41t-35.5 16
t-35.5 -16t-13.5 -41v-173q0 -26 13.5 -42t35.5 -16z" />
    <glyph glyph-name="Ohungarumlaut" unicode="&#x150;" horiz-adv-x="473" 
d="M121 763q-15 0 -9 14l47 100q4 9 14 9h96q15 0 8 -14l-53 -100q-4 -9 -14 -9h-89zM279 763q-15 0 -8 14l53 100q4 9 14 9h89q15 0 8 -14l-53 -100q-4 -9 -14 -9h-89zM236 -8q-92 0 -147 54t-55 144v320q0 90 55 144t147 54t147.5 -54t55.5 -144v-320q0 -90 -55.5 -144
t-147.5 -54zM236 113q28 0 45 19.5t17 51.5v332q0 32 -17 51.5t-45 19.5t-44.5 -19.5t-16.5 -51.5v-332q0 -32 16.5 -51.5t44.5 -19.5z" />
    <glyph glyph-name="ohungarumlaut" unicode="&#x151;" horiz-adv-x="442" 
d="M106 580q-15 0 -9 14l47 100q4 9 14 9h96q15 0 8 -14l-53 -100q-5 -9 -14 -9h-89zM264 580q-15 0 -8 14l53 100q5 9 14 9h89q15 0 8 -14l-53 -100q-5 -9 -14 -9h-89zM221 -8q-90 0 -140 44.5t-50 123.5v194q0 76 50.5 122t139.5 46t139.5 -46t50.5 -122v-194
q0 -79 -50 -123.5t-140 -44.5zM221 113q22 0 35.5 16t13.5 42v173q0 25 -13.5 41t-35.5 16t-35.5 -16t-13.5 -41v-173q0 -26 13.5 -42t35.5 -16z" />
    <glyph glyph-name="OE" unicode="&#x152;" horiz-adv-x="691" 
d="M664 591q0 -12 -12 -12h-208q-5 0 -5 -5v-158q0 -5 5 -5h119q12 0 12 -12v-97q0 -12 -12 -12h-119q-5 0 -5 -5v-159q0 -5 5 -5h208q12 0 12 -12v-97q0 -12 -12 -12h-342q-12 0 -12 12v6q0 9 -6 3q-38 -29 -92 -29q-67 0 -116.5 55.5t-49.5 142.5v320q0 87 49.5 142.5
t116.5 55.5q54 0 92 -29q4 -3 6 2v7q0 12 12 12h342q12 0 12 -12v-97zM236 113q28 0 45 19.5t17 51.5v332q0 32 -17 51.5t-45 19.5t-44.5 -19.5t-16.5 -51.5v-332q0 -32 16.5 -51.5t44.5 -19.5z" />
    <glyph glyph-name="oe" unicode="&#x153;" horiz-adv-x="691" 
d="M664 222q0 -12 -12 -12h-220q-5 0 -5 -5v-35q0 -25 13.5 -41t34.5 -16q37 0 48 45q3 11 13 10l114 -7q12 -2 11 -13q-13 -156 -186 -156q-78 0 -123 53q-3 3 -7 0q-45 -53 -124 -53q-89 0 -139.5 45t-50.5 123v194q0 76 51 122t139 46q77 0 124 -55q4 -3 7 0
q47 55 123 55q88 0 138.5 -46t50.5 -122v-132zM271 344q0 26 -14 41.5t-36 15.5t-35.5 -16t-13.5 -41v-174q0 -25 13.5 -41t35.5 -16t36 16t14 41v174zM475 401q-21 0 -34.5 -16t-13.5 -41v-35q0 -5 5 -5h87q5 0 5 5v35q0 25 -13.5 41t-35.5 16z" />
    <glyph glyph-name="Racute" unicode="&#x154;" horiz-adv-x="471" 
d="M340 883q7 0 9.5 -4.5t-2.5 -10.5l-76 -101q-6 -7 -15 -7h-88q-17 0 -9 14l59 101q4 8 15 8h107zM320 0q-11 0 -14 10l-77 276q-2 4 -5 4h-34q-5 0 -5 -5v-273q0 -12 -12 -12h-117q-12 0 -12 12v677q0 12 12 12h202q84 0 136 -59t52 -152q0 -120 -85 -175q-5 -2 -3 -6
l92 -295q4 -14 -10 -14h-120zM190 579q-5 0 -5 -5v-170q0 -5 5 -5h45q31 0 50.5 24t19.5 65q0 43 -19.5 67t-50.5 24h-45z" />
    <glyph glyph-name="racute" unicode="&#x155;" horiz-adv-x="325" 
d="M291 701q7 0 9.5 -4.5t-2.5 -10.5l-76 -101q-6 -7 -15 -7h-88q-17 0 -9 14l59 101q4 8 15 8h107zM268 521q25 0 43 -11q7 -5 5 -15l-19 -117q-1 -11 -14 -8q-27 9 -53 0q-22 -5 -37 -28.5t-15 -53.5v-276q0 -12 -12 -12h-117q-12 0 -12 12v490q0 12 12 12h117
q12 0 12 -12v-41q0 -4 2 -4.5t3 2.5q28 62 85 62z" />
    <glyph glyph-name="uni0156" unicode="&#x156;" horiz-adv-x="471" 
d="M190 290q-5 0 -5 -5v-273q0 -12 -12 -12h-117q-12 0 -12 12v677q0 12 12 12h202q84 0 136 -59t52 -152q0 -120 -85 -175q-5 -2 -3 -6l92 -295q4 -14 -10 -14h-120q-11 0 -14 10l-77 276q-2 4 -5 4h-34zM235 579h-45q-5 0 -5 -5v-170q0 -5 5 -5h45q31 0 50.5 24t19.5 65
q0 43 -19.5 67t-50.5 24zM162 -176q-17 0 -9 14l59 101q4 8 15 8h107q7 0 9.5 -4.5t-2.5 -10.5l-76 -101q-6 -7 -15 -7h-88z" />
    <glyph glyph-name="uni0157" unicode="&#x157;" horiz-adv-x="324" 
d="M268 521q25 0 43 -11q7 -5 5 -15l-19 -117q-1 -11 -14 -8q-27 9 -53 0q-22 -5 -37 -28.5t-15 -53.5v-276q0 -12 -12 -12h-117q-12 0 -12 12v490q0 12 12 12h117q12 0 12 -12v-41q0 -4 2 -4.5t3 2.5q28 62 85 62zM-20 -176q-17 0 -9 14l59 101q4 8 15 8h107q7 0 9.5 -4.5
t-2.5 -10.5l-76 -101q-6 -7 -15 -7h-88z" />
    <glyph glyph-name="Rcaron" unicode="&#x158;" horiz-adv-x="471" 
d="M296 759q-5 -8 -14 -8h-114q-10 0 -14 8l-66 105q-8 14 8 14h83q10 0 15 -8l32 -57q3 -5 6 0l31 57q5 8 15 8h77q16 0 8 -14zM320 0q-11 0 -14 10l-77 276q-2 4 -5 4h-34q-5 0 -5 -5v-273q0 -12 -12 -12h-117q-12 0 -12 12v677q0 12 12 12h202q84 0 136 -59t52 -152
q0 -120 -85 -175q-5 -2 -3 -6l92 -295q4 -14 -10 -14h-120zM190 579q-5 0 -5 -5v-170q0 -5 5 -5h45q31 0 50.5 24t19.5 65q0 43 -19.5 67t-50.5 24h-45z" />
    <glyph glyph-name="rcaron" unicode="&#x159;" horiz-adv-x="325" 
d="M247 577q-5 -8 -14 -8h-114q-10 0 -14 8l-66 105q-8 14 8 14h83q10 0 15 -8l32 -57q3 -5 6 0l31 57q5 8 15 8h77q16 0 8 -14zM178 461q0 -3 1 -4q2 -2 4 3q27 61 85 61q25 0 43 -11q7 -5 5 -15l-19 -117q-1 -11 -14 -8q-27 9 -53 0q-22 -5 -37 -28.5t-15 -53.5v-276
q0 -12 -12 -12h-117q-12 0 -12 12v490q0 12 12 12h117q12 0 12 -12v-41z" />
    <glyph glyph-name="Sacute" unicode="&#x15a;" horiz-adv-x="448" 
d="M162 768q-17 0 -9 14l59 101q4 8 15 8h107q7 0 9.5 -4.5t-2.5 -10.5l-76 -101q-6 -7 -15 -7h-88zM228 -8q-87 0 -140.5 51t-53.5 132v32q0 12 12 12h115q12 0 12 -12v-25q0 -31 15.5 -50t39.5 -19t40 18t16 47q0 30 -19.5 51.5t-77.5 63.5q-37 27 -57 43.5t-47 45.5
t-39.5 63.5t-12.5 75.5q0 85 53 136t139 51q88 0 142 -53t54 -139v-24q0 -12 -12 -12h-115q-12 0 -12 12v27q0 31 -15.5 49.5t-41.5 18.5q-24 0 -38.5 -17.5t-14.5 -48.5q0 -30 19 -53t74 -64q47 -34 70 -53.5t47.5 -46.5t33.5 -55t9 -65q0 -88 -54 -140t-141 -52z" />
    <glyph glyph-name="sacute" unicode="&#x15b;" horiz-adv-x="412" 
d="M144 581q-17 0 -9 14l59 101q4 8 15 8h107q7 0 9.5 -4.5t-2.5 -10.5l-76 -101q-6 -7 -15 -7h-88zM210 -7q-85 0 -135.5 40.5t-50.5 108.5v7q0 12 12 12h110q12 0 12 -7v-8q0 -21 15 -34.5t37 -13.5q20 0 31.5 11.5t11.5 29.5q0 8 -2.5 14.5t-8.5 12.5t-11.5 10t-16 8.5
t-17 7l-19.5 7.5t-19 7q-130 47 -130 158q0 73 48 115t128 42q83 0 131.5 -44t48.5 -119q0 -12 -12 -12h-107q-12 0 -12 10v10q0 20 -13 32.5t-32 12.5q-21 0 -33 -13.5t-12 -31.5q0 -16 12.5 -29t27.5 -20.5t37 -15.5q4 -1 6 -2q31 -11 51 -21t45.5 -28t38.5 -45t13 -62
q0 -69 -50.5 -109.5t-134.5 -40.5z" />
    <glyph glyph-name="Scedilla" unicode="&#x15e;" horiz-adv-x="448" 
d="M423 184q0 -73 -39 -123t-105 -64q-8 0 -2 -6q47 -53 34 -114q-6 -26 -22.5 -41t-37.5 -18t-39 -2t-35 6q-9 3 -8 14l6 46q1 12 14 10q27 -4 33 24q6 35 -40 79q-1 1 -5 3q-66 14 -104.5 61.5t-38.5 115.5v32q0 12 12 12h115q12 0 12 -12v-25q0 -31 15.5 -50t39.5 -19
t40 18t16 47q0 30 -19.5 51.5t-77.5 63.5q-37 27 -57 43.5t-47 45.5t-39.5 63.5t-12.5 75.5q0 85 53 136t139 51q88 0 142 -53t54 -139v-24q0 -12 -12 -12h-115q-12 0 -12 12v27q0 31 -15.5 49.5t-41.5 18.5q-24 0 -38.5 -17.5t-14.5 -48.5q0 -30 19 -53t74 -64
q47 -34 70 -53.5t47.5 -46.5t33.5 -55t9 -65z" />
    <glyph glyph-name="scedilla" unicode="&#x15f;" horiz-adv-x="412" 
d="M395 143q0 -58 -35.5 -96t-97.5 -50q-6 -2 -2 -6q46 -53 33 -113q-6 -26 -22.5 -41t-37.5 -18t-39 -2t-35 6q-9 3 -8 14l6 46q1 12 14 10q27 -4 33 24q6 33 -39 78q-1 1 -5 3q-64 11 -100 49t-36 95v7q0 12 12 12h110q12 0 12 -7v-8q0 -21 15 -34.5t37 -13.5
q20 0 31.5 11.5t11.5 29.5q0 8 -2.5 14.5t-8.5 12.5t-11.5 10t-16 8.5t-17 7l-19.5 7.5t-19 7q-130 47 -130 158q0 73 48 115t128 42q83 0 131.5 -44t48.5 -119q0 -12 -12 -12h-107q-12 0 -12 10v10q0 20 -13 32.5t-32 12.5q-21 0 -33 -13.5t-12 -31.5q0 -16 12.5 -29
t27.5 -20.5t37 -15.5q4 -1 6 -2q31 -11 51 -21t45.5 -28t38.5 -45t13 -62z" />
    <glyph glyph-name="Scaron" unicode="&#x160;" horiz-adv-x="448" 
d="M162 759q-10 0 -14 8l-66 105q-8 14 8 14h83q10 0 15 -8l32 -57q3 -5 6 0l31 57q5 8 15 8h77q16 0 8 -14l-67 -105q-5 -8 -14 -8h-114zM228 -8q-87 0 -140.5 51t-53.5 132v32q0 12 12 12h115q12 0 12 -12v-25q0 -31 15.5 -50t39.5 -19t40 18t16 47q0 30 -19.5 51.5
t-77.5 63.5q-37 27 -57 43.5t-47 45.5t-39.5 63.5t-12.5 75.5q0 85 53 136t139 51q88 0 142 -53t54 -139v-24q0 -12 -12 -12h-115q-12 0 -12 12v27q0 31 -15.5 49.5t-41.5 18.5q-24 0 -38.5 -17.5t-14.5 -48.5q0 -30 19 -53t74 -64q47 -34 70 -53.5t47.5 -46.5t33.5 -55
t9 -65q0 -88 -54 -140t-141 -52z" />
    <glyph glyph-name="scaron" unicode="&#x161;" horiz-adv-x="412" 
d="M144 572q-10 0 -14 8l-66 105q-8 14 8 14h83q10 0 15 -8l32 -57q3 -4 6 0l31 57q5 8 15 8h77q16 0 8 -14l-67 -105q-5 -8 -14 -8h-114zM210 -7q-85 0 -135.5 40.5t-50.5 108.5v7q0 12 12 12h110q12 0 12 -7v-8q0 -21 15 -34.5t37 -13.5q20 0 31.5 11.5t11.5 29.5
q0 8 -2.5 14.5t-8.5 12.5t-11.5 10t-16 8.5t-17 7l-19.5 7.5t-19 7q-130 47 -130 158q0 73 48 115t128 42q83 0 131.5 -44t48.5 -119q0 -12 -12 -12h-107q-12 0 -12 10v10q0 20 -13 32.5t-32 12.5q-21 0 -33 -13.5t-12 -31.5q0 -16 12.5 -29t27.5 -20.5t37 -15.5q4 -1 6 -2
q31 -11 51 -21t45.5 -28t38.5 -45t13 -62q0 -69 -50.5 -109.5t-134.5 -40.5z" />
    <glyph glyph-name="uni0162" unicode="&#x162;" horiz-adv-x="468" 
d="M307 579q-5 0 -5 -5v-562q0 -12 -12 -12h-6q-7 0 -3 -6q44 -53 31 -110q-6 -26 -22.5 -41t-37.5 -18t-39 -2t-35 6q-9 3 -8 14l6 46q1 12 14 10q27 -4 33 24q6 32 -35 74q-3 3 -7 3h-8q-12 0 -12 12v562q0 5 -5 5h-120q-12 0 -12 12v97q0 12 12 12h396q12 0 12 -12v-97
q0 -12 -12 -12h-125z" />
    <glyph glyph-name="uni0163" unicode="&#x163;" horiz-adv-x="291" 
d="M272 427q0 -12 -12 -12h-56q-5 0 -5 -5v-238q0 -29 11 -40t33 -10h7q12 0 12 -12v-98q0 -12 -12 -12h-12q-9 0 -3 -6q33 -46 22 -100q-6 -26 -22.5 -41t-37.5 -18t-39 -2t-35 6q-9 3 -8 14l6 46q1 12 14 10q27 -4 33 24q6 32 -36 75q-1 1 -5 3q-64 22 -64 107v292
q0 5 -5 5h-33q-12 0 -12 12v75q0 12 12 12h33q5 0 5 5v111q0 12 12 12h112q12 0 12 -12v-111q0 -5 5 -5h56q12 0 12 -12v-75z" />
    <glyph glyph-name="Tcaron" unicode="&#x164;" horiz-adv-x="468" 
d="M302 757q-5 -8 -14 -8h-114q-9 0 -14 8l-66 104q-8 14 8 14h83q10 0 15 -8l32 -57q3 -4 6 0l31 57q5 8 15 8h77q7 0 9.5 -4t-1.5 -10zM432 700q12 0 12 -12v-97q0 -12 -12 -12h-125q-5 0 -5 -5v-562q0 -12 -12 -12h-117q-12 0 -12 12v562q0 5 -5 5h-120q-12 0 -12 12v97
q0 12 12 12h396z" />
    <glyph glyph-name="tcaron" unicode="&#x165;" horiz-adv-x="291" 
d="M202 699q-5 -8 -14 -8h-114q-9 0 -14 8l-66 104q-8 14 8 14h83q10 0 15 -8l32 -57q3 -4 6 0l31 57q5 8 15 8h77q7 0 9.5 -4t-1.5 -10zM187 642q12 0 12 -12v-111q0 -5 5 -5h56q12 0 12 -12v-75q0 -12 -12 -12h-56q-5 0 -5 -5v-238q0 -29 11 -40t33 -10h7q12 0 12 -12v-98
q0 -12 -12 -12h-40q-73 0 -110 24.5t-37 93.5v292q0 5 -5 5h-33q-12 0 -12 12v75q0 12 12 12h33q5 0 5 5v111q0 12 12 12h112z" />
    <glyph glyph-name="Tbar" unicode="&#x166;" horiz-adv-x="600" 
d="M444 591q0 -12 -12 -12h-125q-5 0 -5 -5v-160q0 -5 5 -5h58q12 0 12 -12v-61q0 -12 -12 -12h-58q-5 0 -5 -5v-307q0 -12 -12 -12h-117q-12 0 -12 12v307q0 5 -5 5h-65q-12 0 -12 12v61q0 12 12 12h65q5 0 5 5v160q0 5 -5 5h-120q-12 0 -12 12v97q0 12 12 12h396
q12 0 12 -12v-97z" />
    <glyph glyph-name="tbar" unicode="&#x167;" horiz-adv-x="600" 
d="M272 569q12 0 12 -12v-61q0 -12 -6 -12h-1q-5 0 -5 -5v-52q0 -12 -12 -12h-56q-5 0 -5 -5v-238q0 -29 11 -40t33 -10h7q12 0 12 -12v-98q0 -12 -12 -12h-40q-73 0 -110 24.5t-37 93.5v292q0 5 -5 5h-33q-12 0 -12 12v52l-1 5h-1v73q0 12 12 12h35q5 0 5 5v56q0 12 12 12
h112q12 0 12 -12v-56q0 -5 5 -5h68z" />
    <glyph glyph-name="Umacron" unicode="&#x16a;" horiz-adv-x="479" 
d="M138 779q-12 0 -12 12v72q0 12 12 12h196q12 0 12 -12v-72q0 -12 -12 -12h-196zM240 -8q-90 0 -144.5 56.5t-54.5 150.5v489q0 12 12 12h117q12 0 12 -12v-503q0 -32 16 -52t42 -20t41.5 20t15.5 52v503q0 12 12 12h117q12 0 12 -12v-489q0 -94 -54.5 -150.5
t-143.5 -56.5z" />
    <glyph glyph-name="umacron" unicode="&#x16b;" horiz-adv-x="447" 
d="M315 677q12 0 12 -12v-72q0 -12 -12 -12h-196q-12 0 -12 12v72q0 12 12 12h196zM268 502q0 12 12 12h117q12 0 12 -12v-490q0 -12 -12 -12h-117q-12 0 -12 12v17q0 3 -2 4t-4 -2q-28 -38 -90 -38q-60 0 -99 36.5t-39 112.5v360q0 12 12 12h117q12 0 12 -12v-329
q0 -60 45 -60q22 0 35 17t13 46v326z" />
    <glyph glyph-name="Uring" unicode="&#x16e;" horiz-adv-x="479" 
d="M240 759q-46 0 -78 32.5t-32 79.5t32 78.5t78 31.5q47 0 79 -31.5t32 -78.5t-32 -79.5t-79 -32.5zM240 823q20 0 33.5 14t13.5 34t-13.5 34t-33.5 14q-19 0 -32.5 -14t-13.5 -34t13.5 -34t32.5 -14zM240 -8q-90 0 -144.5 56.5t-54.5 150.5v489q0 12 12 12h117
q12 0 12 -12v-503q0 -32 16 -52t42 -20t41.5 20t15.5 52v503q0 12 12 12h117q12 0 12 -12v-489q0 -94 -54.5 -150.5t-143.5 -56.5z" />
    <glyph glyph-name="uring" unicode="&#x16f;" horiz-adv-x="447" 
d="M221 561q-46 0 -78 32.5t-32 79.5t31.5 78.5t78.5 31.5t79 -31.5t32 -78.5t-32 -79.5t-79 -32.5zM221 721q-19 0 -32.5 -14t-13.5 -34t13.5 -34t32.5 -14q20 0 33.5 14t13.5 34t-13.5 34t-33.5 14zM268 502q0 12 12 12h117q12 0 12 -12v-490q0 -12 -12 -12h-117
q-12 0 -12 12v17q0 3 -2 4t-4 -2q-28 -38 -90 -38q-60 0 -99 36.5t-39 112.5v360q0 12 12 12h117q12 0 12 -12v-329q0 -60 45 -60q22 0 35 17t13 46v326z" />
    <glyph glyph-name="Uhungarumlaut" unicode="&#x170;" horiz-adv-x="479" 
d="M125 770q-15 0 -9 14l47 100q4 9 14 9h96q15 0 8 -14l-53 -100q-4 -9 -14 -9h-89zM283 770q-15 0 -8 14l53 100q4 9 14 9h89q15 0 8 -14l-53 -100q-4 -9 -14 -9h-89zM240 -8q-90 0 -144.5 56.5t-54.5 150.5v489q0 12 12 12h117q12 0 12 -12v-503q0 -32 16 -52t42 -20
t41.5 20t15.5 52v503q0 12 12 12h117q12 0 12 -12v-489q0 -94 -54.5 -150.5t-143.5 -56.5z" />
    <glyph glyph-name="uhungarumlaut" unicode="&#x171;" horiz-adv-x="447" 
d="M254 695q15 0 8 -14l-53 -100q-5 -9 -14 -9h-89q-15 0 -9 14l47 100q4 9 14 9h96zM368 581q-4 -9 -15 -9h-89q-15 0 -8 14l53 100q5 9 14 9h89q15 0 8 -14zM268 176v326q0 12 12 12h117q12 0 12 -12v-490q0 -12 -12 -12h-117q-12 0 -12 12v17q0 3 -2 4t-4 -2
q-28 -38 -90 -38q-60 0 -99 36.5t-39 112.5v360q0 12 12 12h117q12 0 12 -12v-329q0 -60 45 -60q22 0 35 17t13 46z" />
    <glyph glyph-name="Uogonek" unicode="&#x172;" horiz-adv-x="479" 
d="M297 688q0 12 12 12h117q12 0 12 -12v-489q0 -80 -41 -134t-111 -68q-4 -2 -5 -3q-42 -43 -36 -75q6 -28 33 -24q13 2 14 -9l6 -47q1 -11 -8 -14q-17 -5 -35 -6t-39 2t-37.5 18t-22.5 41q-13 59 32 112q4 6 -2 6q-67 17 -106 70t-39 131v489q0 12 12 12h117q12 0 12 -12
v-503q0 -32 16 -52t42 -20t41.5 20t15.5 52v503z" />
    <glyph glyph-name="uogonek" unicode="&#x173;" horiz-adv-x="447" 
d="M389 -114q13 2 14 -9l6 -47q1 -11 -8 -14q-17 -5 -35 -6t-39 2t-37.5 18t-22.5 41q-14 65 42 123q3 2 2 4t-4 2h-27q-12 0 -12 12v17q0 3 -2 4t-4 -2q-28 -38 -90 -38q-60 0 -99 36.5t-39 112.5v360q0 12 12 12h117q12 0 12 -12v-329q0 -60 45 -60q22 0 35 17t13 46v326
q0 12 12 12h117q12 0 12 -12v-493q0 -9 -7 -15q-53 -47 -46 -84q6 -28 33 -24z" />
    <glyph glyph-name="Wcircumflex" unicode="&#x174;" horiz-adv-x="689" 
d="M202 757q-16 0 -8 14l66 104q5 8 14 8h122q9 0 14 -8l68 -103q4 -6 2 -10.5t-9 -4.5h-87q-10 0 -14 9l-30 56q-3 4 -6 0l-30 -56q-4 -9 -15 -9h-87zM169 0q-11 0 -13 11l-135 676q-3 13 10 13h122q12 0 13 -11l57 -360q1 -6 4 -3q2 1 2 3l54 360q1 11 13 11h101
q12 0 13 -11l59 -360q1 -6 4 -3q2 1 2 3l51 360q1 11 13 11h118q13 0 11 -13l-127 -676q-1 -11 -13 -11h-108q-12 0 -13 11l-59 370q-1 6 -4 3q-2 -1 -2 -3l-53 -370q-1 -11 -13 -11h-107z" />
    <glyph glyph-name="wcircumflex" unicode="&#x175;" horiz-adv-x="613" 
d="M170 571q-16 0 -8 14l66 104q5 8 14 8h122q9 0 14 -8l68 -103q4 -6 2 -10.5t-9 -4.5h-87q-10 0 -14 9l-30 56q-3 4 -6 0l-30 -56q-4 -9 -15 -9h-87zM137 0q-11 0 -13 11l-107 490q-3 13 11 13h111q12 0 13 -11l42 -293q1 -6 4 -3q2 1 2 3l44 293q1 11 13 11h100
q12 0 13 -11l45 -293q1 -6 4 -3q2 1 2 3l43 293q1 11 13 11l110 -1q13 0 10 -13l-107 -489q-2 -11 -13 -11h-114q-12 0 -13 11l-43 254q-1 3 -3 3t-3 -3l-42 -254q-1 -11 -13 -11h-109z" />
    <glyph glyph-name="Ycircumflex" unicode="&#x176;" horiz-adv-x="474" 
d="M101 756q-16 0 -8 14l66 104q5 8 14 8h122q9 0 14 -8l68 -103q4 -6 2 -10.5t-9 -4.5h-87q-9 0 -14 9l-30 56q-3 5 -6 0l-30 -56q-5 -9 -15 -9h-87zM178 1q-12 0 -12 12v260q0 3 -1 6l-140 407q-5 14 10 14h123q11 0 14 -10l62 -239q1 -3 3 -3t3 3l62 239q3 10 14 10h123
q15 0 10 -14l-141 -407q-1 -3 -1 -6v-260q0 -12 -12 -12h-117z" />
    <glyph glyph-name="ycircumflex" unicode="&#x177;" horiz-adv-x="422" 
d="M75 571q-16 0 -8 14l66 104q5 8 14 8h122q9 0 14 -8l68 -103q4 -6 2 -10.5t-9 -4.5h-87q-9 0 -14 9l-30 56q-3 4 -6 0l-30 -56q-5 -9 -15 -9h-87zM38 -199q-6 0 -6 12v92q0 12 5 12h5q50 0 72 16t26 64q0 1 -0.5 3t-0.5 3l-126 498q-3 13 11 13h126q12 0 13 -11l46 -297
q1 -6 4 -3q2 1 2 3l44 297q1 11 13 11l126 -1q14 0 11 -13l-132 -519q-20 -73 -41.5 -108t-66 -53.5t-125.5 -18.5h-6z" />
    <glyph glyph-name="Ydieresis" unicode="&#x178;" horiz-adv-x="474" 
d="M155 753q-31 0 -50.5 20t-19.5 51t19.5 51t50.5 20t49.5 -19.5t18.5 -51.5t-18.5 -51.5t-49.5 -19.5zM323 753q-31 0 -50 19.5t-19 51.5t19 51.5t50 19.5t50 -19.5t19 -51.5t-19 -51.5t-50 -19.5zM178 1q-12 0 -12 12v260q0 3 -1 6l-140 407q-5 14 10 14h123q11 0 14 -10
l62 -239q1 -3 3 -3t3 3l62 239q3 10 14 10h123q15 0 10 -14l-141 -407q-1 -3 -1 -6v-260q0 -12 -12 -12h-117z" />
    <glyph glyph-name="Zacute" unicode="&#x179;" horiz-adv-x="412" 
d="M144 773q-17 0 -9 14l59 101q4 8 15 8h107q7 0 9.5 -4.5t-2.5 -10.5l-76 -101q-6 -7 -15 -7h-88zM32 0q-12 0 -12 12v101q0 7 3 15l214 445q3 6 -4 6h-201q-12 0 -12 12v97q0 12 12 12h344q12 0 12 -12v-101q0 -7 -3 -15l-214 -445q-3 -6 4 -6h201q12 0 12 -12v-97
q0 -12 -12 -12h-344z" />
    <glyph glyph-name="zacute" unicode="&#x17a;" horiz-adv-x="373" 
d="M126 586q-17 0 -9 14l59 101q4 8 15 8h107q7 0 9.5 -4.5t-2.5 -10.5l-76 -101q-6 -7 -15 -7h-88zM30 0q-12 0 -12 12v108q0 8 4 15l156 246q3 6 -3 6h-139q-12 0 -12 12v103q0 12 12 12h301q12 0 12 -12v-107q0 -8 -4 -15l-162 -246q-3 -6 3 -6h157q12 0 12 -12v-104
q0 -12 -12 -12h-313z" />
    <glyph glyph-name="Zdotaccent" unicode="&#x17b;" horiz-adv-x="412" 
d="M205 762q-29 0 -46.5 18t-17.5 47t17.5 47t46.5 18q28 0 45 -18t17 -47t-17 -47t-45 -18zM32 0q-12 0 -12 12v101q0 7 3 15l214 445q3 6 -4 6h-201q-12 0 -12 12v97q0 12 12 12h344q12 0 12 -12v-101q0 -7 -3 -15l-214 -445q-3 -6 4 -6h201q12 0 12 -12v-97
q0 -12 -12 -12h-344z" />
    <glyph glyph-name="zdotaccent" unicode="&#x17c;" horiz-adv-x="373" 
d="M187 575q-29 0 -46.5 18t-17.5 47t17.5 47t46.5 18q28 0 45 -18t17 -47t-17 -47t-45 -18zM30 0q-12 0 -12 12v108q0 8 4 15l156 246q3 6 -3 6h-139q-12 0 -12 12v103q0 12 12 12h301q12 0 12 -12v-107q0 -8 -4 -15l-162 -246q-3 -6 3 -6h157q12 0 12 -12v-104
q0 -12 -12 -12h-313z" />
    <glyph glyph-name="Zcaron" unicode="&#x17d;" horiz-adv-x="412" 
d="M144 764q-10 0 -14 8l-66 105q-8 14 8 14h83q10 0 15 -8l32 -57q3 -4 6 0l31 57q5 8 15 8h77q16 0 8 -14l-67 -105q-5 -8 -14 -8h-114zM32 0q-12 0 -12 12v101q0 7 3 15l214 445q3 6 -4 6h-201q-12 0 -12 12v97q0 12 12 12h344q12 0 12 -12v-101q0 -7 -3 -15l-214 -445
q-3 -6 4 -6h201q12 0 12 -12v-97q0 -12 -12 -12h-344z" />
    <glyph glyph-name="zcaron" unicode="&#x17e;" horiz-adv-x="373" 
d="M126 577q-10 0 -14 8l-66 105q-8 14 8 14h83q10 0 15 -8l32 -57q3 -5 6 0l31 57q5 8 15 8h77q16 0 8 -14l-67 -105q-5 -8 -14 -8h-114zM30 0q-12 0 -12 12v108q0 8 4 15l156 246q3 6 -3 6h-139q-12 0 -12 12v103q0 12 12 12h301q12 0 12 -12v-107q0 -8 -4 -15l-162 -246
q-3 -6 3 -6h157q12 0 12 -12v-104q0 -12 -12 -12h-313z" />
    <glyph glyph-name="florin" unicode="&#x192;" horiz-adv-x="477" 
d="M216 554q14 89 64 122t165 28q12 -2 12 -13l-1 -82q0 -12 -12 -12h-29q-49 -1 -61 -65l-18 -114q0 -5 4 -5h60q12 0 12 -12v-84q0 -12 -12 -12h-77q-6 0 -6 -5l-57 -354q-14 -88 -64.5 -121.5t-165.5 -28.5q-12 2 -12 13l1 82q0 12 12 12h30q50 1 60 65l54 332q0 5 -4 5
h-44q-12 0 -12 12v84q0 12 12 12h61q6 0 6 5z" />
    <glyph glyph-name="uni01CD" unicode="&#x1cd;" horiz-adv-x="500" 
d="M317 757q-5 -8 -14 -8h-114q-9 0 -14 8l-66 104q-8 14 8 14h83q10 0 15 -8l32 -57q3 -4 6 0l31 57q5 8 15 8h77q7 0 9.5 -4t-1.5 -10zM347 0q-12 0 -13 11l-16 96q0 5 -6 5h-125q-6 0 -6 -4l-18 -97q-1 -11 -13 -11h-117q-13 0 -10 13l147 676q2 11 13 11h135
q11 0 13 -11l146 -676q3 -13 -10 -13h-120zM203 226q-1 -5 5 -5h86q4 0 4 5l-42 258q-1 3 -3 3t-3 -3z" />
    <glyph glyph-name="uni01CE" unicode="&#x1ce;" horiz-adv-x="445" 
d="M290 579q-5 -8 -14 -8h-114q-9 0 -14 8l-66 104q-8 14 8 14h83q10 0 15 -8l32 -57q3 -4 6 0l31 57q5 8 15 8h77q7 0 9.5 -4t-1.5 -10zM223 522q85 0 138 -46t53 -121v-343q0 -12 -12 -12h-117q-12 0 -12 12v22q0 3 -2 4t-4 -2q-34 -43 -102 -44q-143 0 -143 154
q0 93 51.5 128t148.5 35h46q5 0 5 5v25q0 27 -14.5 44.5t-36.5 17.5q-37 0 -43 -40q-1 -12 -13 -12l-120 1q-12 0 -12 12q5 73 57 116.5t132 43.5zM212 101q24 0 42.5 15.5t18.5 41.5v47q0 5 -5 5h-41q-27 0 -43.5 -15.5t-16.5 -42.5q0 -25 12.5 -38t32.5 -13z" />
    <glyph glyph-name="uni0218" unicode="&#x218;" horiz-adv-x="448" 
d="M228 -8q-87 0 -140.5 51t-53.5 132v32q0 12 12 12h115q12 0 12 -12v-25q0 -31 15.5 -50t39.5 -19t40 18t16 47q0 30 -19.5 51.5t-77.5 63.5q-37 27 -57 43.5t-47 45.5t-39.5 63.5t-12.5 75.5q0 85 53 136t139 51q88 0 142 -53t54 -139v-24q0 -12 -12 -12h-115
q-12 0 -12 12v27q0 31 -15.5 49.5t-41.5 18.5q-24 0 -38.5 -17.5t-14.5 -48.5q0 -30 19 -53t74 -64q47 -34 70 -53.5t47.5 -46.5t33.5 -55t9 -65q0 -88 -54 -140t-141 -52zM149 -184q-17 0 -9 14l59 101q4 8 15 8h107q7 0 9.5 -4.5t-2.5 -10.5l-76 -101q-6 -7 -15 -7h-88z
" />
    <glyph glyph-name="uni0219" unicode="&#x219;" horiz-adv-x="412" 
d="M210 -7q-85 0 -135.5 40.5t-50.5 108.5v7q0 12 12 12h110q12 0 12 -7v-8q0 -21 15 -34.5t37 -13.5q20 0 31.5 11.5t11.5 29.5q0 8 -2.5 14.5t-8.5 12.5t-11.5 10t-16 8.5t-17 7l-19.5 7.5t-19 7q-130 47 -130 158q0 73 48 115t128 42q83 0 131.5 -44t48.5 -119
q0 -12 -12 -12h-107q-12 0 -12 10v10q0 20 -13 32.5t-32 12.5q-21 0 -33 -13.5t-12 -31.5q0 -16 12.5 -29t27.5 -20.5t37 -15.5q4 -1 6 -2q31 -11 51 -21t45.5 -28t38.5 -45t13 -62q0 -69 -50.5 -109.5t-134.5 -40.5zM131 -183q-17 0 -9 14l59 101q4 8 15 8h107
q7 0 9.5 -4.5t-2.5 -10.5l-76 -101q-6 -7 -15 -7h-88z" />
    <glyph glyph-name="uni021A" unicode="&#x21a;" horiz-adv-x="456" 
d="M432 700q12 0 12 -12v-97q0 -12 -12 -12h-125q-5 0 -5 -5v-562q0 -12 -12 -12h-117q-12 0 -12 12v562q0 5 -5 5h-120q-12 0 -12 12v97q0 12 12 12h396zM100 -177q-17 0 -9 14l59 101q4 8 15 8h107q7 0 9.5 -4.5t-2.5 -10.5l-76 -101q-6 -7 -15 -7h-88z" />
    <glyph glyph-name="uni021B" unicode="&#x21b;" horiz-adv-x="291" 
d="M210 0q-73 0 -110 24.5t-37 93.5v292q0 5 -5 5h-33q-12 0 -12 12v75q0 12 12 12h33q5 0 5 5v111q0 12 12 12h112q12 0 12 -12v-111q0 -5 5 -5h56q12 0 12 -12v-75q0 -12 -12 -12h-56q-5 0 -5 -5v-238q0 -29 11 -40t33 -10h7q12 0 12 -12v-98q0 -12 -12 -12h-40zM145 -52
q4 8 15 8h107q7 0 9.5 -4.5t-2.5 -10.5l-76 -101q-6 -7 -15 -7h-88q-17 0 -9 14z" />
    <glyph glyph-name="uni0228" unicode="&#x228;" horiz-adv-x="438" 
d="M411 591q0 -12 -12 -12h-209q-5 0 -5 -5v-158q0 -5 5 -5h120q12 0 12 -12v-97q0 -12 -12 -12h-120q-5 0 -5 -5v-159q0 -5 5 -5h209q12 0 12 -12v-97q0 -12 -12 -12h-122q-7 0 -3 -6q43 -50 30 -109q-6 -26 -22.5 -41t-37.5 -18t-39 -2t-35 6q-9 3 -8 14l6 46q1 12 14 10
q27 -4 33 24q6 33 -34 73q-3 3 -7 3h-118q-12 0 -12 12v676q0 12 12 12h343q12 0 12 -12v-97z" />
    <glyph glyph-name="uni0229" unicode="&#x229;" horiz-adv-x="436" 
d="M409 223q0 -12 -12 -12h-220q-5 0 -5 -5v-36q0 -25 13.5 -41.5t34.5 -16.5q37 0 47 44q3 13 14 11l114 -12q12 -2 11 -13q-10 -123 -134 -146q-6 -2 -2 -6q46 -53 33 -113q-6 -26 -22.5 -41t-37.5 -18t-39 -2t-35 6q-9 3 -8 14l6 46q1 12 14 10q27 -4 33 24q6 33 -39 78
q-1 1 -5 3q-66 11 -102.5 53.5t-36.5 108.5v195q0 76 50.5 122t138.5 46t138.5 -46t50.5 -122v-131zM220 401q-21 0 -34.5 -16t-13.5 -41v-35q0 -5 5 -5h86q5 0 5 5v35q0 25 -13.5 41t-34.5 16z" />
    <glyph glyph-name="circumflex" unicode="&#x2c6;" horiz-adv-x="302" 
d="M17 571q-16 0 -8 14l66 104q5 8 14 8h122q9 0 14 -8l68 -103q4 -6 2 -10.5t-9 -4.5h-87q-9 0 -14 9l-30 56q-3 4 -6 0l-30 -56q-5 -9 -15 -9h-87z" />
    <glyph glyph-name="caron" unicode="&#x2c7;" horiz-adv-x="321" 
d="M103 566q-10 0 -14 8l-66 105q-8 14 8 14h83q10 0 15 -8l32 -57q3 -4 6 0l31 57q5 8 15 8h77q16 0 8 -14l-67 -105q-5 -8 -14 -8h-114z" />
    <glyph glyph-name="uni02C9" unicode="&#x2c9;" horiz-adv-x="335" 
d="M69 581q-12 0 -12 12v72q0 12 12 12h196q12 0 12 -12v-72q0 -12 -12 -12h-196z" />
    <glyph glyph-name="breve" unicode="&#x2d8;" horiz-adv-x="268" 
d="M134 549q-50 0 -82.5 29t-36.5 77q-1 12 11 12h50q12 0 13 -12q3 -20 15 -32t30 -12t30.5 12t15.5 32q2 12 13 12h50q12 0 12 -12q-5 -48 -37.5 -77t-83.5 -29z" />
    <glyph glyph-name="dotaccent" unicode="&#x2d9;" horiz-adv-x="153" 
d="M78 563q-29 0 -46.5 18t-17.5 47t17.5 47t46.5 18q28 0 45 -18t17 -47t-17 -47t-45 -18z" />
    <glyph glyph-name="ring" unicode="&#x2da;" horiz-adv-x="248" 
d="M124 561q-46 0 -78 32.5t-32 79.5t32 78.5t78 31.5q47 0 79 -31.5t32 -78.5t-32 -79.5t-79 -32.5zM124 625q20 0 33.5 14t13.5 34t-13.5 34t-33.5 14q-19 0 -32.5 -14t-13.5 -34t13.5 -34t32.5 -14z" />
    <glyph glyph-name="ogonek" unicode="&#x2db;" horiz-adv-x="151" 
d="M144 -170q1 -11 -8 -14q-17 -5 -35 -6t-39 2t-37.5 18t-22.5 41q-15 67 43 123q6 6 15 6h63q8 0 9.5 -4.5t-4.5 -10.5q-43 -41 -37 -75q6 -28 33 -24q13 2 14 -10z" />
    <glyph glyph-name="tilde" unicode="&#x2dc;" horiz-adv-x="326" 
d="M213 580q-21 0 -54 18l-12 7l-10.5 6t-9 3.5t-10.5 1.5q-22 0 -36 -22q-7 -10 -17 -4l-42 30q-8 6 -5 16q25 69 88 69q29 0 64 -22q29 -19 41 -19q23 0 36 20q7 12 17 5l40 -28q10 -7 1 -23q-32 -58 -91 -58z" />
    <glyph glyph-name="hungarumlaut" unicode="&#x2dd;" horiz-adv-x="389" 
d="M31 582q-17 0 -9 14l58 101q4 8 15 8h105q7 0 9.5 -4.5t-2.5 -10.5l-76 -101q-6 -7 -14 -7h-86zM189 582q-17 0 -9 14l58 101q4 8 15 8h105q7 0 9.5 -4.5t-2.5 -10.5l-76 -101q-6 -7 -14 -7h-86z" />
    <glyph glyph-name="gravecomb" unicode="&#x300;" 
d="M-8 588q8 -14 -9 -14h-88q-8 0 -14 7l-77 101q-5 6 -2.5 10.5t9.5 4.5h107q11 0 15 -8z" />
    <glyph glyph-name="acutecomb" unicode="&#x301;" 
d="M-190 574q-17 0 -9 14l59 101q4 8 15 8h107q7 0 9.5 -4.5t-2.5 -10.5l-76 -101q-6 -7 -15 -7h-88z" />
    <glyph glyph-name="uni0302" unicode="&#x302;" 
d="M-287 571q-16 0 -8 14l66 104q5 8 14 8h122q9 0 14 -8l68 -103q4 -6 2 -10.5t-9 -4.5h-87q-9 0 -14 9l-30 56q-3 4 -6 0l-30 -56q-5 -9 -15 -9h-87z" />
    <glyph glyph-name="tildecomb" unicode="&#x303;" 
d="M-99 580q-21 0 -54 18l-12 7l-10.5 6t-9 3.5t-10.5 1.5q-22 0 -36 -22q-7 -10 -17 -4l-42 30q-8 6 -5 16q25 69 88 69q29 0 64 -22q29 -19 41 -19q23 0 36 20q7 12 17 5l40 -28q10 -7 1 -23q-32 -58 -91 -58z" />
    <glyph glyph-name="uni0304" unicode="&#x304;" 
d="M-266 581q-12 0 -12 12v72q0 12 12 12h196q12 0 12 -12v-72q0 -12 -12 -12h-196z" />
    <glyph glyph-name="uni0306" unicode="&#x306;" 
d="M-134 543q-50 0 -82.5 29t-36.5 77q-1 12 11 12h50q12 0 13 -12q3 -20 15 -32t30 -12t30.5 12t15.5 32q2 12 13 12h50q12 0 12 -12q-5 -48 -37.5 -77t-83.5 -29z" />
    <glyph glyph-name="uni0307" unicode="&#x307;" 
d="M-62 563q-29 0 -46.5 18t-17.5 47t17.5 47t46.5 18q28 0 45 -18t17 -47t-17 -47t-45 -18z" />
    <glyph glyph-name="uni0308" unicode="&#x308;" 
d="M-237 568q-31 0 -50.5 20t-19.5 51t19.5 51t50.5 20t49.5 -19.5t18.5 -51.5t-18.5 -51.5t-49.5 -19.5zM-69 568q-31 0 -50 19.5t-19 51.5t19 51.5t50 19.5t50 -19.5t19 -51.5t-19 -51.5t-50 -19.5z" />
    <glyph glyph-name="uni030A" unicode="&#x30a;" 
d="M-111 561q-46 0 -78 32.5t-32 79.5t31.5 78.5t78.5 31.5t79 -31.5t32 -78.5t-32 -79.5t-79 -32.5zM-111 625q20 0 33.5 14t13.5 34t-13.5 34t-33.5 14q-19 0 -32.5 -14t-13.5 -34t13.5 -34t32.5 -14z" />
    <glyph glyph-name="uni030B" unicode="&#x30b;" 
d="M-335 572q-15 0 -9 14l47 100q4 9 14 9h96q15 0 8 -14l-53 -100q-4 -9 -14 -9h-89zM-177 572q-15 0 -8 14l53 100q4 9 14 9h89q15 0 8 -14l-53 -100q-4 -9 -14 -9h-89z" />
    <glyph glyph-name="uni030C" unicode="&#x30c;" 
d="M-218 564q-9 0 -14 8l-66 104q-8 14 8 14h83q10 0 15 -8l32 -57q3 -5 6 0l31 57q5 8 15 8h77q7 0 9.5 -4t-1.5 -10l-67 -104q-5 -8 -14 -8h-114z" />
    <glyph glyph-name="uni0312" unicode="&#x312;" 
d="M-31 692q17 0 9 -14l-59 -101q-4 -8 -15 -8h-107q-7 0 -9.5 4.5t2.5 10.5l76 101q6 7 15 7h88z" />
    <glyph glyph-name="uni0313" unicode="&#x313;" 
d="M-190 574q-17 0 -9 14l59 101q4 8 15 8h107q7 0 9.5 -4.5t-2.5 -10.5l-76 -101q-6 -7 -15 -7h-88z" />
    <glyph glyph-name="uni0326" unicode="&#x326;" 
d="M-203 -176q-17 0 -9 14l59 101q4 8 15 8h107q7 0 9.5 -4.5t-2.5 -10.5l-76 -101q-6 -7 -15 -7h-88z" />
    <glyph glyph-name="uni0327" unicode="&#x327;" 
d="M-136 -184q-9 3 -8 14l6 46q1 12 14 10q27 -4 33 24q6 34 -37 75q-6 6 -4.5 10.5t9.5 4.5h63q9 0 15 -6q58 -56 43 -123q-6 -26 -22.5 -41t-37.5 -18t-39 -2t-35 6z" />
    <glyph glyph-name="uni0328" unicode="&#x328;" 
d="M-7 -170q1 -11 -8 -14q-17 -5 -35 -6t-39 2t-37.5 18t-22.5 41q-15 67 43 123q6 6 15 6h63q8 0 9.5 -4.5t-4.5 -10.5q-43 -41 -37 -75q6 -28 33 -24q13 2 14 -10z" />
    <glyph glyph-name="uni0335" unicode="&#x335;" 
d="M-298 628q0 12 12 12h274q12 0 12 -12v-61q0 -12 -12 -12h-274q-12 0 -12 12v61z" />
    <glyph glyph-name="uni0336" unicode="&#x336;" 
d="M-475 509q-12 0 -12 12v72q0 12 12 12h463q12 0 12 -12v-72q0 -12 -12 -12h-463z" />
    <glyph glyph-name="uni0337" unicode="&#x337;" 
d="M-329 128q-10 -8 -17 1l-54 63q-8 10 1 17l381 313q10 8 17 -1l53 -63q8 -10 -1 -17z" />
    <glyph glyph-name="uni0338" unicode="&#x338;" 
d="M-400 -37q-15 0 -9 14l331 754q4 9 14 9h49q15 0 9 -14l-333 -754q-4 -9 -14 -9h-47z" />
    <glyph glyph-name="uni0394" unicode="&#x394;" horiz-adv-x="558" 
d="M32 0q-12 0 -12 12v101q0 6 3 15l203 562q3 10 13 10h80q10 0 13 -10l203 -563q3 -9 3 -15v-100q0 -12 -12 -12h-494zM160 128q-2 -6 4 -6h230q6 0 4 6l-116 382q-1 6 -4 3q-2 -1 -2 -3z" />
    <glyph glyph-name="uni03A9" unicode="&#x3a9;" horiz-adv-x="496" 
d="M46 0q-12 0 -12 12v97q0 12 12 12h35q9 0 3 6q-37 47 -37 116v267q0 90 55 144t147 54q91 0 146.5 -54t55.5 -144v-267q0 -71 -37 -116q-6 -6 3 -6h33q12 0 12 -12v-97q0 -12 -12 -12h-174q-12 0 -12 12v99q0 9 10 13q36 15 36 67v325q0 32 -16.5 51.5t-44.5 19.5
t-44.5 -19.5t-16.5 -51.5v-325q0 -50 35 -66q10 -5 10 -13v-100q0 -12 -12 -12h-175z" />
    <glyph glyph-name="uni03BC" unicode="&#x3bc;" horiz-adv-x="450" 
d="M271 502q0 12 12 12h117q12 0 12 -12v-490q0 -12 -12 -12h-117q-12 0 -12 12v18q0 9 -6 1q-26 -35 -81 -38q-5 0 -5 -5v-176q0 -12 -12 -12h-117q-12 0 -12 12v308q-1 7 -1 22v360q0 12 12 12h118q12 0 12 -12v-345q6 -44 44 -44q22 0 35 17t13 46v326z" />
    <glyph glyph-name="pi" unicode="&#x3c0;" horiz-adv-x="538" 
d="M514 406q0 -12 -12 -12h-40q-5 0 -5 -5v-213q0 -37 10 -47.5t28 -8.5q12 0 12 -12v-96q0 -12 -12 -12q-26 -4 -57 -2t-58.5 7.5t-46 30t-17.5 64.5v289q0 5 -5 5h-84q-5 0 -5 -5v-377q0 -12 -12 -12h-117q-12 0 -12 12v377q0 5 -5 5h-40q-12 0 -12 12v96q0 12 12 12h466
q12 0 12 -12v-96z" />
    <glyph glyph-name="Wgrave" unicode="&#x1e80;" horiz-adv-x="689" 
d="M389 774q8 -14 -9 -14h-88q-8 0 -14 7l-77 101q-5 6 -2.5 10.5t9.5 4.5h107q11 0 15 -8zM169 0q-11 0 -13 11l-135 676q-3 13 10 13h122q12 0 13 -11l57 -360q1 -6 4 -3q2 1 2 3l54 360q1 11 13 11h101q12 0 13 -11l59 -360q1 -6 4 -3q2 1 2 3l51 360q1 11 13 11h118
q13 0 11 -13l-127 -676q-1 -11 -13 -11h-108q-12 0 -13 11l-59 370q-1 6 -4 3q-2 -1 -2 -3l-53 -370q-1 -11 -13 -11h-107z" />
    <glyph glyph-name="wgrave" unicode="&#x1e81;" horiz-adv-x="613" 
d="M357 588q8 -14 -9 -14h-88q-8 0 -14 7l-77 101q-5 6 -2.5 10.5t9.5 4.5h107q11 0 15 -8zM137 0q-11 0 -13 11l-107 490q-3 13 11 13h111q12 0 13 -11l42 -293q1 -6 4 -3q2 1 2 3l44 293q1 11 13 11h100q12 0 13 -11l45 -293q1 -6 4 -3q2 1 2 3l43 293q1 11 13 11l110 -1
q13 0 10 -13l-107 -489q-2 -11 -13 -11h-114q-12 0 -13 11l-43 254q-1 3 -3 3t-3 -3l-42 -254q-1 -11 -13 -11h-109z" />
    <glyph glyph-name="Wacute" unicode="&#x1e82;" horiz-adv-x="689" 
d="M277 760q-17 0 -9 14l59 101q4 8 15 8h107q7 0 9.5 -4.5t-2.5 -10.5l-76 -101q-6 -7 -15 -7h-88zM169 0q-11 0 -13 11l-135 676q-3 13 10 13h122q12 0 13 -11l57 -360q1 -6 4 -3q2 1 2 3l54 360q1 11 13 11h101q12 0 13 -11l59 -360q1 -6 4 -3q2 1 2 3l51 360q1 11 13 11
h118q13 0 11 -13l-127 -676q-1 -11 -13 -11h-108q-12 0 -13 11l-59 370q-1 6 -4 3q-2 -1 -2 -3l-53 -370q-1 -11 -13 -11h-107z" />
    <glyph glyph-name="wacute" unicode="&#x1e83;" horiz-adv-x="613" 
d="M245 574q-17 0 -9 14l59 101q4 8 15 8h107q7 0 9.5 -4.5t-2.5 -10.5l-76 -101q-6 -7 -15 -7h-88zM137 0q-11 0 -13 11l-107 490q-3 13 11 13h111q12 0 13 -11l42 -293q1 -6 4 -3q2 1 2 3l44 293q1 11 13 11h100q12 0 13 -11l45 -293q1 -6 4 -3q2 1 2 3l43 293q1 11 13 11
l110 -1q13 0 10 -13l-107 -489q-2 -11 -13 -11h-114q-12 0 -13 11l-43 254q-1 3 -3 3t-3 -3l-42 -254q-1 -11 -13 -11h-109z" />
    <glyph glyph-name="Wdieresis" unicode="&#x1e84;" horiz-adv-x="689" 
d="M256 754q-31 0 -50.5 20t-19.5 51t19.5 51t50.5 20t49.5 -19.5t18.5 -51.5t-18.5 -51.5t-49.5 -19.5zM424 754q-31 0 -50 19.5t-19 51.5t19 51.5t50 19.5t50 -19.5t19 -51.5t-19 -51.5t-50 -19.5zM169 0q-11 0 -13 11l-135 676q-3 13 10 13h122q12 0 13 -11l57 -360
q1 -6 4 -3q2 1 2 3l54 360q1 11 13 11h101q12 0 13 -11l59 -360q1 -6 4 -3q2 1 2 3l51 360q1 11 13 11h118q13 0 11 -13l-127 -676q-1 -11 -13 -11h-108q-12 0 -13 11l-59 370q-1 6 -4 3q-2 -1 -2 -3l-53 -370q-1 -11 -13 -11h-107z" />
    <glyph glyph-name="wdieresis" unicode="&#x1e85;" horiz-adv-x="613" 
d="M224 568q-31 0 -50.5 20t-19.5 51t19.5 51t50.5 20t49.5 -19.5t18.5 -51.5t-18.5 -51.5t-49.5 -19.5zM392 568q-31 0 -50 19.5t-19 51.5t19 51.5t50 19.5t50 -19.5t19 -51.5t-19 -51.5t-50 -19.5zM137 0q-11 0 -13 11l-107 490q-3 13 11 13h111q12 0 13 -11l42 -293
q1 -6 4 -3q2 1 2 3l44 293q1 11 13 11h100q12 0 13 -11l45 -293q1 -6 4 -3q2 1 2 3l43 293q1 11 13 11l110 -1q13 0 10 -13l-107 -489q-2 -11 -13 -11h-114q-12 0 -13 11l-43 254q-1 3 -3 3t-3 -3l-42 -254q-1 -11 -13 -11h-109z" />
    <glyph glyph-name="Ygrave" unicode="&#x1ef2;" horiz-adv-x="474" 
d="M288 773q8 -14 -9 -14h-88q-8 0 -14 7l-77 101q-5 6 -2.5 10.5t9.5 4.5h107q11 0 15 -8zM178 1q-12 0 -12 12v260q0 3 -1 6l-140 407q-5 14 10 14h123q11 0 14 -10l62 -239q1 -3 3 -3t3 3l62 239q3 10 14 10h123q15 0 10 -14l-141 -407q-1 -3 -1 -6v-260q0 -12 -12 -12
h-117z" />
    <glyph glyph-name="ygrave" unicode="&#x1ef3;" horiz-adv-x="422" 
d="M262 588q8 -14 -9 -14h-88q-8 0 -14 7l-77 101q-5 6 -2.5 10.5t9.5 4.5h107q11 0 15 -8zM38 -199q-6 0 -6 12v92q0 12 5 12h5q50 0 72 16t26 64q0 1 -0.5 3t-0.5 3l-126 498q-3 13 11 13h126q12 0 13 -11l46 -297q1 -6 4 -3q2 1 2 3l44 297q1 11 13 11l126 -1
q14 0 11 -13l-132 -519q-20 -73 -41.5 -108t-66 -53.5t-125.5 -18.5h-6z" />
    <glyph glyph-name="endash" unicode="&#x2013;" horiz-adv-x="380" 
d="M36 224q-12 0 -12 12v97q0 12 12 12h309q12 0 12 -12v-97q0 -12 -12 -12h-309z" />
    <glyph glyph-name="emdash" unicode="&#x2014;" horiz-adv-x="593" 
d="M36 224q-12 0 -12 12v97q0 12 12 12h521q12 0 12 -12v-97q0 -12 -12 -12h-521z" />
    <glyph glyph-name="quoteleft" unicode="&#x2018;" horiz-adv-x="188" 
d="M14 474q-14 0 -9 14l68 202q3 10 13 10h89q13 0 10 -13l-41 -202q-2 -11 -13 -11h-117z" />
    <glyph glyph-name="quoteright" unicode="&#x2019;" horiz-adv-x="188" 
d="M174 700q14 0 9 -14l-68 -202q-3 -10 -13 -10h-89q-13 0 -10 13l41 202q2 11 13 11h117z" />
    <glyph glyph-name="quotesinglbase" unicode="&#x201a;" horiz-adv-x="600" 
d="M42 -98q-14 0 -12 13l22 232q2 11 12 11h102q14 0 11 -13l-53 -232q-3 -11 -13 -11h-69z" />
    <glyph glyph-name="quotedblleft" unicode="&#x201c;" horiz-adv-x="352" 
d="M15 474q-15 0 -10 14l70 202q3 10 13 10h84q13 0 10 -13l-43 -202q-2 -11 -13 -11h-111zM183 474q-14 0 -9 14l68 202q3 10 13 10h84q13 0 10 -13l-41 -202q-2 -11 -13 -11h-112z" />
    <glyph glyph-name="quotedblright" unicode="&#x201d;" horiz-adv-x="352" 
d="M169 700q14 0 9 -14l-68 -202q-3 -10 -13 -10h-84q-13 0 -10 13l41 202q2 11 13 11h112zM337 700q15 0 10 -14l-70 -202q-3 -10 -13 -10h-84q-13 0 -10 13l43 202q2 11 13 11h111z" />
    <glyph glyph-name="quotedblbase" unicode="&#x201e;" horiz-adv-x="349" 
d="M169 128q14 0 9 -14l-68 -202q-3 -10 -13 -10h-84q-13 0 -10 13l41 202q2 11 13 11h112zM337 128q15 0 10 -14l-70 -202q-3 -10 -13 -10h-84q-13 0 -10 13l43 202q2 11 13 11h111z" />
    <glyph glyph-name="dagger" unicode="&#x2020;" horiz-adv-x="366" 
d="M331 460q12 0 12 -12v-82q0 -12 -12 -12h-72q-5 0 -5 -5v-537q0 -12 -12 -12h-117q-12 0 -12 12v537q0 5 -5 5h-72q-12 0 -12 12v82q0 12 12 12h72q5 0 5 5v223q0 12 12 12h117q12 0 12 -12v-223q0 -5 5 -5h72z" />
    <glyph glyph-name="daggerdbl" unicode="&#x2021;" horiz-adv-x="366" 
d="M343 366q0 -12 -12 -12h-72q-5 0 -5 -5v-198q0 -5 5 -5h72q12 0 12 -12v-82q0 -12 -12 -12h-72q-5 0 -5 -5v-223q0 -12 -12 -12h-117q-12 0 -12 12v223q0 5 -5 5h-72q-12 0 -12 12v82q0 12 12 12h72q5 0 5 5v198q0 5 -5 5h-72q-12 0 -12 12v82q0 12 12 12h72q5 0 5 5v223
q0 12 12 12h117q12 0 12 -12v-223q0 -5 5 -5h72q12 0 12 -12v-82z" />
    <glyph glyph-name="bullet" unicode="&#x2022;" horiz-adv-x="306" 
d="M154 146q-54 0 -92 38.5t-38 92.5t38 91.5t92 37.5q53 0 91 -37.5t38 -91.5t-38 -92.5t-91 -38.5z" />
    <glyph glyph-name="ellipsis" unicode="&#x2026;" horiz-adv-x="754" 
d="M130 -4q-37 0 -61 25t-24 62q0 35 26 60.5t59 25.5t59 -25.5t26 -60.5q0 -37 -24 -62t-61 -25zM373 -4q-37 0 -61 25t-24 62q0 35 26 60.5t59 25.5t59 -25.5t26 -60.5q0 -37 -24 -62t-61 -25zM616 -4q-37 0 -61 25t-24 62q0 35 26 60.5t59 25.5t59 -25.5t26 -60.5
q0 -37 -24 -62t-61 -25z" />
    <glyph glyph-name="perthousand" unicode="&#x2030;" horiz-adv-x="1018" 
d="M136 275q-54 0 -87 34t-33 89v187q0 55 33 89t87 34t87 -34t33 -89v-187q0 -55 -33 -89t-87 -34zM128 0q-16 0 -8 14l407 678q4 8 14 8h75q16 0 8 -14l-407 -678q-4 -8 -14 -8h-75zM136 353q13 0 21 11t8 29v197q0 18 -8 29t-21 11t-21 -11t-8 -29v-197q0 -18 8 -29
t21 -11zM610 -7q-54 0 -87 34t-33 89v187q0 55 33 89t87 34t87 -34t33 -89v-187q0 -55 -33 -89t-87 -34zM882 -7q-54 0 -87 34t-33 89v187q0 55 33 89t87 34t87 -34t33 -89v-187q0 -55 -33 -89t-87 -34zM610 71q13 0 21 11t8 29v197q0 18 -8 29t-21 11t-21 -11t-8 -29v-197
q0 -18 8 -29t21 -11zM882 71q13 0 21 11t8 29v197q0 18 -8 29t-21 11t-21 -11t-8 -29v-197q0 -18 8 -29t21 -11z" />
    <glyph glyph-name="guilsinglleft" unicode="&#x2039;" horiz-adv-x="292" 
d="M240 121q7 -14 -8 -14h-97q-9 0 -14 9l-81 157q-5 8 0 16l81 157q5 9 14 9h97q15 0 8 -14l-83 -157q-1 -3 0 -6z" />
    <glyph glyph-name="guilsinglright" unicode="&#x203a;" horiz-adv-x="300" 
d="M60 107q-15 0 -8 14l83 157q1 3 0 6l-83 157q-7 14 8 14h97q9 0 14 -9l81 -157q5 -8 0 -16l-81 -157q-5 -9 -14 -9h-97z" />
    <glyph glyph-name="fraction" unicode="&#x2044;" horiz-adv-x="220" 
d="M-134 0q-16 0 -8 14l407 678q4 8 14 8h75q16 0 8 -14l-407 -678q-4 -8 -14 -8h-75z" />
    <glyph glyph-name="uni2074" unicode="&#x2074;" horiz-adv-x="294" 
d="M274 604q12 0 12 -12v-58q0 -12 -12 -12h-12q-5 0 -5 -5v-88q0 -12 -12 -12h-67q-12 0 -12 12v88q0 5 -5 5h-142q-12 0 -12 12v46q0 9 2 15l77 232q3 10 13 10h72q13 0 10 -14l-66 -213q-1 -6 4 -6h42q5 0 5 5v51q0 12 12 12h67q12 0 12 -12v-51q0 -5 5 -5h12z" />
    <glyph glyph-name="uni2075" unicode="&#x2075;" horiz-adv-x="261" 
d="M246 584q3 -16 3 -37q0 -16 -2 -38q-3 -46 -34.5 -72t-82.5 -26t-81.5 24.5t-34.5 73.5q0 10 -1 16q0 12 12 12h66q9 0 12 -8q0 -4 1 -6v-7q3 -26 26 -26q21 0 26 26q2 18 2 32q0 12 -2 28q-5 26 -26 26q-18 0 -24 -15q-5 -10 -14 -10h-68q-12 0 -12 12v235q0 12 12 12
h209q12 0 12 -12v-54q0 -12 -12 -12h-125q-5 0 -5 -5v-86q0 -7 6 -3q22 17 49 17q39 0 62 -25.5t26 -71.5z" />
    <glyph glyph-name="uni2076" unicode="&#x2076;" horiz-adv-x="267" 
d="M251 584q3 -16 3 -37t-3 -41q-2 -45 -33 -70t-82 -25q-100 0 -115 93q-3 16 -3 36l-1 193q-1 50 31.5 79t85.5 29q51 0 83 -29t32 -79v-15q0 -12 -12 -12h-68q-12 0 -12 11v11q0 14 -7 23.5t-16 9.5q-11 0 -18.5 -9.5t-7.5 -23.5v-63q0 -8 6 -2q21 18 49 18
q39 0 62.5 -25.5t25.5 -71.5zM159 514q3 24 3 40q0 14 -3 38q-5 24 -24 24q-20 0 -25 -25q-2 -32 -2 -37q0 -6 2 -38q5 -26 25 -26q21 0 24 24z" />
    <glyph glyph-name="uni2077" unicode="&#x2077;" horiz-adv-x="247" 
d="M59 417q-13 0 -10 14l94 322q1 6 -4 6h-55q-5 0 -5 -5v-24q0 -12 -12 -12h-49q-12 0 -12 12v95q0 12 12 12h211q12 0 12 -12v-59q0 -4 -2 -14l-97 -325q-3 -10 -13 -10h-70z" />
    <glyph glyph-name="uni2078" unicode="&#x2078;" horiz-adv-x="266" 
d="M208 638q-4 -4 0 -7q23 -14 33 -42q9 -24 9 -51q0 -22 -9 -51q-12 -34 -41 -55t-67 -21t-66.5 20.5t-41.5 55.5q-9 23 -9 51q0 30 9 52q8 25 32 41q5 3 0 6q-23 16 -32 43q-9 22 -9 47q0 28 9 47q13 33 41.5 51.5t66.5 18.5t67 -18t41 -52q9 -23 9 -47t-9 -47
q-11 -27 -33 -42zM106 700q3 -32 27 -32q21 0 26 32q1 5 1 18q0 12 -1 17q-5 31 -26 31q-24 0 -27 -31v-35zM159 522v22v23q-3 32 -26 32q-25 0 -27 -32v-45q2 -32 27 -32q23 0 26 32z" />
    <glyph glyph-name="uni2079" unicode="&#x2079;" horiz-adv-x="267" 
d="M250 519q1 -50 -31.5 -79t-85.5 -29q-51 0 -83 29t-32 79v15q0 12 12 12h68q12 0 12 -11v-11q0 -14 7 -23.5t16 -9.5q11 0 18.5 9.5t7.5 23.5v63q0 8 -6 2q-21 -18 -49 -18q-39 0 -62.5 25.5t-25.5 71.5q-3 17 -3 37q0 21 3 41q2 45 33 70t82 25q100 0 115 -93
q3 -16 3 -36zM132 636q20 0 25 25q2 32 2 37q0 6 -2 38q-5 26 -25 26q-21 0 -24 -24t-3 -40q0 -14 3 -38q5 -24 24 -24z" />
    <glyph glyph-name="franc" unicode="&#x20a3;" horiz-adv-x="479" 
d="M468 591q0 -12 -12 -12h-208q-5 0 -5 -5v-158q0 -5 5 -5h119q12 0 12 -12v-97q0 -12 -12 -12h-119q-5 0 -5 -5v-77q0 -5 5 -5h82q12 0 12 -12v-61q0 -12 -12 -12h-82q-5 0 -5 -5v-101q0 -12 -12 -12h-117q-12 0 -12 12v101q0 5 -5 5h-41q-12 0 -12 12v61q0 12 12 12h41
q5 0 5 5v480q0 12 12 12h342q12 0 12 -12v-97z" />
    <glyph glyph-name="Euro" unicode="&#x20ac;" horiz-adv-x="500" 
d="M285 113q37 0 44 48q1 13 13 11l114 -16q13 -2 10 -14q-13 -70 -61 -110t-120 -40q-84 0 -134.5 53.5t-50.5 143.5v62q0 5 -5 5h-49q-12 0 -12 12v50q0 12 12 12h49q5 0 5 5v28q0 5 -5 5h-49q-12 0 -12 12v50q0 12 12 12h49q5 0 5 5v66q0 90 50.5 142.5t134.5 52.5
q75 0 123.5 -41t59.5 -115q3 -11 -10 -13l-116 -14q-11 -2 -13 12q-2 23 -14 36.5t-30 13.5q-20 0 -32 -18t-12 -47v-75q0 -5 5 -5h141q13 0 10 -14l-15 -50q-3 -10 -13 -10h-123q-5 0 -5 -5v-28q0 -5 5 -5h110q14 0 10 -14l-16 -50q-3 -10 -13 -10h-91q-5 0 -5 -5v-74
q0 -29 12 -46.5t32 -17.5z" />
    <glyph glyph-name="uni20BA" unicode="&#x20ba;" horiz-adv-x="580" 
d="M537 282q12 0 12 -12q-2 -116 -71 -189.5t-206 -78.5q-84 -2 -126 -2q-12 0 -12 12v262q0 6 -6 4l-60 -18q-11 -3 -14 8l-17 54q-3 12 9 15l84 26q4 2 4 5v42q0 6 -6 4l-60 -18q-11 -3 -14 8l-17 54q-3 12 9 15l84 26q4 2 4 5v184q0 12 12 12h117q12 0 12 -12v-140
q0 -6 6 -4l127 39q12 3 15 -9l16 -53q3 -12 -8 -15l-152 -46q-4 -2 -4 -5v-42q0 -6 6 -4l127 39q11 3 15 -9l17 -54q3 -12 -9 -15l-152 -46q-4 -2 -4 -5v-193q0 -5 5 -5q128 13 128 149q0 12 12 12h117z" />
    <glyph glyph-name="uni20BD" unicode="&#x20bd;" horiz-adv-x="529" 
d="M327 283h-75q-5 0 -5 -5v-51q0 -5 5 -5h155q12 0 12 -12v-55q0 -12 -12 -12h-155q-5 0 -5 -5v-126q0 -12 -12 -12h-117q-12 0 -12 12v126q0 5 -5 5h-44q-12 0 -12 12v55q0 12 12 12h44q5 0 5 5v51q0 5 -5 5h-45q-12 0 -12 12v86q0 12 12 12h45q5 0 5 5v291q0 12 12 12
h202q84 0 136 -59t52 -154q0 -93 -50 -149t-131 -56zM252 579q-5 0 -5 -5v-176q0 -5 5 -5h45q31 0 50.5 24.5t19.5 67.5q0 44 -19.5 69t-50.5 25h-45z" />
    <glyph glyph-name="uni2113" unicode="&#x2113;" horiz-adv-x="433" 
d="M317 124q9 11 17 1l56 -60q8 -9 1 -17q-47 -56 -139 -56q-71 0 -112 45.5t-41 126.5v24q0 7 -6 3l-17 -11q-12 -8 -16 5l-23 69q-3 10 6 16q10 6 29 19.5t24 16.5q3 2 3 6l-1 191q0 75 41.5 139t117.5 65q61 1 98.5 -40t37.5 -107q0 -80 -46 -147.5t-130 -134.5
q-3 -2 -3 -6v-87q0 -87 51 -87q32 0 52 26zM255 608q-43 -5 -42 -127v-70q0 -9 6 -3q70 73 70 140q0 63 -34 60z" />
    <glyph glyph-name="trademark" unicode="&#x2122;" horiz-adv-x="542" 
d="M24 634q-12 0 -12 12v42q0 12 12 12h207q12 0 12 -12v-42q0 -12 -12 -12h-62q-5 0 -5 -5v-268q0 -12 -12 -12h-52q-12 0 -12 12v268q0 5 -5 5h-59zM442 692q5 8 15 8h52q12 0 12 -12v-327q0 -12 -12 -12h-53q-12 0 -12 12v215q0 4 -2 4t-4 -3l-32 -56q-5 -8 -7 -8t-7 8
l-33 58q-4 5 -6 -1v-217q0 -12 -12 -12h-52q-12 0 -12 12v327q0 12 12 12h53q10 0 15 -8l39 -70q3 -4 6 0z" />
    <glyph glyph-name="uni2126" unicode="&#x2126;" horiz-adv-x="496" 
d="M46 0q-12 0 -12 12v97q0 12 12 12h35q9 0 3 6q-37 47 -37 116v267q0 90 55 144t147 54q91 0 146.5 -54t55.5 -144v-267q0 -71 -37 -116q-6 -6 3 -6h33q12 0 12 -12v-97q0 -12 -12 -12h-174q-12 0 -12 12v99q0 9 10 13q36 15 36 67v325q0 32 -16.5 51.5t-44.5 19.5
t-44.5 -19.5t-16.5 -51.5v-325q0 -50 35 -66q10 -5 10 -13v-100q0 -12 -12 -12h-175z" />
    <glyph glyph-name="estimated" unicode="&#x212e;" horiz-adv-x="808" 
d="M403 708q161 0 265.5 -102.5t104.5 -258.5q0 -4 -12 -4h-607q-5 0 -5 -5v-200q0 -3 2 -7q96 -104 252 -104q91 0 171.5 46.5t121.5 120.5q6 9 15 9h16q16 0 9 -14q-44 -88 -135.5 -142.5t-197.5 -54.5q-160 0 -264.5 100.5t-104.5 254.5q0 156 104.5 258.5t264.5 102.5z
M152 569q-2 -4 -2 -7v-179q0 -5 5 -5h497q5 0 5 5v178q0 3 -2 7q-97 105 -252 105t-251 -104z" />
    <glyph glyph-name="oneeighth" unicode="&#x215b;" horiz-adv-x="694" 
d="M139 292q0 -12 -12 -12h-67q-12 0 -12 12v323q0 4 -5 4l-14 -1q-13 -2 -13 11v43q0 10 8 15l17 9q7 4 15 4h71q12 0 12 -12v-396zM470 692q4 8 14 8h75q16 0 8 -14l-407 -678q-4 -8 -14 -8h-75q-16 0 -8 14zM636 221q-4 -4 0 -7q23 -14 33 -42q9 -24 9 -51q0 -22 -9 -51
q-12 -34 -41 -55t-67 -21t-66.5 20.5t-41.5 55.5q-9 23 -9 51q0 30 9 52q8 25 32 41q5 3 0 6q-23 16 -32 43q-9 23 -9 47q0 28 9 47q13 33 41.5 51.5t66.5 18.5t67 -18t41 -52q9 -23 9 -47t-9 -47q-11 -27 -33 -42zM534 283q3 -32 27 -32q21 0 26 32q1 5 1 18q0 12 -1 17
q-5 31 -26 31q-24 0 -27 -31v-35zM587 105v7v8.5v6.5v23q-3 32 -26 32q-25 0 -27 -32v-45q2 -32 27 -32q23 0 26 32z" />
    <glyph glyph-name="threeeighths" unicode="&#x215c;" horiz-adv-x="771" 
d="M547 692q4 8 14 8h75q16 0 8 -14l-407 -678q-4 -8 -14 -8h-75q-16 0 -8 14zM260 369q-3 -43 -33.5 -69t-78.5 -26q-51 0 -84 28.5t-35 73.5q-1 9 -1 26q0 12 12 12h66q12 0 12 -12q0 -7 1 -12q3 -37 29 -37q22 0 27 30q4 28 4 40q0 13 -2 37q-5 32 -29 32q-8 0 -15 -5
q-11 -8 -17 0l-32 34q-8 9 0 17l68 78q5 6 -3 6h-101q-12 0 -12 12v53q0 12 12 12h200q12 0 12 -12v-57q0 -10 -5 -15l-52 -63q-4 -6 2 -7q23 -9 38.5 -35.5t17.5 -57.5q2 -26 2 -39q0 -26 -3 -44zM713 221q-4 -4 0 -7q23 -14 33 -42q9 -24 9 -51q0 -22 -9 -51
q-12 -34 -41 -55t-67 -21t-66.5 20.5t-41.5 55.5q-9 23 -9 51q0 30 9 52q8 25 32 41q4 3 0 6q-23 16 -32 43q-9 23 -9 47q0 28 9 47q13 33 41.5 51.5t66.5 18.5t67 -18t41 -52q9 -23 9 -47t-9 -47q-10 -27 -33 -42zM611 283q3 -32 27 -32q21 0 26 32q1 5 1 18q0 12 -1 17
q-5 31 -26 31q-24 0 -27 -31v-35zM664 105v7v8.5v6.5v23q-3 32 -26 32q-25 0 -27 -32v-45q2 -32 27 -32q23 0 26 32z" />
    <glyph glyph-name="fiveeighths" unicode="&#x215d;" horiz-adv-x="742" 
d="M518 692q4 8 14 8h75q16 0 8 -14l-407 -678q-4 -8 -14 -8h-75q-16 0 -8 14zM247 372q-3 -46 -34.5 -72t-82.5 -26t-81.5 24.5t-34.5 73.5q0 10 -1 16q0 12 12 12h66q9 0 12 -8q0 -4 1 -6v-7q3 -26 26 -26q21 0 26 26q2 18 2 32q0 12 -2 28q-5 26 -26 26q-18 0 -24 -15
q-5 -10 -14 -10h-68q-12 0 -12 12v235q0 12 12 12h209q12 0 12 -12v-54q0 -12 -12 -12h-125q-5 0 -5 -5v-86q0 -7 6 -3q22 17 49 17q39 0 62 -25.5t26 -71.5q3 -16 3 -37q0 -16 -2 -38zM684 221q-4 -4 0 -7q23 -14 33 -42q9 -24 9 -51q0 -22 -9 -51q-12 -34 -41 -55t-67 -21
t-66.5 20.5t-41.5 55.5q-9 23 -9 51q0 30 9 52q8 25 32 41q5 3 0 6q-23 16 -32 43q-9 23 -9 47q0 28 9 47q13 33 41.5 51.5t66.5 18.5t67 -18t41 -52q9 -23 9 -47t-9 -47q-11 -27 -33 -42zM582 283q3 -32 27 -32q21 0 26 32q1 5 1 18q0 12 -1 17q-5 31 -26 31q-24 0 -27 -31
v-35zM635 105v7v8.5v6.5v23q-3 32 -26 32q-25 0 -27 -32v-45q2 -32 27 -32q23 0 26 32z" />
    <glyph glyph-name="seveneighths" unicode="&#x215e;" horiz-adv-x="711" 
d="M142 290q-3 -10 -13 -10h-70q-13 0 -10 14l94 322q1 6 -4 6h-55q-5 0 -5 -5v-24q0 -12 -12 -12h-49q-12 0 -12 12v95q0 12 12 12h211q12 0 12 -12v-59q0 -4 -2 -14zM487 692q4 8 14 8h75q16 0 8 -14l-407 -678q-4 -8 -14 -8h-75q-16 0 -8 14zM653 221q-4 -4 0 -7
q23 -14 33 -42q9 -24 9 -51q0 -22 -9 -51q-12 -34 -41 -55t-67 -21t-66.5 20.5t-41.5 55.5q-9 23 -9 51q0 30 9 52q8 25 32 41q4 3 0 6q-23 16 -32 43q-9 23 -9 47q0 28 9 47q13 33 41.5 51.5t66.5 18.5t67 -18t41 -52q9 -23 9 -47t-9 -47q-10 -27 -33 -42zM551 283
q3 -32 27 -32q21 0 26 32q1 5 1 18q0 12 -1 17q-5 31 -26 31q-24 0 -27 -31v-35zM604 105v7v8.5v6.5v23q-3 32 -26 32q-25 0 -27 -32v-45q2 -32 27 -32q23 0 26 32z" />
    <glyph glyph-name="partialdiff" unicode="&#x2202;" horiz-adv-x="522" 
d="M401 619q52 -67 71 -181.5t4 -206.5q-15 -103 -73 -171t-161 -68q-94 0 -152.5 57t-58.5 168q0 61 19 107.5t50 73t66 39t72 11.5q47 -2 91 -23q6 -1 6 4q-16 68 -39 99q-27 38 -67 42q-52 7 -96 -26q-12 -8 -16 4l-38 100q-5 11 6 16q86 45 154 41q100 -4 162 -86z
M254 113q82 0 92 152q0 4 -1 6q-12 30 -37.5 46t-51.5 16q-36 0 -60 -31t-24 -85q0 -48 22.5 -76t59.5 -28z" />
    <glyph glyph-name="uni2206" unicode="&#x2206;" horiz-adv-x="558" 
d="M32 0q-12 0 -12 12v100q0 6 3 15l203 563q3 10 13 10h80q10 0 13 -10l203 -564q3 -9 3 -15v-99q0 -12 -12 -12h-494zM160 127q-2 -6 4 -6h230q6 0 4 6l-116 382q-1 6 -4 3q-2 -1 -2 -3z" />
    <glyph glyph-name="product" unicode="&#x220f;" horiz-adv-x="481" 
d="M425 800q12 0 12 -12v-976q0 -12 -12 -12h-117q-12 0 -12 12v862q0 5 -5 5h-101q-5 0 -5 -5v-862q0 -12 -12 -12h-117q-12 0 -12 12v976q0 12 12 12h369z" />
    <glyph glyph-name="summation" unicode="&#x2211;" horiz-adv-x="501" 
d="M56 -200q-12 0 -12 12v101q0 7 3 15l188 388q1 4 0 6l-186 321q-4 7 -4 15v101q0 12 12 12h405q12 0 12 -12v-97q0 -12 -12 -12h-281q-6 0 -3 -6l192 -317q5 -10 1 -16l-194 -384q-3 -6 4 -6h281q12 0 12 -12v-97q0 -12 -12 -12h-406z" />
    <glyph glyph-name="minus" unicode="&#x2212;" horiz-adv-x="438" 
d="M36 256q-12 0 -12 12v82q0 12 12 12h367q12 0 12 -12v-82q0 -12 -12 -12h-367z" />
    <glyph glyph-name="uni2215" unicode="&#x2215;" horiz-adv-x="457" 
d="M29 0q-14 0 -9 14l290 677q4 9 14 9h104q14 0 9 -14l-289 -677q-4 -9 -14 -9h-105z" />
    <glyph glyph-name="uni2219" unicode="&#x2219;" horiz-adv-x="306" 
d="M154 167q-54 0 -92 38.5t-38 91.5q0 54 38 91.5t92 37.5t91.5 -37.5t37.5 -91.5q0 -53 -38 -91.5t-91 -38.5z" />
    <glyph glyph-name="radical" unicode="&#x221a;" horiz-adv-x="728" 
d="M163 -200q-10 0 -13 10l-132 387q-3 11 7 15l108 36q11 4 15 -8l60 -203q1 -4 3.5 -3.5t3.5 3.5l166 747q2 11 13 11h284q12 0 12 -12v-97q0 -12 -12 -12h-183q-4 0 -5 -4l-198 -859q-3 -11 -13 -11h-116z" />
    <glyph glyph-name="infinity" unicode="&#x221e;" horiz-adv-x="658" 
d="M472 504q70 0 116 -52.5t46 -132.5q0 -81 -46.5 -132.5t-118.5 -51.5q-75 0 -141 86q-3 4 -7 0q-65 -86 -139 -86q-66 0 -112 53.5t-46 132.5t46 131t114 52q75 0 138 -84q3 -4 7 -1q67 85 143 85zM183 243q17 0 34 16t45 58q1 4 0 8q-26 40 -41.5 55.5t-35.5 15.5
q-22 0 -37.5 -20.5t-15.5 -54.5t15 -56t36 -22zM471 243q24 0 39.5 20.5t15.5 55.5q0 34 -15 55.5t-37 21.5q-41 0 -88 -73q-2 -5 2 -11q24 -37 42.5 -53t40.5 -16z" />
    <glyph glyph-name="integral" unicode="&#x222b;" horiz-adv-x="336" 
d="M31 -203q-13 0 -13 12l1 82q0 12 12 12h13q50 1 50 65l2 586q1 86 45 116.5t163 32.5q12 0 12 -12v-82q0 -12 -12 -12h-15q-49 -1 -51 -65l-1 -586q-1 -86 -44.5 -116.5t-161.5 -32.5z" />
    <glyph glyph-name="approxequal" unicode="&#x2248;" horiz-adv-x="490" 
d="M328 328q-32 0 -82 27q-4 3 -14 9t-15 8.5l-12.5 6.5t-14.5 5.5t-14 1.5q-38 0 -64 -37q-7 -10 -16 -4l-63 38q-9 6 -6 16q16 47 53.5 77.5t82.5 30.5q37 0 79 -25q52 -32 76 -32q30 0 54 35q7 10 17 4l67 -41q10 -6 5 -17q-24 -45 -58 -74t-75 -29zM328 118
q-32 0 -82 27q-4 3 -14 9t-15 8.5l-12.5 6.5t-14.5 5.5t-14 1.5q-38 0 -64 -37q-7 -10 -16 -4l-63 38q-9 6 -6 16q16 47 53.5 77.5t82.5 30.5q37 0 79 -25q52 -32 76 -32q30 0 54 35q7 10 17 4l67 -41q10 -6 5 -17q-24 -45 -58 -74t-75 -29z" />
    <glyph glyph-name="notequal" unicode="&#x2260;" horiz-adv-x="438" 
d="M415 367q0 -12 -12 -12h-123q-4 0 -6 -4l-29 -68q-2 -6 4 -6h154q12 0 12 -12v-82q0 -12 -12 -12h-201q-4 0 -6 -4l-34 -82q-4 -9 -14 -9h-60q-14 0 -9 14l32 75q2 6 -4 6h-71q-12 0 -12 12v82q0 12 12 12h118q4 0 6 4l29 68q2 6 -4 6h-149q-12 0 -12 12v82q0 12 12 12
h196q4 0 6 4l31 75q4 9 14 9h60q14 0 9 -14l-29 -68q-2 -6 4 -6h76q12 0 12 -12v-82z" />
    <glyph glyph-name="lessequal" unicode="&#x2264;" horiz-adv-x="438" 
d="M414 151q0 -7 -4 -10t-10 0l-368 170q-9 5 -9 14v101q0 10 9 14l368 170q6 3 10 0t4 -10v-109q0 -9 -9 -14l-240 -98q-6 -3 0 -6l240 -99q9 -4 9 -14v-109zM414 23q0 -12 -12 -12h-367q-12 0 -12 12v82q0 12 12 12h367q12 0 12 -12v-82z" />
    <glyph glyph-name="greaterequal" unicode="&#x2265;" horiz-adv-x="438" 
d="M38 141q-6 -3 -10 0t-4 10v109q0 10 9 14l240 99q6 3 0 6l-240 98q-9 5 -9 14v109q0 7 4 10t10 0l368 -170q9 -4 9 -14v-101q0 -9 -9 -14zM36 11q-12 0 -12 12v82q0 12 12 12h367q12 0 12 -12v-82q0 -12 -12 -12h-367z" />
    <glyph glyph-name="lozenge" unicode="&#x25ca;" horiz-adv-x="443" 
d="M184 -54q-11 0 -14 10l-143 386q-3 8 0 16l144 386q3 10 14 10h74q11 0 14 -10l143 -386q3 -8 0 -16l-142 -386q-3 -10 -14 -10h-76zM219 97q1 -3 3 -3t3 3l83 250q1 3 0 6l-83 244q-1 3 -3 3t-3 -3l-84 -244q-1 -3 0 -6z" />
    <glyph glyph-name="i.loclTRK" horiz-adv-x="217" 
d="M107 575q-29 0 -46.5 18t-17.5 47t17.5 47t46.5 18q28 0 45 -18t17 -47t-17 -47t-45 -18zM49 0q-12 0 -12 12v490q0 12 12 12h117q12 0 12 -12v-490q0 -12 -12 -12h-117z" />
    <glyph glyph-name="a.alt" horiz-adv-x="445" 
d="M266 502q0 12 12 12h117q12 0 12 -12v-490q0 -12 -12 -12h-117q-12 0 -12 12v18q0 3 -2 4t-4 -2q-33 -40 -93 -40q-69 0 -99.5 42t-33.5 125q-2 20 -2 98v94q2 86 35 128.5t102 42.5q58 0 91 -42q6 -8 6 1v21zM219 112q42 0 47 54v164q0 3 -0.5 9t-0.5 9
q-2 25 -13.5 39.5t-31.5 14.5q-41 0 -46 -53q-2 -29 -2 -91t1 -92q2 -25 13.5 -39.5t32.5 -14.5z" />
    <glyph glyph-name="a.sc" horiz-adv-x="471" 
d="M319 0q-12 0 -13 11l-11 67q0 5 -6 5h-109q-5 0 -6 -4l-14 -68q-2 -11 -13 -11h-116q-14 0 -11 13l133 554q3 10 14 10h135q11 0 14 -10l134 -554q3 -13 -11 -13h-120zM197 197q-1 -5 5 -5h67q5 0 4 5l-32 188q-1 3 -3 3t-3 -3z" />
    <glyph glyph-name="aacute.sc" horiz-adv-x="471" 
d="M346 760q7 0 9.5 -4.5t-2.5 -10.5l-76 -101q-6 -7 -15 -7h-88q-17 0 -9 14l59 101q4 8 15 8h107zM319 0q-12 0 -13 11l-11 67q0 5 -6 5h-109q-5 0 -6 -4l-14 -68q-2 -11 -13 -11h-116q-14 0 -11 13l133 554q3 10 14 10h135q11 0 14 -10l134 -554q3 -13 -11 -13h-120z
M197 197q-1 -5 5 -5h67q5 0 4 5l-32 188q-1 3 -3 3t-3 -3z" />
    <glyph glyph-name="abreve.sc" horiz-adv-x="471" 
d="M235 606q-50 0 -82.5 29t-36.5 77q-2 12 11 12h50q11 0 13 -12q3 -20 15 -32t30 -12t30.5 12t15.5 32q1 12 13 12h50q12 0 12 -12q-5 -48 -37.5 -77t-83.5 -29zM319 0q-12 0 -13 11l-11 67q0 5 -6 5h-109q-5 0 -6 -4l-14 -68q-2 -11 -13 -11h-116q-14 0 -11 13l133 554
q3 10 14 10h135q11 0 14 -10l134 -554q3 -13 -11 -13h-120zM197 197q-1 -5 5 -5h67q5 0 4 5l-32 188q-1 3 -3 3t-3 -3z" />
    <glyph glyph-name="uni01CE.sc" horiz-adv-x="471" 
d="M302 634q-5 -8 -14 -8h-114q-9 0 -14 8l-66 104q-8 14 8 14h83q10 0 15 -8l32 -57q3 -5 6 0l31 57q5 8 15 8h77q7 0 9.5 -4t-1.5 -10zM319 0q-12 0 -13 11l-11 67q0 5 -6 5h-109q-5 0 -6 -4l-14 -68q-2 -11 -13 -11h-116q-14 0 -11 13l133 554q3 10 14 10h135
q11 0 14 -10l134 -554q3 -13 -11 -13h-120zM197 197q-1 -5 5 -5h67q5 0 4 5l-32 188q-1 3 -3 3t-3 -3z" />
    <glyph glyph-name="acircumflex.sc" horiz-adv-x="471" 
d="M237 699q-3 5 -6 0l-30 -56q-5 -9 -15 -9h-87q-16 0 -8 14l66 104q5 8 14 8h122q9 0 14 -8l68 -103q4 -6 2 -10.5t-9 -4.5h-87q-9 0 -14 9zM319 0q-12 0 -13 11l-11 67q0 5 -6 5h-109q-5 0 -6 -4l-14 -68q-2 -11 -13 -11h-116q-14 0 -11 13l133 554q3 10 14 10h135
q11 0 14 -10l134 -554q3 -13 -11 -13h-120zM197 197q-1 -5 5 -5h67q5 0 4 5l-32 188q-1 3 -3 3t-3 -3z" />
    <glyph glyph-name="adieresis.sc" horiz-adv-x="471" 
d="M153 631q-31 0 -50.5 20t-19.5 51t19.5 51t50.5 20t49.5 -19.5t18.5 -51.5t-18.5 -51.5t-49.5 -19.5zM321 631q-31 0 -50 19.5t-19 51.5t19 51.5t50 19.5t50 -19.5t19 -51.5t-19 -51.5t-50 -19.5zM319 0q-12 0 -13 11l-11 67q0 5 -6 5h-109q-5 0 -6 -4l-14 -68
q-2 -11 -13 -11h-116q-14 0 -11 13l133 554q3 10 14 10h135q11 0 14 -10l134 -554q3 -13 -11 -13h-120zM197 197q-1 -5 5 -5h67q5 0 4 5l-32 188q-1 3 -3 3t-3 -3z" />
    <glyph glyph-name="agrave.sc" horiz-adv-x="471" 
d="M286 651q8 -14 -9 -14h-88q-8 0 -14 7l-77 101q-5 6 -2.5 10.5t9.5 4.5h107q11 0 15 -8zM319 0q-12 0 -13 11l-11 67q0 5 -6 5h-109q-5 0 -6 -4l-14 -68q-2 -11 -13 -11h-116q-14 0 -11 13l133 554q3 10 14 10h135q11 0 14 -10l134 -554q3 -13 -11 -13h-120zM197 197
q-1 -5 5 -5h67q5 0 4 5l-32 188q-1 3 -3 3t-3 -3z" />
    <glyph glyph-name="amacron.sc" horiz-adv-x="471" 
d="M329 740q12 0 12 -12v-72q0 -12 -12 -12h-196q-12 0 -12 12v72q0 12 12 12h196zM319 0q-12 0 -13 11l-11 67q0 5 -6 5h-109q-5 0 -6 -4l-14 -68q-2 -11 -13 -11h-116q-14 0 -11 13l133 554q3 10 14 10h135q11 0 14 -10l134 -554q3 -13 -11 -13h-120zM197 197q-1 -5 5 -5
h67q5 0 4 5l-32 188q-1 3 -3 3t-3 -3z" />
    <glyph glyph-name="aogonek.sc" horiz-adv-x="477" 
d="M433 -114q13 2 14 -9l6 -47q1 -11 -8 -14q-17 -5 -35 -6t-39 2t-37.5 18t-22.5 41q-14 65 42 123q3 2 2 4t-4 2h-32q-12 0 -13 11l-11 67q0 5 -6 5h-109q-5 0 -6 -4l-14 -68q-2 -11 -13 -11h-116q-14 0 -11 13l133 554q3 10 14 10h135q11 0 14 -10l135 -558q2 -10 -5 -15
q-53 -47 -46 -84q6 -28 33 -24zM197 197q-1 -5 5 -5h67q5 0 4 5l-32 188q-1 3 -3 3t-3 -3z" />
    <glyph glyph-name="aring.sc" horiz-adv-x="471" 
d="M235 624q-46 0 -78 32.5t-32 79.5q0 46 31.5 78t78.5 32t79 -31.5t32 -78.5t-32 -79.5t-79 -32.5zM235 784q-19 0 -32.5 -14t-13.5 -34t13.5 -34t32.5 -14q20 0 33.5 14t13.5 34t-13.5 34t-33.5 14zM319 0q-12 0 -13 11l-11 67q0 5 -6 5h-109q-5 0 -6 -4l-14 -68
q-2 -11 -13 -11h-116q-14 0 -11 13l133 554q3 10 14 10h135q11 0 14 -10l134 -554q3 -13 -11 -13h-120zM197 197q-1 -5 5 -5h67q5 0 4 5l-32 188q-1 3 -3 3t-3 -3z" />
    <glyph glyph-name="atilde.sc" horiz-adv-x="471" 
d="M206 679q-22 0 -36 -22q-7 -10 -17 -4l-42 30q-8 6 -5 16q25 69 88 69q29 0 64 -22q28 -19 41 -19q23 0 36 20q7 12 17 5l40 -28q9 -6 5 -16q-31 -65 -95 -65q-21 0 -54 18l-12 7l-10.5 6t-9 3.5t-10.5 1.5zM319 0q-12 0 -13 11l-11 67q0 5 -6 5h-109q-5 0 -6 -4l-14 -68
q-2 -11 -13 -11h-116q-14 0 -11 13l133 554q3 10 14 10h135q11 0 14 -10l134 -554q3 -13 -11 -13h-120zM197 197q-1 -5 5 -5h67q5 0 4 5l-32 188q-1 3 -3 3t-3 -3z" />
    <glyph glyph-name="ae.sc" horiz-adv-x="713" 
d="M691 468q0 -12 -12 -12h-189q-5 0 -5 -5v-96q0 -5 5 -5h104q12 0 12 -12v-97q0 -12 -12 -12h-104q-5 0 -5 -5v-98q0 -5 5 -5h189q12 0 12 -12v-97q0 -12 -12 -12h-323q-12 0 -12 12v66q0 5 -5 5h-132q-4 0 -6 -4l-31 -70q-4 -9 -14 -9h-123q-15 0 -9 14l256 554q4 9 14 9
h385q12 0 12 -12v-97zM254 198q-2 -6 3 -6h82q5 0 5 5v191q0 4 -2 4t-4 -3z" />
    <glyph glyph-name="b.sc" horiz-adv-x="437" 
d="M418 164q1 -79 -52.5 -121.5t-137.5 -42.5h-179q-12 0 -12 12v553q0 12 12 12h157q94 0 148 -40t54 -121q0 -80 -60 -114q-5 -3 -1 -6q68 -42 71 -132zM183 456q-5 0 -5 -5v-104q0 -5 5 -5h28q61 0 61 57t-61 57h-28zM217 122q28 0 44 15.5t16 45.5q0 29 -16 46.5
t-43 17.5h-35q-5 0 -5 -5v-115q0 -5 5 -5h34z" />
    <glyph glyph-name="c.sc" horiz-adv-x="433" 
d="M218 -7q-86 0 -137.5 48t-51.5 133v230q0 85 51 132.5t138 47.5q86 0 137.5 -47.5t51.5 -132.5v-5q0 -12 -12 -12l-117 -5q-12 0 -12 12v21q0 48 -48 48t-48 -48v-253q0 -48 48 -48t48 48v22q0 11 12 11l117 -5q12 0 12 -8v-8q0 -84 -51.5 -132.5t-137.5 -48.5z" />
    <glyph glyph-name="cacute.sc" horiz-adv-x="433" 
d="M157 644q-17 0 -9 14l59 101q4 8 15 8h107q7 0 9.5 -4.5t-2.5 -10.5l-76 -101q-6 -7 -15 -7h-88zM218 -7q-86 0 -137.5 48t-51.5 133v230q0 85 51 132.5t138 47.5q86 0 137.5 -47.5t51.5 -132.5v-5q0 -12 -12 -12l-117 -5q-12 0 -12 12v21q0 48 -48 48t-48 -48v-253
q0 -48 48 -48t48 48v22q0 11 12 11l117 -5q12 0 12 -8v-8q0 -84 -51.5 -132.5t-137.5 -48.5z" />
    <glyph glyph-name="ccaron.sc" horiz-adv-x="433" 
d="M157 633q-9 0 -14 8l-66 104q-8 14 8 14h83q10 0 15 -8l32 -57q3 -4 6 0l31 57q5 8 15 8h77q7 0 9.5 -4t-1.5 -10l-67 -104q-5 -8 -14 -8h-114zM218 -7q-86 0 -137.5 48t-51.5 133v230q0 85 51 132.5t138 47.5q86 0 137.5 -47.5t51.5 -132.5v-5q0 -12 -12 -12l-117 -5
q-12 0 -12 12v21q0 48 -48 48t-48 -48v-253q0 -48 48 -48t48 48v22q0 11 12 11l117 -5q12 0 12 -8v-8q0 -84 -51.5 -132.5t-137.5 -48.5z" />
    <glyph glyph-name="ccedilla.sc" horiz-adv-x="433" 
d="M407 396q0 -9 -12 -9l-117 -5q-12 0 -12 12v21q0 48 -48 48t-48 -48v-253q0 -48 48 -48t48 48v22q0 11 12 11l117 -5q12 0 12 -8v-8q0 -71 -37 -117t-101 -59q-6 -2 -2 -6q47 -53 34 -114q-6 -26 -22.5 -41t-37.5 -18t-39 -2t-35 6q-9 3 -8 14l6 46q1 12 14 10
q27 -4 33 24q6 34 -40 78q-1 1 -5 3q-65 14 -101.5 59.5t-36.5 116.5v230q0 85 51 132.5t138 47.5q86 0 137.5 -47.5t51.5 -132.5v-8z" />
    <glyph glyph-name="cdotaccent.sc" horiz-adv-x="433" 
d="M218 633q-29 0 -46.5 18t-17.5 47t17.5 47t46.5 18q28 0 45 -18t17 -47t-17 -47t-45 -18zM218 -7q-86 0 -137.5 48t-51.5 133v230q0 85 51 132.5t138 47.5q86 0 137.5 -47.5t51.5 -132.5v-5q0 -12 -12 -12l-117 -5q-12 0 -12 12v21q0 48 -48 48t-48 -48v-253
q0 -48 48 -48t48 48v22q0 11 12 11l117 -5q12 0 12 -8v-8q0 -84 -51.5 -132.5t-137.5 -48.5z" />
    <glyph glyph-name="d.sc" horiz-adv-x="440" 
d="M49 0q-12 0 -12 12v553q0 12 12 12h170q86 0 138.5 -44.5t52.5 -118.5v-251q0 -73 -52.5 -118t-138.5 -45h-170zM178 126q0 -5 5 -5l33 1q23 1 37.5 15t15.5 36v233q0 23 -14.5 36.5t-39.5 13.5h-32q-5 0 -5 -5v-325z" />
    <glyph glyph-name="eth.sc" horiz-adv-x="466" 
d="M245 577q86 0 138.5 -44.5t52.5 -118.5v-251q0 -73 -52.5 -118t-138.5 -45h-170q-12 0 -12 12v245q0 5 -5 5h-9q-12 0 -12 12v55q0 12 12 12h9q5 0 5 5v219q0 12 12 12h170zM295 173v233q0 23 -14.5 36.5t-39.5 13.5h-32q-5 0 -5 -5v-105q0 -5 5 -5h28q12 0 12 -12v-55
q0 -12 -12 -12h-28q-5 0 -5 -5v-131q0 -5 5 -5l33 1q23 1 37.5 15t15.5 36z" />
    <glyph glyph-name="dcaron.sc" horiz-adv-x="440" 
d="M153 630q-9 0 -14 8l-66 104q-8 14 8 14h83q10 0 15 -8l32 -57q3 -5 6 0l31 57q5 8 15 8h77q7 0 9.5 -4t-1.5 -10l-67 -104q-5 -8 -14 -8h-114zM49 0q-12 0 -12 12v553q0 12 12 12h170q86 0 138.5 -44.5t52.5 -118.5v-251q0 -73 -52.5 -118t-138.5 -45h-170zM178 126
q0 -5 5 -5l33 1q23 1 37.5 15t15.5 36v233q0 23 -14.5 36.5t-39.5 13.5h-32q-5 0 -5 -5v-325z" />
    <glyph glyph-name="dcroat.sc" horiz-adv-x="466" 
d="M245 577q86 0 138.5 -44.5t52.5 -118.5v-251q0 -73 -52.5 -118t-138.5 -45h-170q-12 0 -12 12v245q0 5 -5 5h-9q-12 0 -12 12v55q0 12 12 12h9q5 0 5 5v219q0 12 12 12h170zM295 173v233q0 23 -14.5 36.5t-39.5 13.5h-32q-5 0 -5 -5v-105q0 -5 5 -5h28q12 0 12 -12v-55
q0 -12 -12 -12h-28q-5 0 -5 -5v-131q0 -5 5 -5l33 1q23 1 37.5 15t15.5 36z" />
    <glyph glyph-name="e.sc" horiz-adv-x="406" 
d="M383 468q0 -12 -12 -12h-188q-5 0 -5 -5v-96q0 -5 5 -5h104q12 0 12 -12v-97q0 -12 -12 -12h-104q-5 0 -5 -5v-98q0 -5 5 -5h188q12 0 12 -12v-97q0 -12 -12 -12h-322q-12 0 -12 12v553q0 12 12 12h322q12 0 12 -12v-97z" />
    <glyph glyph-name="eacute.sc" horiz-adv-x="406" 
d="M320 771q7 0 9.5 -4.5t-2.5 -10.5l-76 -101q-6 -7 -15 -7h-88q-17 0 -9 14l59 101q4 8 15 8h107zM383 468q0 -12 -12 -12h-188q-5 0 -5 -5v-96q0 -5 5 -5h104q12 0 12 -12v-97q0 -12 -12 -12h-104q-5 0 -5 -5v-98q0 -5 5 -5h188q12 0 12 -12v-97q0 -12 -12 -12h-322
q-12 0 -12 12v553q0 12 12 12h322q12 0 12 -12v-97z" />
    <glyph glyph-name="ecaron.sc" horiz-adv-x="406" 
d="M276 645q-5 -8 -14 -8h-114q-9 0 -14 8l-66 104q-8 14 8 14h83q10 0 15 -8l32 -57q3 -4 6 0l31 57q5 8 15 8h77q7 0 9.5 -4t-1.5 -10zM383 468q0 -12 -12 -12h-188q-5 0 -5 -5v-96q0 -5 5 -5h104q12 0 12 -12v-97q0 -12 -12 -12h-104q-5 0 -5 -5v-98q0 -5 5 -5h188
q12 0 12 -12v-97q0 -12 -12 -12h-322q-12 0 -12 12v553q0 12 12 12h322q12 0 12 -12v-97z" />
    <glyph glyph-name="uni0229.sc" horiz-adv-x="406" 
d="M383 468q0 -12 -12 -12h-188q-5 0 -5 -5v-96q0 -5 5 -5h104q12 0 12 -12v-97q0 -12 -12 -12h-104q-5 0 -5 -5v-98q0 -5 5 -5h188q12 0 12 -12v-97q0 -12 -12 -12h-112q-7 0 -3 -6q43 -50 30 -109q-6 -26 -22.5 -41t-37.5 -18t-39 -2t-35 6q-9 3 -8 14l6 46q1 12 14 10
q27 -4 33 24q6 33 -34 73q-3 3 -7 3h-107q-12 0 -12 12v553q0 12 12 12h322q12 0 12 -12v-97z" />
    <glyph glyph-name="ecircumflex.sc" horiz-adv-x="406" 
d="M211 710q-3 4 -6 0l-30 -56q-5 -9 -15 -9h-87q-16 0 -8 14l66 104q5 8 14 8h122q9 0 14 -8l68 -103q4 -6 2 -10.5t-9 -4.5h-87q-9 0 -14 9zM383 468q0 -12 -12 -12h-188q-5 0 -5 -5v-96q0 -5 5 -5h104q12 0 12 -12v-97q0 -12 -12 -12h-104q-5 0 -5 -5v-98q0 -5 5 -5h188
q12 0 12 -12v-97q0 -12 -12 -12h-322q-12 0 -12 12v553q0 12 12 12h322q12 0 12 -12v-97z" />
    <glyph glyph-name="edieresis.sc" horiz-adv-x="406" 
d="M127 642q-31 0 -50.5 20t-19.5 51t19.5 51t50.5 20t49.5 -19.5t18.5 -51.5t-18.5 -51.5t-49.5 -19.5zM295 642q-31 0 -50 19.5t-19 51.5t19 51.5t50 19.5t50 -19.5t19 -51.5t-19 -51.5t-50 -19.5zM383 468q0 -12 -12 -12h-188q-5 0 -5 -5v-96q0 -5 5 -5h104q12 0 12 -12
v-97q0 -12 -12 -12h-104q-5 0 -5 -5v-98q0 -5 5 -5h188q12 0 12 -12v-97q0 -12 -12 -12h-322q-12 0 -12 12v553q0 12 12 12h322q12 0 12 -12v-97z" />
    <glyph glyph-name="edotaccent.sc" horiz-adv-x="406" 
d="M209 637q-29 0 -46.5 18t-17.5 47t17.5 47t46.5 18q28 0 45 -18t17 -47t-17 -47t-45 -18zM383 468q0 -12 -12 -12h-188q-5 0 -5 -5v-96q0 -5 5 -5h104q12 0 12 -12v-97q0 -12 -12 -12h-104q-5 0 -5 -5v-98q0 -5 5 -5h188q12 0 12 -12v-97q0 -12 -12 -12h-322
q-12 0 -12 12v553q0 12 12 12h322q12 0 12 -12v-97z" />
    <glyph glyph-name="egrave.sc" horiz-adv-x="406" 
d="M260 662q8 -14 -9 -14h-88q-8 0 -14 7l-77 101q-5 6 -2.5 10.5t9.5 4.5h107q11 0 15 -8zM383 468q0 -12 -12 -12h-188q-5 0 -5 -5v-96q0 -5 5 -5h104q12 0 12 -12v-97q0 -12 -12 -12h-104q-5 0 -5 -5v-98q0 -5 5 -5h188q12 0 12 -12v-97q0 -12 -12 -12h-322q-12 0 -12 12
v553q0 12 12 12h322q12 0 12 -12v-97z" />
    <glyph glyph-name="emacron.sc" horiz-adv-x="406" 
d="M303 751q12 0 12 -12v-72q0 -12 -12 -12h-196q-12 0 -12 12v72q0 12 12 12h196zM383 468q0 -12 -12 -12h-188q-5 0 -5 -5v-96q0 -5 5 -5h104q12 0 12 -12v-97q0 -12 -12 -12h-104q-5 0 -5 -5v-98q0 -5 5 -5h188q12 0 12 -12v-97q0 -12 -12 -12h-322q-12 0 -12 12v553
q0 12 12 12h322q12 0 12 -12v-97z" />
    <glyph glyph-name="eogonek.sc" horiz-adv-x="406" 
d="M383 468q0 -12 -12 -12h-188q-5 0 -5 -5v-96q0 -5 5 -5h104q12 0 12 -12v-97q0 -12 -12 -12h-104q-5 0 -5 -5v-98q0 -5 5 -5h188q12 0 12 -12v-97q0 -12 -12 -12h-116q-3 0 -7 -2q-47 -46 -40 -79q6 -28 33 -24q13 2 14 -9l6 -47q1 -11 -8 -14q-17 -5 -35 -6t-39 2
t-37.5 18t-22.5 41q-13 61 34 114q6 6 -2 6h-102q-12 0 -12 12v553q0 12 12 12h322q12 0 12 -12v-97z" />
    <glyph glyph-name="f.sc" horiz-adv-x="391" 
d="M383 468q0 -12 -12 -12h-188q-5 0 -5 -5v-96q0 -5 5 -5h105q12 0 12 -12v-97q0 -12 -12 -12h-105q-5 0 -5 -5v-212q0 -12 -12 -12h-117q-12 0 -12 12v553q0 12 12 12h322q12 0 12 -12v-97z" />
    <glyph glyph-name="g.sc" horiz-adv-x="433" 
d="M217 -7q-86 0 -137 45.5t-51 124.5v252q0 79 51 124t137 45t138 -46t52 -125v-21q0 -12 -12 -12h-117q-12 0 -12 12v23q0 23 -13 35.5t-36 12.5q-21 0 -34 -12.5t-13 -35.5v-253q0 -22 13 -34.5t34 -12.5q23 0 36 12.5t13 34.5v51q0 5 -5 5h-28q-12 0 -12 12v73
q0 12 12 12h162q12 0 12 -12v-140q0 -79 -52 -124.5t-138 -45.5z" />
    <glyph glyph-name="gbreve.sc" horiz-adv-x="433" 
d="M217 613q-50 0 -82.5 29t-36.5 77q-2 12 11 12h50q11 0 13 -12q3 -20 15 -32t30 -12t30.5 12t15.5 32q1 12 13 12h50q12 0 12 -12q-5 -48 -37.5 -77t-83.5 -29zM217 -7q-86 0 -137 45.5t-51 124.5v252q0 79 51 124t137 45t138 -46t52 -125v-21q0 -12 -12 -12h-117
q-12 0 -12 12v23q0 23 -13 35.5t-36 12.5q-21 0 -34 -12.5t-13 -35.5v-253q0 -22 13 -34.5t34 -12.5q23 0 36 12.5t13 34.5v51q0 5 -5 5h-28q-12 0 -12 12v73q0 12 12 12h162q12 0 12 -12v-140q0 -79 -52 -124.5t-138 -45.5z" />
    <glyph glyph-name="uni0123.sc" horiz-adv-x="433" 
d="M217 -7q-86 0 -137 45.5t-51 124.5v252q0 79 51 124t137 45t138 -46t52 -125v-21q0 -12 -12 -12h-117q-12 0 -12 12v23q0 23 -13 35.5t-36 12.5q-21 0 -34 -12.5t-13 -35.5v-253q0 -22 13 -34.5t34 -12.5q23 0 36 12.5t13 34.5v51q0 5 -5 5h-28q-12 0 -12 12v73
q0 12 12 12h162q12 0 12 -12v-140q0 -79 -52 -124.5t-138 -45.5zM136 -183q-17 0 -9 14l59 101q4 8 15 8h107q7 0 9.5 -4.5t-2.5 -10.5l-76 -101q-6 -7 -15 -7h-88z" />
    <glyph glyph-name="gdotaccent.sc" horiz-adv-x="433" 
d="M217 633q-29 0 -46.5 18t-17.5 47t17.5 47t46.5 18q28 0 45 -18t17 -47t-17 -47t-45 -18zM217 -7q-86 0 -137 45.5t-51 124.5v252q0 79 51 124t137 45t138 -46t52 -125v-21q0 -12 -12 -12h-117q-12 0 -12 12v23q0 23 -13 35.5t-36 12.5q-21 0 -34 -12.5t-13 -35.5v-253
q0 -22 13 -34.5t34 -12.5q23 0 36 12.5t13 34.5v51q0 5 -5 5h-28q-12 0 -12 12v73q0 12 12 12h162q12 0 12 -12v-140q0 -79 -52 -124.5t-138 -45.5z" />
    <glyph glyph-name="h.sc" horiz-adv-x="445" 
d="M267 565q0 12 12 12h117q12 0 12 -12v-553q0 -12 -12 -12h-117q-12 0 -12 12v212q0 5 -5 5h-79q-5 0 -5 -5v-212q0 -12 -12 -12h-117q-12 0 -12 12v553q0 12 12 12h117q12 0 12 -12v-210q0 -5 5 -5h79q5 0 5 5v210z" />
    <glyph glyph-name="hbar.sc" horiz-adv-x="445" 
d="M454 515q12 0 12 -12v-72q0 -12 -12 -12h-41q-5 0 -5 -5v-402q0 -12 -12 -12h-117q-12 0 -12 12v212q0 5 -5 5h-79q-5 0 -5 -5v-212q0 -12 -12 -12h-117q-12 0 -12 12v402q0 5 -5 5h-41q-12 0 -12 12v72q0 12 12 12h41q5 0 5 5v45q0 12 12 12h117q12 0 12 -12v-45
q0 -5 5 -5h79q5 0 5 5v45q0 12 12 12h117q12 0 12 -12v-45q0 -5 5 -5h41zM262 350q5 0 5 5v59q0 5 -5 5h-79q-5 0 -5 -5v-59q0 -5 5 -5h79z" />
    <glyph glyph-name="i.sc" horiz-adv-x="214" 
d="M49 0q-12 0 -12 12v553q0 12 12 12h117q12 0 12 -12v-553q0 -12 -12 -12h-117z" />
    <glyph glyph-name="iacute.sc" horiz-adv-x="214" 
d="M46 648q-17 0 -9 14l59 101q4 8 15 8h107q7 0 9.5 -4.5t-2.5 -10.5l-76 -101q-6 -7 -15 -7h-88zM49 0q-12 0 -12 12v553q0 12 12 12h117q12 0 12 -12v-553q0 -12 -12 -12h-117z" />
    <glyph glyph-name="icircumflex.sc" horiz-adv-x="214" 
d="M-29 645q-16 0 -8 14l66 104q5 8 14 8h122q9 0 14 -8l68 -103q4 -6 2 -10.5t-9 -4.5h-87q-9 0 -14 9l-30 56q-3 4 -6 0l-30 -56q-5 -9 -15 -9h-87zM49 0q-12 0 -12 12v553q0 12 12 12h117q12 0 12 -12v-553q0 -12 -12 -12h-117z" />
    <glyph glyph-name="idieresis.sc" horiz-adv-x="214" 
d="M25 642q-31 0 -50.5 20t-19.5 51t19.5 51t50.5 20t49.5 -19.5t18.5 -51.5t-18.5 -51.5t-49.5 -19.5zM193 642q-31 0 -50 19.5t-19 51.5t19 51.5t50 19.5t50 -19.5t19 -51.5t-19 -51.5t-50 -19.5zM49 0q-12 0 -12 12v553q0 12 12 12h117q12 0 12 -12v-553q0 -12 -12 -12
h-117z" />
    <glyph glyph-name="i.sc.loclTRK" horiz-adv-x="214" 
d="M107 637q-29 0 -46.5 18t-17.5 47t17.5 47t46.5 18q28 0 45 -18t17 -47t-17 -47t-45 -18zM49 0q-12 0 -12 12v553q0 12 12 12h117q12 0 12 -12v-553q0 -12 -12 -12h-117z" />
    <glyph glyph-name="igrave.sc" horiz-adv-x="214" 
d="M158 662q8 -14 -9 -14h-88q-8 0 -14 7l-77 101q-5 6 -2.5 10.5t9.5 4.5h107q11 0 15 -8zM49 0q-12 0 -12 12v553q0 12 12 12h117q12 0 12 -12v-553q0 -12 -12 -12h-117z" />
    <glyph glyph-name="ij.sc" horiz-adv-x="635" 
d="M49 0q-12 0 -12 12v553q0 12 12 12h117q12 0 12 -12v-553q0 -12 -12 -12h-117zM410 -7q-83 0 -134 45t-51 119v48q0 12 12 12h117q12 0 12 -12v-49q0 -19 12 -30.5t32 -11.5q22 0 35 11.5t13 30.5v409q0 12 12 12h117q12 0 12 -12v-408q0 -74 -51.5 -119t-137.5 -45z" />
    <glyph glyph-name="imacron.sc" horiz-adv-x="214" 
d="M5 655q-12 0 -12 12v72q0 12 12 12h196q12 0 12 -12v-72q0 -12 -12 -12h-196zM49 0q-12 0 -12 12v553q0 12 12 12h117q12 0 12 -12v-553q0 -12 -12 -12h-117z" />
    <glyph glyph-name="iogonek.sc" horiz-adv-x="217" 
d="M158 -114q13 2 14 -9l6 -47q1 -11 -8 -14q-17 -5 -35 -6t-39 2t-37.5 18t-22.5 41q-14 65 42 123q3 2 2 4t-4 2h-27q-12 0 -12 12v553q0 12 12 12h117q12 0 12 -12v-556q0 -9 -7 -15q-53 -47 -46 -84q6 -28 33 -24z" />
    <glyph glyph-name="j.sc" horiz-adv-x="421" 
d="M196 -7q-83 0 -134 45t-51 119v48q0 12 12 12h117q12 0 12 -12v-49q0 -19 12 -30.5t32 -11.5q22 0 35 11.5t13 30.5v409q0 12 12 12h117q12 0 12 -12v-408q0 -74 -51.5 -119t-137.5 -45z" />
    <glyph glyph-name="k.sc" horiz-adv-x="459" 
d="M49 0q-12 0 -12 12v553q0 12 12 12h117q12 0 12 -12v-183q0 -4 2 -4t4 3l107 188q5 8 15 8h124q15 0 8 -14l-126 -226q-2 -4 -1 -6l133 -317q5 -14 -9 -14h-124q-11 0 -14 9l-83 199q-2 8 -7 0l-27 -47q-2 -4 -2 -6v-143q0 -12 -12 -12h-117z" />
    <glyph glyph-name="uni0137.sc" horiz-adv-x="459" 
d="M49 0q-12 0 -12 12v553q0 12 12 12h117q12 0 12 -12v-183q0 -4 2 -4t4 3l107 188q5 8 15 8h124q15 0 8 -14l-126 -226q-2 -4 -1 -6l133 -317q5 -14 -9 -14h-124q-11 0 -14 9l-83 199q-2 8 -7 0l-27 -47q-2 -4 -2 -6v-143q0 -12 -12 -12h-117zM145 -176q-17 0 -9 14
l59 101q4 8 15 8h107q7 0 9.5 -4.5t-2.5 -10.5l-76 -101q-6 -7 -15 -7h-88z" />
    <glyph glyph-name="l.sc" horiz-adv-x="398" 
d="M49 0q-12 0 -12 12v553q0 12 12 12h117q12 0 12 -12v-439q0 -5 5 -5h190q12 0 12 -12v-97q0 -12 -12 -12h-324z" />
    <glyph glyph-name="lacute.sc" horiz-adv-x="398" 
d="M48 637q-17 0 -9 14l59 101q4 8 15 8h107q7 0 9.5 -4.5t-2.5 -10.5l-76 -101q-6 -7 -15 -7h-88zM49 0q-12 0 -12 12v553q0 12 12 12h117q12 0 12 -12v-439q0 -5 5 -5h190q12 0 12 -12v-97q0 -12 -12 -12h-324z" />
    <glyph glyph-name="lcaron.sc" horiz-adv-x="398" 
d="M48 626q-9 0 -14 8l-66 104q-8 14 8 14h83q10 0 15 -8l32 -57q3 -5 6 0l31 57q5 8 15 8h77q7 0 9.5 -4t-1.5 -10l-67 -104q-5 -8 -14 -8h-114zM49 0q-12 0 -12 12v553q0 12 12 12h117q12 0 12 -12v-439q0 -5 5 -5h190q12 0 12 -12v-97q0 -12 -12 -12h-324z" />
    <glyph glyph-name="uni013C.sc" horiz-adv-x="398" 
d="M49 0q-12 0 -12 12v553q0 12 12 12h117q12 0 12 -12v-439q0 -5 5 -5h190q12 0 12 -12v-97q0 -12 -12 -12h-324zM109 -176q-17 0 -9 14l59 101q4 8 15 8h107q7 0 9.5 -4.5t-2.5 -10.5l-76 -101q-6 -7 -15 -7h-88z" />
    <glyph glyph-name="lslash.sc" horiz-adv-x="571" 
d="M178 126q0 -5 5 -5h190q12 0 12 -12v-97q0 -12 -12 -12h-324q-12 0 -12 12v143q0 9 -6 3l-20 -16q-10 -8 -17 1l-44 51q-8 10 1 17l83 68q3 1 3 6v280q0 12 12 12h117q12 0 12 -12v-159q0 -9 6 -3l91 74q10 8 17 -1l43 -51q8 -10 -1 -17l-153 -126q-3 -2 -3 -6v-150z" />
    <glyph glyph-name="m.sc" horiz-adv-x="496" 
d="M49 0q-12 0 -12 12v553q0 12 12 12h115q10 0 15 -8l66 -117q3 -4 6 0l66 117q5 8 15 8h116q12 0 12 -12v-553q0 -12 -12 -12h-117q-12 0 -12 12v364q0 4 -2.5 4.5t-3.5 -3.5l-57 -111q-4 -9 -7 -9t-8 9l-57 113q-2 5 -5 3q-1 -2 -1 -4v-366q0 -12 -12 -12h-117z" />
    <glyph glyph-name="n.sc" horiz-adv-x="478" 
d="M49 0q-12 0 -12 12v553q0 12 12 12h116q11 0 14 -9l118 -292q1 -3 3.5 -2.5t2.5 4.5l-1 287q0 12 12 12h116q12 0 12 -12v-553q0 -12 -12 -12h-118q-11 0 -14 9l-117 293q-4 5 -6 -1l1 -289q0 -12 -12 -12h-115z" />
    <glyph glyph-name="nacute.sc" horiz-adv-x="478" 
d="M176 648q-17 0 -9 14l59 101q4 8 15 8h107q7 0 9.5 -4.5t-2.5 -10.5l-76 -101q-6 -7 -15 -7h-88zM49 0q-12 0 -12 12v553q0 12 12 12h116q11 0 14 -9l118 -292q1 -3 3.5 -2.5t2.5 4.5l-1 287q0 12 12 12h116q12 0 12 -12v-553q0 -12 -12 -12h-118q-11 0 -14 9l-117 293
q-4 5 -6 -1l1 -289q0 -12 -12 -12h-115z" />
    <glyph glyph-name="ncaron.sc" horiz-adv-x="478" 
d="M176 637q-9 0 -14 8l-66 104q-8 14 8 14h83q10 0 15 -8l32 -57q3 -4 6 0l31 57q5 8 15 8h77q7 0 9.5 -4t-1.5 -10l-67 -104q-5 -8 -14 -8h-114zM49 0q-12 0 -12 12v553q0 12 12 12h116q11 0 14 -9l118 -292q1 -3 3.5 -2.5t2.5 4.5l-1 287q0 12 12 12h116q12 0 12 -12
v-553q0 -12 -12 -12h-118q-11 0 -14 9l-117 293q-4 5 -6 -1l1 -289q0 -12 -12 -12h-115z" />
    <glyph glyph-name="uni0146.sc" horiz-adv-x="478" 
d="M49 0q-12 0 -12 12v553q0 12 12 12h116q11 0 14 -9l118 -292q1 -3 3.5 -2.5t2.5 4.5l-1 287q0 12 12 12h116q12 0 12 -12v-553q0 -12 -12 -12h-118q-11 0 -14 9l-117 293q-4 5 -6 -1l1 -289q0 -12 -12 -12h-115zM166 -176q-17 0 -9 14l59 101q4 8 15 8h107q7 0 9.5 -4.5
t-2.5 -10.5l-76 -101q-6 -7 -15 -7h-88z" />
    <glyph glyph-name="eng.sc" horiz-adv-x="478" 
d="M302 565q0 12 12 12h116q12 0 12 -12v-565q0 -31 -2 -50t-8.5 -41.5t-19.5 -34.5t-35 -23t-56.5 -15.5t-81.5 -3.5q-12 0 -12 12l-1 97q0 11 13 11q18 0 28.5 3t15 12t5 16.5t0.5 23.5v8v17q0 3 -1 6l-106 265q-1 3 -3.5 2.5t-2.5 -4.5l1 -289q0 -12 -12 -12h-115
q-12 0 -12 12v553q0 12 12 12h116q11 0 14 -9l118 -292q1 -3 3.5 -2.5t2.5 4.5z" />
    <glyph glyph-name="ntilde.sc" horiz-adv-x="478" 
d="M304 654q-21 0 -54 18l-12 7l-10.5 6t-9 3.5t-10.5 1.5q-22 0 -36 -22q-7 -10 -17 -4l-42 30q-8 6 -5 16q25 69 88 69q29 0 64 -22q29 -19 41 -19q23 0 36 20q7 12 17 5l40 -28q10 -7 1 -23q-32 -58 -91 -58zM49 0q-12 0 -12 12v553q0 12 12 12h116q11 0 14 -9l118 -292
q1 -3 3.5 -2.5t2.5 4.5l-1 287q0 12 12 12h116q12 0 12 -12v-553q0 -12 -12 -12h-118q-11 0 -14 9l-117 293q-4 5 -6 -1l1 -289q0 -12 -12 -12h-115z" />
    <glyph glyph-name="o.sc" horiz-adv-x="440" 
d="M220 -7q-88 0 -139.5 48.5t-51.5 133.5v227q0 86 51.5 134t139.5 48t139.5 -48t51.5 -134v-227q0 -85 -51.5 -133.5t-139.5 -48.5zM220 114q50 0 50 55v239q0 55 -50 55t-50 -55v-239q0 -55 50 -55z" />
    <glyph glyph-name="oacute.sc" horiz-adv-x="440" 
d="M159 643q-17 0 -9 14l59 101q4 8 15 8h107q7 0 9.5 -4.5t-2.5 -10.5l-76 -101q-6 -7 -15 -7h-88zM220 -7q-88 0 -139.5 48.5t-51.5 133.5v227q0 86 51.5 134t139.5 48t139.5 -48t51.5 -134v-227q0 -85 -51.5 -133.5t-139.5 -48.5zM220 114q50 0 50 55v239q0 55 -50 55
t-50 -55v-239q0 -55 50 -55z" />
    <glyph glyph-name="ocircumflex.sc" horiz-adv-x="440" 
d="M84 640q-16 0 -8 14l66 104q5 8 14 8h122q9 0 14 -8l68 -103q4 -6 2 -10.5t-9 -4.5h-87q-10 0 -14 9l-30 56q-3 5 -6 0l-30 -56q-4 -9 -15 -9h-87zM220 -7q-88 0 -139.5 48.5t-51.5 133.5v227q0 86 51.5 134t139.5 48t139.5 -48t51.5 -134v-227q0 -85 -51.5 -133.5
t-139.5 -48.5zM220 114q50 0 50 55v239q0 55 -50 55t-50 -55v-239q0 -55 50 -55z" />
    <glyph glyph-name="odieresis.sc" horiz-adv-x="440" 
d="M138 637q-31 0 -50.5 20t-19.5 51t19.5 51t50.5 20t49.5 -19.5t18.5 -51.5t-18.5 -51.5t-49.5 -19.5zM306 637q-31 0 -50 19.5t-19 51.5t19 51.5t50 19.5t50 -19.5t19 -51.5t-19 -51.5t-50 -19.5zM220 -7q-88 0 -139.5 48.5t-51.5 133.5v227q0 86 51.5 134t139.5 48
t139.5 -48t51.5 -134v-227q0 -85 -51.5 -133.5t-139.5 -48.5zM220 114q50 0 50 55v239q0 55 -50 55t-50 -55v-239q0 -55 50 -55z" />
    <glyph glyph-name="ograve.sc" horiz-adv-x="440" 
d="M271 657q8 -14 -9 -14h-88q-8 0 -14 7l-77 101q-5 6 -2.5 10.5t9.5 4.5h107q11 0 15 -8zM220 -7q-88 0 -139.5 48.5t-51.5 133.5v227q0 86 51.5 134t139.5 48t139.5 -48t51.5 -134v-227q0 -85 -51.5 -133.5t-139.5 -48.5zM220 114q50 0 50 55v239q0 55 -50 55t-50 -55
v-239q0 -55 50 -55z" />
    <glyph glyph-name="ohungarumlaut.sc" horiz-adv-x="440" 
d="M105 641q-15 0 -9 14l47 100q4 9 14 9h96q15 0 8 -14l-53 -100q-4 -9 -14 -9h-89zM263 641q-15 0 -8 14l53 100q4 9 14 9h89q15 0 8 -14l-53 -100q-4 -9 -14 -9h-89zM220 -7q-88 0 -139.5 48.5t-51.5 133.5v227q0 86 51.5 134t139.5 48t139.5 -48t51.5 -134v-227
q0 -85 -51.5 -133.5t-139.5 -48.5zM220 114q50 0 50 55v239q0 55 -50 55t-50 -55v-239q0 -55 50 -55z" />
    <glyph glyph-name="omacron.sc" horiz-adv-x="440" 
d="M118 650q-12 0 -12 12v72q0 12 12 12h196q12 0 12 -12v-72q0 -12 -12 -12h-196zM220 -7q-88 0 -139.5 48.5t-51.5 133.5v227q0 86 51.5 134t139.5 48t139.5 -48t51.5 -134v-227q0 -85 -51.5 -133.5t-139.5 -48.5zM220 114q50 0 50 55v239q0 55 -50 55t-50 -55v-239
q0 -55 50 -55z" />
    <glyph glyph-name="oslash.sc" horiz-adv-x="462" 
d="M438 685q15 0 9 -14l-67 -152q-2 -3 0 -7q31 -45 31 -110v-227q0 -85 -51.5 -133.5t-139.5 -48.5q-34 0 -64 8q-4 1 -6 -3l-36 -81q-4 -9 -14 -9h-47q-14 0 -9 14l46 106q2 4 -1 7q-60 49 -60 140v227q0 86 51.5 134t139.5 48q58 0 100 -21q5 -2 7 3l48 110q4 9 14 9h49z
M170 408v-184q0 -4 2 -4.5t4 2.5l90 205q1 4 0 6q-10 30 -46 30q-50 0 -50 -55zM270 169v87q0 4 -2 4t-4 -3l-60 -136q-2 -5 4 -6q3 -1 12 -1q50 0 50 55z" />
    <glyph glyph-name="otilde.sc" horiz-adv-x="440" 
d="M287 649q-21 0 -54 18l-12 7l-10.5 6t-9 3.5t-10.5 1.5q-22 0 -36 -22q-7 -10 -17 -4l-42 30q-8 6 -5 16q25 69 88 69q29 0 64 -22q29 -19 41 -19q23 0 36 20q7 12 17 5l40 -28q10 -7 1 -23q-32 -58 -91 -58zM220 -7q-88 0 -139.5 48.5t-51.5 133.5v227q0 86 51.5 134
t139.5 48t139.5 -48t51.5 -134v-227q0 -85 -51.5 -133.5t-139.5 -48.5zM220 114q50 0 50 55v239q0 55 -50 55t-50 -55v-239q0 -55 50 -55z" />
    <glyph glyph-name="oe.sc" horiz-adv-x="639" 
d="M616 468q0 -12 -12 -12h-188q-5 0 -5 -5v-96q0 -5 5 -5h106q12 0 12 -12v-97q0 -12 -12 -12h-106q-5 0 -5 -5v-98q0 -5 5 -5h188q12 0 12 -12v-97q0 -12 -12 -12h-322q-12 0 -12 10v2q0 7 -6 3q-35 -22 -80 -22q-63 0 -109 50t-46 132v227q0 83 46 132.5t109 49.5
q45 0 80 -22q6 -4 6 0v3q0 12 12 12h322q12 0 12 -12v-97zM220 114q50 0 50 55v239q0 55 -50 55t-50 -55v-239q0 -55 50 -55z" />
    <glyph glyph-name="p.sc" horiz-adv-x="432" 
d="M237 578q79 0 128.5 -51t49.5 -132q0 -78 -47.5 -126t-123.5 -48h-65q-5 0 -5 -5v-204q0 -12 -12 -12h-117q-12 0 -12 12v554q0 12 12 12h192zM213 330q28 0 44.5 16t16.5 47t-16.5 47.5t-44.5 16.5h-34q-5 0 -5 -5v-117q0 -5 5 -5h34z" />
    <glyph glyph-name="thorn.sc" horiz-adv-x="432" 
d="M236 468q79 0 128.5 -51t49.5 -131q0 -79 -47 -127.5t-124 -48.5h-64q-5 0 -5 -5v-93q0 -12 -12 -12h-117q-12 0 -12 12v553q0 12 12 12h117q12 0 12 -12v-92q0 -5 5 -5h57zM212 221q28 0 44.5 15.5t16.5 46.5t-16.5 47t-44.5 16h-33q-5 0 -5 -5v-115q0 -5 5 -5h33z" />
    <glyph glyph-name="q.sc" horiz-adv-x="431" 
d="M215 584q85 0 136 -50.5t51 -137.5v-214q0 -66 -29.5 -112.5t-83.5 -64.5q-4 -1 -4 -5v-62q0 -12 -12 -12h-117q-12 0 -12 12v62q0 4 -4 5q-52 19 -81.5 65t-29.5 112v214q0 87 50.5 137.5t135.5 50.5zM170 410v-243q0 -53 45 -53q46 0 46 53v243q0 53 -46 53
q-45 0 -45 -53z" />
    <glyph glyph-name="r.sc" horiz-adv-x="440" 
d="M290 0q-10 0 -13 10l-64 214q-2 4 -5 4h-25q-5 0 -5 -5v-211q0 -12 -12 -12h-117q-12 0 -12 12v554q0 12 12 12h191q79 0 128.5 -50.5t49.5 -130.5q0 -97 -73 -143q-5 -2 -3 -6l79 -234q5 -14 -9 -14h-122zM183 457q-5 0 -5 -5v-111q0 -5 5 -5h33q28 0 44.5 15.5
t16.5 44.5t-16.5 45t-44.5 16h-33z" />
    <glyph glyph-name="racute.sc" horiz-adv-x="440" 
d="M323 760q7 0 9.5 -4.5t-2.5 -10.5l-76 -101q-6 -7 -15 -7h-88q-17 0 -9 14l59 101q4 8 15 8h107zM290 0q-10 0 -13 10l-64 214q-2 4 -5 4h-25q-5 0 -5 -5v-211q0 -12 -12 -12h-117q-12 0 -12 12v554q0 12 12 12h191q79 0 128.5 -50.5t49.5 -130.5q0 -97 -73 -143
q-5 -2 -3 -6l79 -234q5 -14 -9 -14h-122zM183 457q-5 0 -5 -5v-111q0 -5 5 -5h33q28 0 44.5 15.5t16.5 44.5t-16.5 45t-44.5 16h-33z" />
    <glyph glyph-name="rcaron.sc" horiz-adv-x="440" 
d="M279 634q-5 -8 -14 -8h-114q-9 0 -14 8l-66 104q-8 14 8 14h83q10 0 15 -8l32 -57q3 -5 6 0l31 57q5 8 15 8h77q7 0 9.5 -4t-1.5 -10zM290 0q-10 0 -13 10l-64 214q-2 4 -5 4h-25q-5 0 -5 -5v-211q0 -12 -12 -12h-117q-12 0 -12 12v554q0 12 12 12h191q79 0 128.5 -50.5
t49.5 -130.5q0 -97 -73 -143q-5 -2 -3 -6l79 -234q5 -14 -9 -14h-122zM183 457q-5 0 -5 -5v-111q0 -5 5 -5h33q28 0 44.5 15.5t16.5 44.5t-16.5 45t-44.5 16h-33z" />
    <glyph glyph-name="uni0157.sc" horiz-adv-x="440" 
d="M183 228q-5 0 -5 -5v-211q0 -12 -12 -12h-117q-12 0 -12 12v554q0 12 12 12h191q79 0 128.5 -50.5t49.5 -130.5q0 -97 -73 -143q-5 -2 -3 -6l79 -234q5 -14 -9 -14h-122q-10 0 -13 10l-64 214q-2 4 -5 4h-25zM216 457h-33q-5 0 -5 -5v-111q0 -5 5 -5h33q28 0 44.5 15.5
t16.5 44.5t-16.5 45t-44.5 16zM145 -176q-17 0 -9 14l59 101q4 8 15 8h107q7 0 9.5 -4.5t-2.5 -10.5l-76 -101q-6 -7 -15 -7h-88z" />
    <glyph glyph-name="s.sc" horiz-adv-x="421" 
d="M212 -7q-82 0 -132.5 43t-50.5 110v20q0 12 12 12h115q12 0 12 -8v-9q0 -23 12.5 -35.5t32.5 -12.5q19 0 32 12t13 30t-15.5 31.5t-58.5 39.5q-9 5 -13 8q-33 20 -52.5 34t-44 37.5t-36.5 53t-12 64.5q0 73 50 117t133 44t133.5 -44.5t50.5 -116.5v-10q0 -12 -12 -12
h-115q-12 0 -12 9v9q0 21 -12.5 32.5t-32.5 11.5t-32 -10.5t-12 -29.5q0 -17 15 -31t68 -48q83 -54 116.5 -92t33.5 -96q0 -74 -51.5 -118.5t-134.5 -44.5z" />
    <glyph glyph-name="sacute.sc" horiz-adv-x="421" 
d="M147 644q-17 0 -9 14l59 101q4 8 15 8h107q7 0 9.5 -4.5t-2.5 -10.5l-76 -101q-6 -7 -15 -7h-88zM212 -7q-82 0 -132.5 43t-50.5 110v20q0 12 12 12h115q12 0 12 -8v-9q0 -23 12.5 -35.5t32.5 -12.5q19 0 32 12t13 30t-15.5 31.5t-58.5 39.5q-9 5 -13 8q-33 20 -52.5 34
t-44 37.5t-36.5 53t-12 64.5q0 73 50 117t133 44t133.5 -44.5t50.5 -116.5v-10q0 -12 -12 -12h-115q-12 0 -12 9v9q0 21 -12.5 32.5t-32.5 11.5t-32 -10.5t-12 -29.5q0 -17 15 -31t68 -48q83 -54 116.5 -92t33.5 -96q0 -74 -51.5 -118.5t-134.5 -44.5z" />
    <glyph glyph-name="scaron.sc" horiz-adv-x="421" 
d="M147 633q-9 0 -14 8l-66 104q-8 14 8 14h83q10 0 15 -8l32 -57q3 -4 6 0l31 57q5 8 15 8h77q7 0 9.5 -4t-1.5 -10l-67 -104q-5 -8 -14 -8h-114zM212 -7q-82 0 -132.5 43t-50.5 110v20q0 12 12 12h115q12 0 12 -8v-9q0 -23 12.5 -35.5t32.5 -12.5q19 0 32 12t13 30
t-15.5 31.5t-58.5 39.5q-9 5 -13 8q-33 20 -52.5 34t-44 37.5t-36.5 53t-12 64.5q0 73 50 117t133 44t133.5 -44.5t50.5 -116.5v-10q0 -12 -12 -12h-115q-12 0 -12 9v9q0 21 -12.5 32.5t-32.5 11.5t-32 -10.5t-12 -29.5q0 -17 15 -31t68 -48q83 -54 116.5 -92t33.5 -96
q0 -74 -51.5 -118.5t-134.5 -44.5z" />
    <glyph glyph-name="scedilla.sc" horiz-adv-x="421" 
d="M398 156q0 -62 -36.5 -103.5t-97.5 -54.5q-6 -2 -2 -6q46 -53 33 -114q-6 -26 -22.5 -41t-37.5 -18t-39 -2t-35 6q-9 3 -8 14l6 46q1 12 14 10q27 -4 33 24q6 34 -40 78q-1 1 -5 3q-61 13 -96.5 53t-35.5 95v20q0 12 12 12h115q12 0 12 -8v-9q0 -23 12.5 -35.5
t32.5 -12.5q19 0 32 12t13 30t-15.5 31.5t-58.5 39.5q-9 5 -13 8q-33 20 -52.5 34t-44 37.5t-36.5 53t-12 64.5q0 73 50 117t133 44t133.5 -44.5t50.5 -116.5v-10q0 -12 -12 -12h-115q-12 0 -12 9v9q0 21 -12.5 32.5t-32.5 11.5t-32 -10.5t-12 -29.5q0 -17 15 -31t68 -48
q83 -54 116.5 -92t33.5 -96z" />
    <glyph glyph-name="uni0219.sc" horiz-adv-x="421" 
d="M212 -7q-82 0 -132.5 43t-50.5 110v20q0 12 12 12h115q12 0 12 -8v-9q0 -23 12.5 -35.5t32.5 -12.5q19 0 32 12t13 30t-15.5 31.5t-58.5 39.5q-9 5 -13 8q-33 20 -52.5 34t-44 37.5t-36.5 53t-12 64.5q0 73 50 117t133 44t133.5 -44.5t50.5 -116.5v-10q0 -12 -12 -12
h-115q-12 0 -12 9v9q0 21 -12.5 32.5t-32.5 11.5t-32 -10.5t-12 -29.5q0 -17 15 -31t68 -48q83 -54 116.5 -92t33.5 -96q0 -74 -51.5 -118.5t-134.5 -44.5zM133 -183q-17 0 -9 14l59 101q4 8 15 8h107q7 0 9.5 -4.5t-2.5 -10.5l-76 -101q-6 -7 -15 -7h-88z" />
    <glyph glyph-name="t.sc" horiz-adv-x="428" 
d="M400 577q12 0 12 -12v-97q0 -12 -12 -12h-112q-5 0 -5 -5v-439q0 -12 -12 -12h-117q-12 0 -12 12v439q0 5 -5 5h-110q-12 0 -12 12v97q0 12 12 12h373z" />
    <glyph glyph-name="tbar.sc" horiz-adv-x="428" 
d="M412 468q0 -12 -12 -12h-112q-5 0 -5 -5v-88q0 -5 5 -5h62q12 0 12 -12v-61q0 -12 -12 -12h-62q-5 0 -5 -5v-256q0 -12 -12 -12h-117q-12 0 -12 12v256q0 5 -5 5h-61q-12 0 -12 12v61q0 12 12 12h61q5 0 5 5v88q0 5 -5 5h-110q-12 0 -12 12v97q0 12 12 12h373
q12 0 12 -12v-97z" />
    <glyph glyph-name="tcaron.sc" horiz-adv-x="428" 
d="M282 634q-5 -8 -14 -8h-114q-9 0 -14 8l-66 104q-8 14 8 14h83q10 0 15 -8l32 -57q3 -5 6 0l31 57q5 8 15 8h77q7 0 9.5 -4t-1.5 -10zM400 577q12 0 12 -12v-97q0 -12 -12 -12h-112q-5 0 -5 -5v-439q0 -12 -12 -12h-117q-12 0 -12 12v439q0 5 -5 5h-110q-12 0 -12 12v97
q0 12 12 12h373z" />
    <glyph glyph-name="uni0163.sc" horiz-adv-x="428" 
d="M288 456q-5 0 -5 -5v-439q0 -12 -12 -12h-6q-7 0 -3 -6q43 -50 30 -109q-6 -26 -22.5 -41t-37.5 -18t-39 -2t-35 6q-9 3 -8 14l6 46q1 12 14 10q27 -4 33 24q6 33 -34 73q-3 3 -7 3h-8q-12 0 -12 12v439q0 5 -5 5h-110q-12 0 -12 12v97q0 12 12 12h373q12 0 12 -12v-97
q0 -12 -12 -12h-112z" />
    <glyph glyph-name="uni021B.sc" horiz-adv-x="428" 
d="M15 565q0 12 12 12h373q12 0 12 -12v-97q0 -12 -12 -12h-112q-5 0 -5 -5v-439q0 -12 -12 -12h-117q-12 0 -12 12v439q0 5 -5 5h-110q-12 0 -12 12v97zM108 -176q-17 0 -9 14l59 101q4 8 15 8h107q7 0 9.5 -4.5t-2.5 -10.5l-76 -101q-6 -7 -15 -7h-88z" />
    <glyph glyph-name="u.sc" horiz-adv-x="441" 
d="M221 -7q-85 0 -136.5 49.5t-51.5 135.5v387q0 12 12 12h117q12 0 12 -12v-397q0 -25 13 -39.5t34 -14.5t33.5 14.5t12.5 39.5v397q0 12 12 12h117q12 0 12 -12v-387q0 -86 -51 -135.5t-136 -49.5z" />
    <glyph glyph-name="uacute.sc" horiz-adv-x="441" 
d="M160 648q-17 0 -9 14l59 101q4 8 15 8h107q7 0 9.5 -4.5t-2.5 -10.5l-76 -101q-6 -7 -15 -7h-88zM221 -7q-85 0 -136.5 49.5t-51.5 135.5v387q0 12 12 12h117q12 0 12 -12v-397q0 -25 13 -39.5t34 -14.5t33.5 14.5t12.5 39.5v397q0 12 12 12h117q12 0 12 -12v-387
q0 -86 -51 -135.5t-136 -49.5z" />
    <glyph glyph-name="ucircumflex.sc" horiz-adv-x="441" 
d="M85 645q-16 0 -8 14l66 104q5 8 14 8h122q9 0 14 -8l68 -103q4 -6 2 -10.5t-9 -4.5h-87q-9 0 -14 9l-30 56q-3 4 -6 0l-30 -56q-5 -9 -15 -9h-87zM221 -7q-85 0 -136.5 49.5t-51.5 135.5v387q0 12 12 12h117q12 0 12 -12v-397q0 -25 13 -39.5t34 -14.5t33.5 14.5
t12.5 39.5v397q0 12 12 12h117q12 0 12 -12v-387q0 -86 -51 -135.5t-136 -49.5z" />
    <glyph glyph-name="udieresis.sc" horiz-adv-x="441" 
d="M139 642q-31 0 -50.5 20t-19.5 51t19.5 51t50.5 20t49.5 -19.5t18.5 -51.5t-18.5 -51.5t-49.5 -19.5zM307 642q-31 0 -50 19.5t-19 51.5t19 51.5t50 19.5t50 -19.5t19 -51.5t-19 -51.5t-50 -19.5zM221 -7q-85 0 -136.5 49.5t-51.5 135.5v387q0 12 12 12h117q12 0 12 -12
v-397q0 -25 13 -39.5t34 -14.5t33.5 14.5t12.5 39.5v397q0 12 12 12h117q12 0 12 -12v-387q0 -86 -51 -135.5t-136 -49.5z" />
    <glyph glyph-name="ugrave.sc" horiz-adv-x="441" 
d="M272 662q8 -14 -9 -14h-88q-8 0 -14 7l-77 101q-5 6 -2.5 10.5t9.5 4.5h107q11 0 15 -8zM221 -7q-85 0 -136.5 49.5t-51.5 135.5v387q0 12 12 12h117q12 0 12 -12v-397q0 -25 13 -39.5t34 -14.5t33.5 14.5t12.5 39.5v397q0 12 12 12h117q12 0 12 -12v-387
q0 -86 -51 -135.5t-136 -49.5z" />
    <glyph glyph-name="uhungarumlaut.sc" horiz-adv-x="441" 
d="M106 646q-15 0 -9 14l47 100q4 9 14 9h96q15 0 8 -14l-53 -100q-5 -9 -14 -9h-89zM264 646q-15 0 -8 14l53 100q5 9 14 9h89q15 0 8 -14l-53 -100q-5 -9 -14 -9h-89zM221 -7q-85 0 -136.5 49.5t-51.5 135.5v387q0 12 12 12h117q12 0 12 -12v-397q0 -25 13 -39.5t34 -14.5
t33.5 14.5t12.5 39.5v397q0 12 12 12h117q12 0 12 -12v-387q0 -86 -51 -135.5t-136 -49.5z" />
    <glyph glyph-name="umacron.sc" horiz-adv-x="441" 
d="M119 655q-12 0 -12 12v72q0 12 12 12h196q12 0 12 -12v-72q0 -12 -12 -12h-196zM221 -7q-85 0 -136.5 49.5t-51.5 135.5v387q0 12 12 12h117q12 0 12 -12v-397q0 -25 13 -39.5t34 -14.5t33.5 14.5t12.5 39.5v397q0 12 12 12h117q12 0 12 -12v-387q0 -86 -51 -135.5
t-136 -49.5z" />
    <glyph glyph-name="uogonek.sc" horiz-adv-x="441" 
d="M267 565q0 12 12 12h117q12 0 12 -12v-387q0 -73 -36.5 -119.5t-101.5 -60.5q-4 -2 -5 -3q-44 -42 -38 -76q6 -28 33 -24q13 2 14 -9l6 -47q1 -11 -8 -14q-17 -5 -35 -6t-39 2t-37.5 18t-22.5 41q-13 59 32 112q6 6 -2 6q-63 14 -99 61.5t-36 118.5v387q0 12 12 12h117
q12 0 12 -12v-397q0 -25 13 -39.5t34 -14.5t33.5 14.5t12.5 39.5v397z" />
    <glyph glyph-name="uring.sc" horiz-adv-x="441" 
d="M221 635q-46 0 -78 32.5t-32 79.5t31.5 78.5t78.5 31.5t79 -31.5t32 -78.5t-32 -79.5t-79 -32.5zM221 699q20 0 33.5 14t13.5 34t-13.5 34t-33.5 14q-19 0 -32.5 -14t-13.5 -34t13.5 -34t32.5 -14zM221 -7q-85 0 -136.5 49.5t-51.5 135.5v387q0 12 12 12h117q12 0 12 -12
v-397q0 -25 13 -39.5t34 -14.5t33.5 14.5t12.5 39.5v397q0 12 12 12h117q12 0 12 -12v-387q0 -86 -51 -135.5t-136 -49.5z" />
    <glyph glyph-name="v.sc" horiz-adv-x="459" 
d="M171 0q-11 0 -14 10l-137 554q-3 13 11 13h127q12 0 13 -11l59 -334q1 -3 3 -3t3 3l55 334q1 11 13 11h124q14 0 11 -13l-138 -554q-3 -10 -14 -10h-116z" />
    <glyph glyph-name="w.sc" horiz-adv-x="641" 
d="M157 0q-11 0 -13 11l-124 553q-3 13 11 13h121q12 0 13 -11l47 -297q1 -3 3 -3t3 3l46 297q1 11 13 11h92q12 0 13 -11l50 -297q1 -6 4 -3q2 1 2 3l41 297q1 11 13 11h119q13 0 10 -13l-117 -553q-2 -11 -13 -11h-104q-12 0 -13 11l-49 294q-1 3 -3 3t-3 -3l-45 -294
q-1 -11 -13 -11h-104z" />
    <glyph glyph-name="wacute.sc" horiz-adv-x="641" 
d="M257 637q-17 0 -9 14l59 101q4 8 15 8h107q7 0 9.5 -4.5t-2.5 -10.5l-76 -101q-6 -7 -15 -7h-88zM157 0q-11 0 -13 11l-124 553q-3 13 11 13h121q12 0 13 -11l47 -297q1 -3 3 -3t3 3l46 297q1 11 13 11h92q12 0 13 -11l50 -297q1 -6 4 -3q2 1 2 3l41 297q1 11 13 11h119
q13 0 10 -13l-117 -553q-2 -11 -13 -11h-104q-12 0 -13 11l-49 294q-1 3 -3 3t-3 -3l-45 -294q-1 -11 -13 -11h-104z" />
    <glyph glyph-name="wcircumflex.sc" horiz-adv-x="641" 
d="M182 634q-16 0 -8 14l66 104q5 8 14 8h122q9 0 14 -8l68 -103q4 -6 2 -10.5t-9 -4.5h-87q-10 0 -14 9l-30 56q-3 5 -6 0l-30 -56q-4 -9 -15 -9h-87zM157 0q-11 0 -13 11l-124 553q-3 13 11 13h121q12 0 13 -11l47 -297q1 -3 3 -3t3 3l46 297q1 11 13 11h92q12 0 13 -11
l50 -297q1 -6 4 -3q2 1 2 3l41 297q1 11 13 11h119q13 0 10 -13l-117 -553q-2 -11 -13 -11h-104q-12 0 -13 11l-49 294q-1 3 -3 3t-3 -3l-45 -294q-1 -11 -13 -11h-104z" />
    <glyph glyph-name="wdieresis.sc" horiz-adv-x="641" 
d="M236 631q-31 0 -50.5 20t-19.5 51t19.5 51t50.5 20t49.5 -19.5t18.5 -51.5t-18.5 -51.5t-49.5 -19.5zM404 631q-31 0 -50 19.5t-19 51.5t19 51.5t50 19.5t50 -19.5t19 -51.5t-19 -51.5t-50 -19.5zM157 0q-11 0 -13 11l-124 553q-3 13 11 13h121q12 0 13 -11l47 -297
q1 -3 3 -3t3 3l46 297q1 11 13 11h92q12 0 13 -11l50 -297q1 -6 4 -3q2 1 2 3l41 297q1 11 13 11h119q13 0 10 -13l-117 -553q-2 -11 -13 -11h-104q-12 0 -13 11l-49 294q-1 3 -3 3t-3 -3l-45 -294q-1 -11 -13 -11h-104z" />
    <glyph glyph-name="wgrave.sc" horiz-adv-x="641" 
d="M369 651q8 -14 -9 -14h-88q-8 0 -14 7l-77 101q-5 6 -2.5 10.5t9.5 4.5h107q11 0 15 -8zM157 0q-11 0 -13 11l-124 553q-3 13 11 13h121q12 0 13 -11l47 -297q1 -3 3 -3t3 3l46 297q1 11 13 11h92q12 0 13 -11l50 -297q1 -6 4 -3q2 1 2 3l41 297q1 11 13 11h119
q13 0 10 -13l-117 -553q-2 -11 -13 -11h-104q-12 0 -13 11l-49 294q-1 3 -3 3t-3 -3l-45 -294q-1 -11 -13 -11h-104z" />
    <glyph glyph-name="x.sc" horiz-adv-x="446" 
d="M32 0q-15 0 -9 14l123 272q1 3 0 6l-123 271q-6 14 9 14h120q11 0 14 -9l55 -131q3 -7 6 0l54 131q3 9 14 9h119q15 0 9 -14l-123 -272q-1 -3 0 -6l123 -271q6 -14 -9 -14h-119q-11 0 -14 9l-54 131q-3 7 -6 0l-56 -131q-4 -9 -14 -9h-119z" />
    <glyph glyph-name="y.sc" horiz-adv-x="447" 
d="M164 1q-12 0 -12 12v199q0 3 -1 6l-129 345q-5 14 10 14h123q11 0 14 -10l51 -177q1 -5 4 -3q2 1 2 3l53 177q3 10 13 10h123q15 0 10 -14l-131 -345q-1 -3 -1 -6v-199q0 -12 -12 -12h-117z" />
    <glyph glyph-name="yacute.sc" horiz-adv-x="447" 
d="M162 637q-17 0 -9 14l59 101q4 8 15 8h107q7 0 9.5 -4.5t-2.5 -10.5l-76 -101q-6 -7 -15 -7h-88zM164 1q-12 0 -12 12v199q0 3 -1 6l-129 345q-5 14 10 14h123q11 0 14 -10l51 -177q1 -5 4 -3q2 1 2 3l53 177q3 10 13 10h123q15 0 10 -14l-131 -345q-1 -3 -1 -6v-199
q0 -12 -12 -12h-117z" />
    <glyph glyph-name="ycircumflex.sc" horiz-adv-x="447" 
d="M87 634q-16 0 -8 14l66 104q5 8 14 8h122q9 0 14 -8l68 -103q4 -6 2 -10.5t-9 -4.5h-87q-9 0 -14 9l-30 56q-3 5 -6 0l-30 -56q-5 -9 -15 -9h-87zM164 1q-12 0 -12 12v199q0 3 -1 6l-129 345q-5 14 10 14h123q11 0 14 -10l51 -177q1 -5 4 -3q2 1 2 3l53 177q3 10 13 10
h123q15 0 10 -14l-131 -345q-1 -3 -1 -6v-199q0 -12 -12 -12h-117z" />
    <glyph glyph-name="ydieresis.sc" horiz-adv-x="447" 
d="M141 631q-31 0 -50.5 20t-19.5 51t19.5 51t50.5 20t49.5 -19.5t18.5 -51.5t-18.5 -51.5t-49.5 -19.5zM309 631q-31 0 -50 19.5t-19 51.5t19 51.5t50 19.5t50 -19.5t19 -51.5t-19 -51.5t-50 -19.5zM164 1q-12 0 -12 12v199q0 3 -1 6l-129 345q-5 14 10 14h123q11 0 14 -10
l51 -177q1 -5 4 -3q2 1 2 3l53 177q3 10 13 10h123q15 0 10 -14l-131 -345q-1 -3 -1 -6v-199q0 -12 -12 -12h-117z" />
    <glyph glyph-name="ygrave.sc" horiz-adv-x="447" 
d="M274 651q8 -14 -9 -14h-88q-8 0 -14 7l-77 101q-5 6 -2.5 10.5t9.5 4.5h107q11 0 15 -8zM164 1q-12 0 -12 12v199q0 3 -1 6l-129 345q-5 14 10 14h123q11 0 14 -10l51 -177q1 -5 4 -3q2 1 2 3l53 177q3 10 13 10h123q15 0 10 -14l-131 -345q-1 -3 -1 -6v-199
q0 -12 -12 -12h-117z" />
    <glyph glyph-name="z.sc" horiz-adv-x="384" 
d="M29 0q-12 0 -12 12v101q0 8 4 15l198 322q3 6 -3 6h-187q-12 0 -12 12v97q0 12 12 12h324q12 0 12 -12v-101q0 -8 -4 -15l-199 -322q-3 -6 3 -6h188q12 0 12 -12v-97q0 -12 -12 -12h-324z" />
    <glyph glyph-name="zacute.sc" horiz-adv-x="384" 
d="M130 648q-17 0 -9 14l59 101q4 8 15 8h107q7 0 9.5 -4.5t-2.5 -10.5l-76 -101q-6 -7 -15 -7h-88zM29 0q-12 0 -12 12v101q0 8 4 15l198 322q3 6 -3 6h-187q-12 0 -12 12v97q0 12 12 12h324q12 0 12 -12v-101q0 -8 -4 -15l-199 -322q-3 -6 3 -6h188q12 0 12 -12v-97
q0 -12 -12 -12h-324z" />
    <glyph glyph-name="zcaron.sc" horiz-adv-x="384" 
d="M130 637q-9 0 -14 8l-66 104q-8 14 8 14h83q10 0 15 -8l32 -57q3 -4 6 0l31 57q5 8 15 8h77q7 0 9.5 -4t-1.5 -10l-67 -104q-5 -8 -14 -8h-114zM29 0q-12 0 -12 12v101q0 8 4 15l198 322q3 6 -3 6h-187q-12 0 -12 12v97q0 12 12 12h324q12 0 12 -12v-101q0 -8 -4 -15
l-199 -322q-3 -6 3 -6h188q12 0 12 -12v-97q0 -12 -12 -12h-324z" />
    <glyph glyph-name="zdotaccent.sc" horiz-adv-x="384" 
d="M191 637q-29 0 -46.5 18t-17.5 47t17.5 47t46.5 18q28 0 45 -18t17 -47t-17 -47t-45 -18zM29 0q-12 0 -12 12v101q0 8 4 15l198 322q3 6 -3 6h-187q-12 0 -12 12v97q0 12 12 12h324q12 0 12 -12v-101q0 -8 -4 -15l-199 -322q-3 -6 3 -6h188q12 0 12 -12v-97
q0 -12 -12 -12h-324z" />
    <glyph glyph-name="zero.dnom" horiz-adv-x="272" 
d="M136 -7q-54 0 -87 34t-33 89v187q0 55 33 89t87 34t87 -34t33 -89v-187q0 -55 -33 -89t-87 -34zM136 71q13 0 21 11t8 29v197q0 18 -8 29t-21 11t-21 -11t-8 -29v-197q0 -18 8 -29t21 -11z" />
    <glyph glyph-name="one.dnom" horiz-adv-x="157" 
d="M41 416q7 4 15 4h71q12 0 12 -12v-396q0 -12 -12 -12h-67q-12 0 -12 12v323q0 4 -5 4l-14 -1q-13 -2 -13 11v43q0 10 8 15z" />
    <glyph glyph-name="two.dnom" horiz-adv-x="266" 
d="M27 0q-12 0 -12 12v58q0 9 5 15q90 113 108 140q31 48 31 83q0 39 -27 39q-12 0 -20 -10t-8 -26v-20q0 -12 -12 -12h-67q-12 0 -12 12v24q2 52 34.5 81t86.5 29q53 0 84.5 -30t31.5 -93q0 -54 -29 -106q-6 -10 -79 -112q-4 -6 3 -6h100q12 0 12 -12v-54q0 -12 -12 -12
h-218z" />
    <glyph glyph-name="three.dnom" horiz-adv-x="282" 
d="M261 172q2 -26 2 -39q0 -26 -3 -44q-3 -43 -33.5 -69t-78.5 -26q-51 0 -84 28.5t-35 73.5q-1 9 -1 26q0 12 12 12h66q12 0 12 -12q0 -7 1 -12q3 -37 29 -37q22 0 27 30q4 28 4 40q0 13 -2 37q-5 32 -29 32q-8 0 -15 -5q-11 -8 -17 0l-32 34q-8 9 0 17l68 78q4 6 -3 6
h-101q-12 0 -12 12v53q0 12 12 12h200q12 0 12 -12v-57q0 -10 -5 -15l-52 -63q-4 -5 1 -7q24 -9 39.5 -35.5t17.5 -57.5z" />
    <glyph glyph-name="four.dnom" horiz-adv-x="294" 
d="M274 187q12 0 12 -12v-58q0 -12 -12 -12h-12q-5 0 -5 -5v-88q0 -12 -12 -12h-67q-12 0 -12 12v88q0 5 -5 5h-142q-12 0 -12 12v46q0 9 2 15l77 232q3 10 13 10h72q13 0 10 -14l-66 -213q-1 -6 4 -6h42q5 0 5 5v51q0 12 12 12h67q12 0 12 -12v-51q0 -5 5 -5h12z" />
    <glyph glyph-name="five.dnom" horiz-adv-x="261" 
d="M246 167q3 -16 3 -37q0 -16 -2 -38q-3 -46 -34.5 -72t-82.5 -26t-81.5 24.5t-34.5 73.5q0 10 -1 16q0 12 12 12h66q9 0 12 -8q0 -4 1 -6v-7q3 -26 26 -26q21 0 26 26q2 18 2 32q0 12 -2 28q-5 26 -26 26q-18 0 -24 -15q-5 -10 -14 -10h-68q-12 0 -12 12v235q0 12 12 12
h209q12 0 12 -12v-54q0 -12 -12 -12h-125q-5 0 -5 -5v-86q0 -7 6 -3q22 17 49 17q39 0 62 -25.5t26 -71.5z" />
    <glyph glyph-name="six.dnom" horiz-adv-x="267" 
d="M251 167q3 -16 3 -37q0 -22 -3 -41q-2 -45 -33 -70t-82 -25q-100 0 -115 93q-3 17 -3 36l-1 193q-1 50 31.5 79t85.5 29q51 0 83 -29t32 -79v-15q0 -12 -12 -12h-68q-12 0 -12 11v11q0 14 -7 23.5t-16 9.5q-11 0 -18.5 -9.5t-7.5 -23.5v-63q0 -8 6 -2q21 18 49 18
q39 0 62.5 -25.5t25.5 -71.5zM159 97q3 24 3 40q0 14 -3 38q-5 24 -24 24q-20 0 -25 -25q-2 -32 -2 -37q0 -6 2 -38q5 -26 25 -26q21 0 24 24z" />
    <glyph glyph-name="seven.dnom" horiz-adv-x="247" 
d="M59 0q-13 0 -10 14l94 322q1 6 -4 6h-55q-5 0 -5 -5v-24q0 -12 -12 -12h-49q-12 0 -12 12v95q0 12 12 12h211q12 0 12 -12v-59q0 -4 -2 -14l-97 -325q-3 -10 -13 -10h-70z" />
    <glyph glyph-name="eight.dnom" horiz-adv-x="266" 
d="M208 221q-4 -4 0 -7q23 -14 33 -42q9 -24 9 -51q0 -22 -9 -51q-12 -34 -41 -55t-67 -21t-66.5 20.5t-41.5 55.5q-9 23 -9 51q0 30 9 52q8 25 32 41q5 3 0 6q-23 16 -32 43q-9 23 -9 47q0 28 9 47q13 33 41.5 51.5t66.5 18.5t67 -18t41 -52q9 -23 9 -47t-9 -47
q-11 -27 -33 -42zM106 283q3 -32 27 -32q21 0 26 32q1 5 1 18q0 12 -1 17q-5 31 -26 31q-24 0 -27 -31v-35zM159 105v7v8.5v6.5v23q-3 32 -26 32q-25 0 -27 -32v-45q2 -32 27 -32q23 0 26 32z" />
    <glyph glyph-name="nine.dnom" horiz-adv-x="267" 
d="M250 102q1 -50 -31.5 -79t-85.5 -29q-51 0 -83 29t-32 79v15q0 12 12 12h68q12 0 12 -11v-11q0 -14 7 -23.5t16 -9.5q11 0 18.5 9.5t7.5 23.5v63q0 8 -6 2q-21 -18 -49 -18q-39 0 -62.5 25.5t-25.5 71.5q-3 17 -3 37q0 22 3 41q2 45 33 70t82 25q100 0 115 -93
q3 -16 3 -36zM132 219q20 0 25 25q2 32 2 37q0 6 -2 38q-5 26 -25 26q-21 0 -24 -24t-3 -40q0 -14 3 -38q5 -24 24 -24z" />
    <glyph glyph-name="zero.numr" horiz-adv-x="272" 
d="M136 275q-54 0 -87 34t-33 89v187q0 55 33 89t87 34t87 -34t33 -89v-187q0 -55 -33 -89t-87 -34zM136 353q13 0 21 11t8 29v197q0 18 -8 29t-21 11t-21 -11t-8 -29v-197q0 -18 8 -29t21 -11z" />
    <glyph glyph-name="one.numr" horiz-adv-x="157" 
d="M41 696q7 4 15 4h71q12 0 12 -12v-396q0 -12 -12 -12h-67q-12 0 -12 12v323q0 4 -5 4l-14 -1q-13 -2 -13 11v43q0 10 8 15z" />
    <glyph glyph-name="two.numr" horiz-adv-x="266" 
d="M27 283q-12 0 -12 12v58q0 9 5 15q90 113 108 140q31 48 31 83q0 39 -27 39q-12 0 -20 -10t-8 -26v-20q0 -12 -12 -12h-67q-12 0 -12 12v24q2 52 34.5 81t86.5 29q53 0 84.5 -30t31.5 -93q0 -54 -29 -106q-6 -10 -79 -112q-4 -6 3 -6h100q12 0 12 -12v-54q0 -12 -12 -12
h-218z" />
    <glyph glyph-name="three.numr" horiz-adv-x="282" 
d="M261 452q2 -26 2 -39q0 -26 -3 -44q-3 -43 -33.5 -69t-78.5 -26q-51 0 -84 28.5t-35 73.5q-1 9 -1 26q0 12 12 12h66q12 0 12 -12q0 -7 1 -12q3 -37 29 -37q22 0 27 30q4 28 4 40q0 13 -2 37q-5 32 -29 32q-8 0 -15 -5q-11 -8 -17 0l-32 34q-8 9 0 17l68 78q5 6 -3 6
h-101q-12 0 -12 12v53q0 12 12 12h200q12 0 12 -12v-57q0 -10 -5 -15l-52 -63q-4 -5 1 -7q24 -9 39.5 -35.5t17.5 -57.5z" />
    <glyph glyph-name="four.numr" horiz-adv-x="294" 
d="M274 467q12 0 12 -12v-58q0 -12 -12 -12h-12q-5 0 -5 -5v-88q0 -12 -12 -12h-67q-12 0 -12 12v88q0 5 -5 5h-142q-12 0 -12 12v46q0 9 2 15l77 232q3 10 13 10h72q13 0 10 -14l-66 -213q-1 -6 4 -6h42q5 0 5 5v51q0 12 12 12h67q12 0 12 -12v-51q0 -5 5 -5h12z" />
    <glyph glyph-name="five.numr" horiz-adv-x="261" 
d="M246 447q3 -16 3 -37q0 -16 -2 -38q-3 -46 -34.5 -72t-82.5 -26t-81.5 24.5t-34.5 73.5q0 10 -1 16q0 12 12 12h66q9 0 12 -8q0 -4 1 -6v-7q3 -26 26 -26q21 0 26 26q2 18 2 32q0 12 -2 28q-5 26 -26 26q-18 0 -24 -15q-5 -10 -14 -10h-68q-12 0 -12 12v235q0 12 12 12
h209q12 0 12 -12v-54q0 -12 -12 -12h-125q-5 0 -5 -5v-86q0 -7 6 -3q22 17 49 17q39 0 62 -25.5t26 -71.5z" />
    <glyph glyph-name="six.numr" horiz-adv-x="267" 
d="M251 450q3 -17 3 -37q0 -21 -3 -41q-2 -45 -33 -70t-82 -25q-100 0 -115 93q-3 16 -3 36l-1 193q-1 50 31.5 79t85.5 29q51 0 83 -29t32 -79v-15q0 -12 -12 -12h-68q-12 0 -12 11v11q0 14 -7 23.5t-16 9.5q-11 0 -18.5 -9.5t-7.5 -23.5v-63q0 -8 6 -2q21 18 49 18
q39 0 62.5 -25.5t25.5 -71.5zM159 380q3 24 3 40q0 14 -3 38q-5 24 -24 24q-20 0 -25 -25q-2 -32 -2 -37q0 -6 2 -38q5 -26 25 -26q21 0 24 24z" />
    <glyph glyph-name="seven.numr" horiz-adv-x="247" 
d="M59 280q-13 0 -10 14l94 322q1 6 -4 6h-55q-5 0 -5 -5v-24q0 -12 -12 -12h-49q-12 0 -12 12v95q0 12 12 12h211q12 0 12 -12v-59q0 -4 -2 -14l-97 -325q-3 -10 -13 -10h-70z" />
    <glyph glyph-name="eight.numr" horiz-adv-x="266" 
d="M208 501q-4 -4 0 -7q23 -14 33 -42q9 -24 9 -51q0 -22 -9 -51q-12 -34 -41 -55t-67 -21t-66.5 20.5t-41.5 55.5q-9 23 -9 51q0 30 9 52q8 25 32 41q5 3 0 6q-23 16 -32 43q-9 23 -9 47q0 28 9 47q13 33 41.5 51.5t66.5 18.5t67 -18t41 -52q9 -23 9 -47t-9 -47
q-11 -27 -33 -42zM106 563q3 -32 27 -32q21 0 26 32q1 5 1 18q0 12 -1 17q-5 31 -26 31q-24 0 -27 -31v-35zM159 385v7v8.5v6.5v23q-3 32 -26 32q-25 0 -27 -32v-45q2 -32 27 -32q23 0 26 32z" />
    <glyph glyph-name="nine.numr" horiz-adv-x="267" 
d="M250 385q1 -50 -31.5 -79t-85.5 -29q-51 0 -83 29t-32 79v15q0 12 12 12h68q12 0 12 -11v-11q0 -14 7 -23.5t16 -9.5q11 0 18.5 9.5t7.5 23.5v63q0 8 -6 2q-21 -18 -49 -18q-39 0 -62.5 25.5t-25.5 71.5q-3 16 -3 37t3 41q2 45 33 70t82 25q100 0 115 -93q3 -17 3 -36z
M132 502q20 0 25 25q2 32 2 37q0 6 -2 38q-5 26 -25 26q-21 0 -24 -24t-3 -40q0 -14 3 -38q5 -24 24 -24z" />
    <glyph glyph-name="at.alt" horiz-adv-x="791" 
d="M395 708q156 0 259 -101.5t103 -253.5q0 -155 -103 -258t-259 -103q-155 0 -258 103t-103 258q0 152 103 253.5t258 101.5zM395 70q122 0 202 80.5t80 202.5q0 118 -80.5 197.5t-201.5 79.5t-201 -79.5t-80 -197.5q0 -122 80 -202.5t201 -80.5zM399 513q53 0 84.5 -27.5
t31.5 -74.5v-201q0 -12 -12 -12h-62q-12 0 -12 12v2q0 8 -6 2q-21 -21 -59 -21t-61 19.5t-23 72.5q0 56 29 76.5t87 20.5h28q5 0 5 5v15q0 37 -30 37q-21 0 -28 -20q-3 -11 -12 -11l-64 2q-13 0 -11 12q4 42 35.5 66.5t79.5 24.5zM394 255q15 0 25 9t10 24v29q0 5 -5 5h-21
q-17 0 -26.5 -10t-9.5 -26q0 -31 27 -31z" />
    <glyph glyph-name="uni0327.alt" 
d="M-100 -193q-42 0 -78 29q-8 8 -3 17l17 32q7 11 16 2q23 -19 40 -17q25 1 27 24q0 22 -22 22q-11 0 -20 -7q-10 -6 -17 1l-29 26q-8 8 -4 16l24 57q5 10 14 9l23 -3q13 -2 8 -15l-9 -19q-2 -5 1 -5q1 0 3 1q30 13 59 -3q44 -20 44 -79q-1 -41 -27.5 -64.5t-66.5 -23.5z
" />
    <glyph glyph-name="cedilla.alt" horiz-adv-x="192" 
d="M92 -193q-41 0 -70 20q-9 7 -4 17l14 33q5 13 17 3q18 -13 35 -10q25 1 27 24q0 22 -22 22q-11 0 -20 -7q-10 -6 -17 1l-29 26q-7 7 -3 16l28 58q4 10 15 8l20 -3q6 -1 8 -5.5t-1 -9.5l-10 -19q-2 -5 1 -5q1 0 3 1q28 13 58 -3q44 -20 44 -79q-1 -41 -27.5 -64.5
t-66.5 -23.5z" />
    <glyph glyph-name="NULL" 
 />
    </font>
</defs>
</svg>
